<?xml version="1.0" encoding="UTF-8" standalone="no"?>
<!-- Created with Inkscape (http://www.inkscape.org/) -->

<svg
   xmlns:dc="http://purl.org/dc/elements/1.1/"
   xmlns:cc="http://creativecommons.org/ns#"
   xmlns:rdf="http://www.w3.org/1999/02/22-rdf-syntax-ns#"
   xmlns:svg="http://www.w3.org/2000/svg"
   xmlns="http://www.w3.org/2000/svg"
   xmlns:sodipodi="http://sodipodi.sourceforge.net/DTD/sodipodi-0.dtd"
   xmlns:inkscape="http://www.inkscape.org/namespaces/inkscape"
   version="1.1"
   id="svg2"
   xml:space="preserve"
   width="437.43332"
   height="439.00934"
   viewBox="0 0 437.43332 439.00934"
   sodipodi:docname="FA Re-Design Logo 74 postel.ai.svg"
   inkscape:version="0.92.4 (5da689c313, 2019-01-14)"><metadata
     id="metadata8"><rdf:RDF><cc:Work
         rdf:about=""><dc:format>image/svg+xml</dc:format><dc:type
           rdf:resource="http://purl.org/dc/dcmitype/StillImage" /><dc:title></dc:title></cc:Work></rdf:RDF></metadata><defs
     id="defs6"><clipPath
       clipPathUnits="userSpaceOnUse"
       id="clipPath18"><path
         d="m 84.672,43.631 88.352,179.462 H 132.153 L 43.801,43.631 Z"
         id="path16"
         inkscape:connector-curvature="0" /></clipPath><linearGradient
       x1="0"
       y1="0"
       x2="1"
       y2="0"
       gradientUnits="userSpaceOnUse"
       gradientTransform="matrix(0,179.46216,179.46216,0,108.41255,43.631481)"
       spreadMethod="pad"
       id="linearGradient32"><stop
         style="stop-opacity:1;stop-color:#19becf"
         offset="0"
         id="stop24" /><stop
         style="stop-opacity:1;stop-color:#19becf"
         offset="0.00737179"
         id="stop26" /><stop
         style="stop-opacity:1;stop-color:#19becf"
         offset="0.48922062"
         id="stop28" /><stop
         style="stop-opacity:1;stop-color:#164396"
         offset="1"
         id="stop30" /></linearGradient><clipPath
       clipPathUnits="userSpaceOnUse"
       id="clipPath42"><path
         d="M 173.024,223.093 H 55.547 v 35.809 h 92.165 z"
         id="path40"
         inkscape:connector-curvature="0" /></clipPath><linearGradient
       x1="0"
       y1="0"
       x2="1"
       y2="0"
       gradientUnits="userSpaceOnUse"
       gradientTransform="matrix(117.47735,0,0,-117.47735,55.546852,240.99796)"
       spreadMethod="pad"
       id="linearGradient52"><stop
         style="stop-opacity:1;stop-color:#fdb934"
         offset="0"
         id="stop48" /><stop
         style="stop-opacity:1;stop-color:#fff327"
         offset="1"
         id="stop50" /></linearGradient><clipPath
       clipPathUnits="userSpaceOnUse"
       id="clipPath62"><path
         d="M 0,329.257 H 328.075 V 0 H 0 Z"
         id="path60"
         inkscape:connector-curvature="0" /></clipPath><clipPath
       clipPathUnits="userSpaceOnUse"
       id="clipPath74"><path
         d="m 223.725,63.55 h 35.808 v 141.211 h -35.808 z"
         id="path72"
         inkscape:connector-curvature="0" /></clipPath><linearGradient
       x1="0"
       y1="0"
       x2="1"
       y2="0"
       gradientUnits="userSpaceOnUse"
       gradientTransform="matrix(0,141.21098,141.21098,0,241.62944,63.550117)"
       spreadMethod="pad"
       id="linearGradient88"><stop
         style="stop-opacity:1;stop-color:#c40d42"
         offset="0"
         id="stop80" /><stop
         style="stop-opacity:1;stop-color:#c40d42"
         offset="0.37775325"
         id="stop82" /><stop
         style="stop-opacity:1;stop-color:#231f20"
         offset="0.997997"
         id="stop84" /><stop
         style="stop-opacity:1;stop-color:#231f20"
         offset="1"
         id="stop86" /></linearGradient><clipPath
       clipPathUnits="userSpaceOnUse"
       id="clipPath98"><path
         d="m 138.817,129.871 25.312,-35.808 h 120.146 v 35.808 z"
         id="path96"
         inkscape:connector-curvature="0" /></clipPath><linearGradient
       x1="0"
       y1="0"
       x2="1"
       y2="0"
       gradientUnits="userSpaceOnUse"
       gradientTransform="matrix(145.45737,0,0,-145.45737,138.81668,111.96667)"
       spreadMethod="pad"
       id="linearGradient108"><stop
         style="stop-opacity:1;stop-color:#7b1b67"
         offset="0"
         id="stop104" /><stop
         style="stop-opacity:1;stop-color:#ee3e80"
         offset="1"
         id="stop106" /></linearGradient><clipPath
       clipPathUnits="userSpaceOnUse"
       id="clipPath118"><path
         d="m 215.497,285.626 -76.68,-155.755 h 40.871 l 76.681,155.755 z"
         id="path116"
         inkscape:connector-curvature="0" /></clipPath><linearGradient
       x1="0"
       y1="0"
       x2="1"
       y2="0"
       gradientUnits="userSpaceOnUse"
       gradientTransform="matrix(0,155.75491,155.75491,0,197.59256,129.87102)"
       spreadMethod="pad"
       id="linearGradient128"><stop
         style="stop-opacity:1;stop-color:#fdb934"
         offset="0"
         id="stop124" /><stop
         style="stop-opacity:1;stop-color:#f15a22"
         offset="1"
         id="stop126" /></linearGradient><clipPath
       clipPathUnits="userSpaceOnUse"
       id="clipPath138"><path
         d="M 0,329.257 H 328.075 V 0 H 0 Z"
         id="path136"
         inkscape:connector-curvature="0" /></clipPath></defs><sodipodi:namedview
     pagecolor="#ffffff"
     bordercolor="#666666"
     borderopacity="1"
     objecttolerance="10"
     gridtolerance="10"
     guidetolerance="10"
     inkscape:pageopacity="0"
     inkscape:pageshadow="2"
     inkscape:window-width="1366"
     inkscape:window-height="704"
     id="namedview4"
     showgrid="false"
     inkscape:zoom="1.2573764"
     inkscape:cx="218.71666"
     inkscape:cy="219.50467"
     inkscape:window-x="0"
     inkscape:window-y="27"
     inkscape:window-maximized="1"
     inkscape:current-layer="g10" /><g
     id="g10"
     inkscape:groupmode="layer"
     inkscape:label="FA Re-Design Logo 74 (1)"
     transform="matrix(1.3333333,0,0,-1.3333333,0,439.00933)"><g
       id="g1348"><g
         id="g12"><g
           clip-path="url(#clipPath18)"
           id="g14"><g
             id="g20"><g
               id="g22"><path
                 inkscape:connector-curvature="0"
                 id="path34"
                 style="fill:url(#linearGradient32);stroke:none"
                 d="m 84.672,43.631 88.352,179.462 H 132.153 L 43.801,43.631 Z" /></g></g></g></g><g
         id="g36"><g
           clip-path="url(#clipPath42)"
           id="g38"><g
             id="g44"><g
               id="g46"><path
                 inkscape:connector-curvature="0"
                 id="path54"
                 style="fill:url(#linearGradient52);stroke:none"
                 d="M 173.024,223.093 H 55.547 v 35.809 h 92.165 z" /></g></g></g></g><g
         id="g56"><g
           clip-path="url(#clipPath62)"
           id="g58"><g
             transform="translate(147.7364,236.6667)"
             id="g64"><path
               inkscape:connector-curvature="0"
               id="path66"
               style="fill:#ffffff;fill-opacity:1;fill-rule:nonzero;stroke:none"
               d="m 0,0 h -45.863 c -0.162,0 -0.315,0.079 -0.408,0.211 l -7.315,10.348 c -0.159,0.225 -0.105,0.537 0.119,0.696 0.225,0.159 0.537,0.107 0.697,-0.119 L -45.604,1 H 0 C 0.276,1 0.5,0.776 0.5,0.5 0.5,0.224 0.276,0 0,0" /></g></g></g><g
         id="g68"><g
           clip-path="url(#clipPath74)"
           id="g70"><g
             id="g76"><g
               id="g78"><path
                 inkscape:connector-curvature="0"
                 id="path90"
                 style="fill:url(#linearGradient88);stroke:none"
                 d="m 223.725,63.55 h 35.808 v 141.211 h -35.808 z" /></g></g></g></g><g
         id="g92"><g
           clip-path="url(#clipPath98)"
           id="g94"><g
             id="g100"><g
               id="g102"><path
                 inkscape:connector-curvature="0"
                 id="path110"
                 style="fill:url(#linearGradient108);stroke:none"
                 d="m 138.817,129.871 25.312,-35.808 h 120.146 v 35.808 z" /></g></g></g></g><g
         id="g112"><g
           clip-path="url(#clipPath118)"
           id="g114"><g
             id="g120"><g
               id="g122"><path
                 inkscape:connector-curvature="0"
                 id="path130"
                 style="fill:url(#linearGradient128);stroke:none"
                 d="m 215.497,285.626 -76.68,-155.755 h 40.871 l 76.681,155.755 z" /></g></g></g></g><g
         id="g132"><g
           clip-path="url(#clipPath138)"
           id="g134"><g
             transform="translate(174.5245,133.6437)"
             id="g140"><path
               inkscape:connector-curvature="0"
               id="path142"
               style="fill:#ffffff;fill-opacity:1;fill-rule:nonzero;stroke:none"
               d="m 0,0 h -11.686 c -0.276,0 -0.5,0.224 -0.5,0.5 0,0.276 0.224,0.5 0.5,0.5 h 11.374 l 25.991,52.79 c 0.123,0.248 0.421,0.347 0.669,0.228 0.248,-0.122 0.349,-0.422 0.227,-0.67 L 0.448,0.279 C 0.364,0.108 0.19,0 0,0" /></g><g
             transform="translate(189.3907,210.0734)"
             id="g144"><path
               inkscape:connector-curvature="0"
               id="path146"
               style="fill:#ffffff;fill-opacity:1;fill-rule:nonzero;stroke:none"
               d="m 0,0 c -0.037,0 -0.075,0.008 -0.11,0.026 -0.124,0.061 -0.175,0.21 -0.115,0.334 l 32.329,65.665 c 0.061,0.124 0.214,0.174 0.334,0.114 0.125,-0.061 0.175,-0.21 0.115,-0.334 L 0.225,0.14 C 0.181,0.051 0.092,0 0,0" /></g><g
             transform="translate(166.6221,137.6095)"
             id="g148"><path
               inkscape:connector-curvature="0"
               id="path150"
               style="fill:#ffffff;fill-opacity:1;fill-rule:nonzero;stroke:none"
               d="M 0,0 C -0.037,0 -0.075,0.008 -0.11,0.025 -0.234,0.087 -0.285,0.236 -0.225,0.36 l 32.329,65.665 c 0.061,0.124 0.213,0.173 0.334,0.114 0.125,-0.061 0.175,-0.211 0.115,-0.335 L 0.225,0.14 C 0.181,0.051 0.092,0 0,0" /></g><g
             transform="translate(98.4376,56.7902)"
             id="g152"><path
               inkscape:connector-curvature="0"
               id="path154"
               style="fill:#19becf;fill-opacity:1;fill-rule:nonzero;stroke:none"
               d="M 0,0 H 2.398 V -4.686 H 6.543 V 0 h 2.39 v -12.419 h -2.39 v 5.445 H 2.398 v -5.445 H 0 Z" /></g><g
             transform="translate(114.3438,53.4972)"
             id="g156"><path
               inkscape:connector-curvature="0"
               id="path158"
               style="fill:#19becf;fill-opacity:1;fill-rule:nonzero;stroke:none"
               d="M 0,0 -1.666,-4.264 H 1.656 Z M -1.213,3.293 H 1.184 L 5.96,-9.126 H 3.504 l -0.972,2.558 h -5.067 l -1.011,-2.558 h -2.456 z" /></g><g
             transform="translate(123.7911,51.9357)"
             id="g160"><path
               inkscape:connector-curvature="0"
               id="path162"
               style="fill:#19becf;fill-opacity:1;fill-rule:nonzero;stroke:none"
               d="m 0,0 h 0.741 c 0.752,0 1.27,0.099 1.553,0.296 0.283,0.198 0.425,0.525 0.425,0.982 0,0.272 -0.071,0.507 -0.21,0.708 C 2.368,2.187 2.18,2.33 1.944,2.418 1.709,2.506 1.276,2.549 0.648,2.549 H 0 Z m -2.363,4.854 h 2.504 c 1.372,0 2.348,-0.123 2.93,-0.368 C 3.653,4.242 4.121,3.835 4.476,3.267 4.829,2.698 5.007,2.025 5.007,1.249 5.007,0.433 4.811,-0.249 4.42,-0.798 4.028,-1.347 3.439,-1.762 2.651,-2.043 L 5.594,-7.564 H 3.009 L 0.217,-2.305 H 0 v -5.259 h -2.363 z" /></g><path
             inkscape:connector-curvature="0"
             id="path164"
             style="fill:#19becf;fill-opacity:1;fill-rule:nonzero;stroke:none"
             d="m 130.264,56.79 h 2.347 V 44.371 h -2.347 z" /><g
             transform="translate(140.7422,49.8078)"
             id="g166"><path
               inkscape:connector-curvature="0"
               id="path168"
               style="fill:#19becf;fill-opacity:1;fill-rule:nonzero;stroke:none"
               d="m 0,0 v -3.183 h 0.592 c 0.982,0 1.644,0.124 1.985,0.372 0.342,0.248 0.513,0.608 0.513,1.081 0,0.535 -0.201,0.957 -0.602,1.266 C 2.088,-0.154 1.422,0 0.49,0 Z M 0,4.728 V 2.11 h 0.517 c 0.576,0 1.004,0.121 1.284,0.364 C 2.08,2.716 2.22,3.045 2.22,3.462 2.22,3.85 2.087,4.158 1.821,4.386 1.556,4.614 1.152,4.728 0.609,4.728 Z M -2.364,-5.437 V 6.982 h 1.952 C 0.721,6.982 1.549,6.909 2.073,6.763 2.817,6.565 3.409,6.199 3.849,5.665 4.288,5.13 4.508,4.5 4.508,3.773 4.508,3.301 4.408,2.872 4.208,2.486 4.008,2.101 3.684,1.739 3.233,1.401 3.987,1.047 4.539,0.604 4.888,0.072 5.236,-0.46 5.411,-1.089 5.411,-1.814 5.411,-2.513 5.23,-3.148 4.87,-3.723 4.51,-4.297 4.045,-4.726 3.476,-5.01 2.906,-5.295 2.12,-5.437 1.118,-5.437 Z" /></g><g
             transform="translate(147.5342,56.7902)"
             id="g170"><path
               inkscape:connector-curvature="0"
               id="path172"
               style="fill:#19becf;fill-opacity:1;fill-rule:nonzero;stroke:none"
               d="M 0,0 H 2.397 V -4.686 H 6.543 V 0 H 8.932 V -12.419 H 6.543 v 5.445 H 2.397 v -5.445 H 0 Z" /></g><g
             transform="translate(163.4405,53.4972)"
             id="g174"><path
               inkscape:connector-curvature="0"
               id="path176"
               style="fill:#19becf;fill-opacity:1;fill-rule:nonzero;stroke:none"
               d="M 0,0 -1.667,-4.264 H 1.656 Z M -1.214,3.293 H 1.184 L 5.96,-9.126 H 3.503 l -0.972,2.558 h -5.067 l -1.01,-2.558 h -2.457 z" /></g><g
             transform="translate(170.3809,56.7902)"
             id="g178"><path
               inkscape:connector-curvature="0"
               id="path180"
               style="fill:#19becf;fill-opacity:1;fill-rule:nonzero;stroke:none"
               d="M 0,0 H 2.389 V -4.281 L 5.76,0 H 8.599 L 4.262,-5.543 9.021,-12.419 H 6.217 l -3.828,5.518 v -5.518 H 0 Z" /></g><g
             transform="translate(178.9962,56.7902)"
             id="g182"><path
               inkscape:connector-curvature="0"
               id="path184"
               style="fill:#19becf;fill-opacity:1;fill-rule:nonzero;stroke:none"
               d="M 0,0 H 6.863 V -2.33 H 4.601 V -12.419 H 2.203 V -2.33 H 0 Z" /></g><path
             inkscape:connector-curvature="0"
             id="path186"
             style="fill:#19becf;fill-opacity:1;fill-rule:nonzero;stroke:none"
             d="m 186.447,56.79 h 2.348 V 44.371 h -2.348 z" /><g
             transform="translate(196.9171,51.9357)"
             id="g188"><path
               inkscape:connector-curvature="0"
               id="path190"
               style="fill:#19becf;fill-opacity:1;fill-rule:nonzero;stroke:none"
               d="m 0,0 h 0.752 c 0.591,0 1.001,0.042 1.232,0.127 0.231,0.085 0.412,0.225 0.544,0.419 0.133,0.195 0.199,0.431 0.199,0.707 0,0.48 -0.186,0.83 -0.557,1.051 C 1.899,2.468 1.398,2.549 0.667,2.549 H 0 Z M -2.363,4.854 H 0.144 C 1.5,4.854 2.478,4.729 3.077,4.479 3.677,4.228 4.149,3.822 4.496,3.263 4.842,2.702 5.015,2.031 5.015,1.249 5.015,0.383 4.788,-0.338 4.335,-0.912 3.882,-1.486 3.268,-1.886 2.49,-2.11 2.035,-2.24 1.204,-2.305 0,-2.305 v -5.259 h -2.363 z" /></g><g
             transform="translate(209.2188,54.7892)"
             id="g192"><path
               inkscape:connector-curvature="0"
               id="path194"
               style="fill:#19becf;fill-opacity:1;fill-rule:nonzero;stroke:none"
               d="m 0,0 c -1.149,0 -2.115,-0.4 -2.898,-1.199 -0.784,-0.799 -1.175,-1.816 -1.175,-3.048 0,-1.373 0.493,-2.459 1.479,-3.259 0.766,-0.624 1.645,-0.936 2.636,-0.936 1.121,0 2.076,0.405 2.865,1.215 0.789,0.811 1.184,1.81 1.184,2.998 0,1.181 -0.398,2.181 -1.193,3 C 2.104,-0.41 1.138,0 0,0 m 0.025,2.313 c 1.757,0 3.268,-0.636 4.533,-1.908 1.264,-1.272 1.896,-2.823 1.896,-4.652 0,-1.812 -0.624,-3.346 -1.871,-4.601 -1.247,-1.255 -2.761,-1.882 -4.541,-1.882 -1.863,0 -3.412,0.644 -4.646,1.933 -1.233,1.288 -1.85,2.819 -1.85,4.593 0,1.187 0.287,2.279 0.862,3.275 0.574,0.996 1.364,1.785 2.369,2.368 1.005,0.582 2.088,0.874 3.248,0.874" /></g><g
             transform="translate(223.5538,55.1017)"
             id="g196"><path
               inkscape:connector-curvature="0"
               id="path198"
               style="fill:#19becf;fill-opacity:1;fill-rule:nonzero;stroke:none"
               d="m 0,0 -1.751,-1.545 c -0.614,0.856 -1.24,1.283 -1.877,1.283 -0.31,0 -0.564,-0.084 -0.762,-0.249 -0.197,-0.167 -0.296,-0.353 -0.296,-0.561 0,-0.209 0.071,-0.406 0.212,-0.591 0.192,-0.248 0.77,-0.78 1.734,-1.596 0.902,-0.755 1.449,-1.23 1.64,-1.427 0.48,-0.484 0.819,-0.947 1.019,-1.388 0.2,-0.443 0.301,-0.925 0.301,-1.448 0,-1.019 -0.353,-1.861 -1.057,-2.525 -0.704,-0.664 -1.622,-0.996 -2.755,-0.996 -0.885,0 -1.655,0.217 -2.311,0.65 -0.657,0.434 -1.219,1.115 -1.687,2.043 l 1.987,1.199 c 0.598,-1.097 1.286,-1.646 2.064,-1.646 0.405,0 0.746,0.118 1.022,0.355 0.277,0.236 0.415,0.508 0.415,0.818 0,0.281 -0.104,0.563 -0.313,0.845 -0.209,0.281 -0.668,0.712 -1.378,1.291 -1.353,1.103 -2.228,1.955 -2.622,2.553 -0.395,0.6 -0.592,1.199 -0.592,1.794 0,0.862 0.328,1.601 0.985,2.217 C -5.366,1.692 -4.556,2 -3.592,2 -2.973,2 -2.382,1.856 -1.821,1.569 -1.261,1.283 -0.653,0.76 0,0" /></g><g
             transform="translate(223.9395,56.7902)"
             id="g200"><path
               inkscape:connector-curvature="0"
               id="path202"
               style="fill:#19becf;fill-opacity:1;fill-rule:nonzero;stroke:none"
               d="M 0,0 H 6.863 V -2.33 H 4.601 V -12.419 H 2.203 V -2.33 H 0 Z" /></g><g
             transform="translate(231.5674,56.7902)"
             id="g204"><path
               inkscape:connector-curvature="0"
               id="path206"
               style="fill:#19becf;fill-opacity:1;fill-rule:nonzero;stroke:none"
               d="M 0,0 H 6.779 V -2.313 H 2.347 V -4.56 H 6.779 V -6.83 H 2.347 v -3.268 h 4.432 v -2.321 H 0 Z" /></g><g
             transform="translate(239.6856,56.7902)"
             id="g208"><path
               inkscape:connector-curvature="0"
               id="path210"
               style="fill:#19becf;fill-opacity:1;fill-rule:nonzero;stroke:none"
               d="m 0,0 h 2.364 v -10.165 h 3.445 v -2.254 H 0 Z" /></g><g
             transform="translate(251.9962,52.7882)"
             id="g212"><path
               inkscape:connector-curvature="0"
               id="path214"
               style="fill:#19becf;fill-opacity:1;fill-rule:nonzero;stroke:none"
               d="m 0,0 h -2.305 c 0.063,1.339 0.483,2.394 1.263,3.161 0.779,0.769 1.779,1.152 3.001,1.152 0.754,0 1.419,-0.159 1.996,-0.476 C 4.532,3.519 4.994,3.061 5.34,2.461 5.686,1.861 5.859,1.252 5.859,0.633 c 0,-0.737 -0.21,-1.53 -0.63,-2.381 C 4.811,-2.598 4.043,-3.603 2.928,-4.762 L 1.534,-6.23 H 5.96 v -2.187 h -8.603 v 1.131 l 3.842,3.918 c 0.929,0.939 1.546,1.695 1.853,2.266 0.306,0.572 0.46,1.087 0.46,1.549 0,0.479 -0.158,0.874 -0.477,1.187 C 2.717,1.945 2.308,2.102 1.807,2.102 1.3,2.102 0.878,1.913 0.54,1.536 0.203,1.159 0.022,0.647 0,0" /></g><g
             transform="translate(262.6592,54.8566)"
             id="g216"><path
               inkscape:connector-curvature="0"
               id="path218"
               style="fill:#19becf;fill-opacity:1;fill-rule:nonzero;stroke:none"
               d="m 0,0 c -0.398,0 -0.753,-0.128 -1.062,-0.384 -0.308,-0.257 -0.544,-0.697 -0.708,-1.321 -0.162,-0.625 -0.244,-1.54 -0.244,-2.744 0,-1.571 0.187,-2.655 0.561,-3.255 0.373,-0.599 0.857,-0.899 1.453,-0.899 0.573,0 1.027,0.285 1.365,0.853 0.409,0.687 0.614,1.835 0.614,3.444 0,1.632 -0.183,2.758 -0.551,3.377 C 1.061,-0.31 0.584,0 0,0 m -0.055,2.245 c 0.907,0 1.687,-0.222 2.343,-0.667 0.655,-0.444 1.162,-1.124 1.52,-2.038 0.357,-0.915 0.536,-2.188 0.536,-3.82 0,-1.65 -0.182,-2.933 -0.545,-3.85 -0.362,-0.918 -0.852,-1.592 -1.465,-2.022 -0.613,-0.43 -1.387,-0.646 -2.321,-0.646 -0.935,0 -1.72,0.217 -2.356,0.651 -0.636,0.433 -1.134,1.091 -1.494,1.975 -0.36,0.883 -0.54,2.141 -0.54,3.774 0,2.279 0.352,3.93 1.055,4.955 0.782,1.126 1.872,1.688 3.267,1.688" /></g><g
             transform="translate(269.4639,56.7902)"
             id="g220"><path
               inkscape:connector-curvature="0"
               id="path222"
               style="fill:#19becf;fill-opacity:1;fill-rule:nonzero;stroke:none"
               d="M 0,0 H 3.537 V -12.419 H 1.19 v 10.198 h -2.557 z" /></g><g
             transform="translate(280.4024,51.5216)"
             id="g224"><path
               inkscape:connector-curvature="0"
               id="path226"
               style="fill:#19becf;fill-opacity:1;fill-rule:nonzero;stroke:none"
               d="M 0,0 C 0.439,0 0.808,0.16 1.106,0.48 1.404,0.8 1.554,1.196 1.554,1.667 1.554,2.15 1.397,2.555 1.085,2.88 0.772,3.206 0.408,3.368 -0.009,3.368 -0.447,3.368 -0.824,3.207 -1.14,2.885 -1.455,2.562 -1.612,2.159 -1.612,1.676 -1.612,1.198 -1.459,0.8 -1.152,0.48 -0.846,0.16 -0.461,0 0,0 m -0.295,-7.463 -2.009,0.997 2.176,4.229 c -1.055,0 -1.951,0.377 -2.689,1.13 -0.74,0.753 -1.109,1.689 -1.109,2.808 0,1.085 0.379,2.003 1.136,2.753 0.757,0.751 1.67,1.126 2.739,1.126 1.12,0 2.053,-0.389 2.799,-1.167 C 3.494,3.634 3.866,2.739 3.866,1.728 3.866,1.345 3.809,0.961 3.693,0.576 3.578,0.191 3.313,-0.403 2.896,-1.207 Z" /></g><g
             transform="translate(167.0089,118.9875)"
             id="g228"><path
               inkscape:connector-curvature="0"
               id="path230"
               style="fill:#ffffff;fill-opacity:1;fill-rule:nonzero;stroke:none"
               d="M 0,0 V 1.693 H 9.479 V 0 H 5.621 V -15.604 H 3.857 L 3.857,0 Z" /></g><g
             transform="translate(190.6202,117.006)"
             id="g232"><path
               inkscape:connector-curvature="0"
               id="path234"
               style="fill:#ffffff;fill-opacity:1;fill-rule:nonzero;stroke:none"
               d="M 0,0 -2.965,-6.262 H 2.949 Z M 0.218,3.675 8.284,-13.623 H 6.417 l -2.72,5.691 h -7.452 l -2.694,-5.691 h -1.929 l 8.173,17.298 z" /></g><g
             transform="translate(208.3047,120.6808)"
             id="g236"><path
               inkscape:connector-curvature="0"
               id="path238"
               style="fill:#ffffff;fill-opacity:1;fill-rule:nonzero;stroke:none"
               d="m 0,0 h 1.729 v -7.256 h 8.807 V 0 h 1.729 v -17.298 h -1.729 v 8.349 H 1.729 v -8.349 H 0 Z" /></g><g
             transform="translate(231.5821,120.6808)"
             id="g240"><path
               inkscape:connector-curvature="0"
               id="path242"
               style="fill:#ffffff;fill-opacity:1;fill-rule:nonzero;stroke:none"
               d="m 0,0 h 1.729 v -10.442 c 0,-1.239 0.023,-2.011 0.07,-2.317 0.086,-0.681 0.286,-1.252 0.599,-1.711 0.314,-0.458 0.796,-0.843 1.447,-1.152 0.65,-0.31 1.305,-0.465 1.964,-0.465 0.572,0 1.121,0.122 1.646,0.365 0.524,0.243 0.964,0.58 1.316,1.011 0.354,0.432 0.612,0.953 0.777,1.565 0.117,0.438 0.177,1.339 0.177,2.704 V 0 h 1.728 v -10.442 c 0,-1.544 -0.151,-2.793 -0.453,-3.746 -0.302,-0.952 -0.905,-1.781 -1.811,-2.487 -0.905,-0.705 -2.001,-1.057 -3.287,-1.057 -1.395,0 -2.59,0.333 -3.586,0.999 -0.996,0.666 -1.662,1.548 -1.999,2.645 C 0.105,-13.413 0,-12.198 0,-10.442 Z" /></g><g
             transform="translate(254.046,103.383)"
             id="g244"><path
               inkscape:connector-curvature="0"
               id="path246"
               style="fill:#ffffff;fill-opacity:1;fill-rule:nonzero;stroke:none"
               d="M 0,0 V 17.298 H 0.377 L 11.889,4.038 v 13.26 h 1.705 L 13.594,0 H 13.206 L 1.788,13.099 V 0 Z" /></g><g
             transform="translate(150.0059,237.1667)"
             id="g248"><path
               inkscape:connector-curvature="0"
               id="path250"
               style="fill:#ffffff;fill-opacity:1;fill-rule:nonzero;stroke:none"
               d="m 0,0 c 0,-1.253 -1.017,-2.269 -2.27,-2.269 -1.252,0 -2.269,1.016 -2.269,2.269 0,1.253 1.017,2.269 2.269,2.269 C -1.017,2.269 0,1.253 0,0" /></g><g
             transform="translate(59.5401,60.507)"
             id="g252"><path
               inkscape:connector-curvature="0"
               id="path254"
               style="fill:#ffffff;fill-opacity:1;fill-rule:nonzero;stroke:none"
               d="M 0,0 C -0.037,0 -0.075,0.008 -0.11,0.025 -0.234,0.087 -0.285,0.236 -0.225,0.36 l 74.797,151.929 c 0.042,0.086 0.129,0.14 0.225,0.14 h 28.324 c 0.138,0 0.25,-0.112 0.25,-0.25 0,-0.138 -0.112,-0.25 -0.25,-0.25 H 74.952 L 0.225,0.14 C 0.181,0.051 0.092,0 0,0" /></g><g
             transform="translate(164.9307,212.6862)"
             id="g256"><path
               inkscape:connector-curvature="0"
               id="path258"
               style="fill:#ffffff;fill-opacity:1;fill-rule:nonzero;stroke:none"
               d="m 0,0 c 0,-1.253 -1.016,-2.27 -2.27,-2.27 -1.252,0 -2.268,1.017 -2.268,2.27 0,1.253 1.016,2.269 2.268,2.269 C -1.016,2.269 0,1.253 0,0" /></g><g
             transform="translate(167.8555,148.2033)"
             id="g260"><path
               inkscape:connector-curvature="0"
               id="path262"
               style="fill:#ffffff;fill-opacity:1;fill-rule:nonzero;stroke:none"
               d="m 0,0 c 0,-1.253 -1.016,-2.269 -2.269,-2.269 -1.253,0 -2.269,1.016 -2.269,2.269 0,1.254 1.016,2.27 2.269,2.27 C -1.016,2.27 0,1.254 0,0" /></g><g
             transform="translate(202.921,187.2126)"
             id="g264"><path
               inkscape:connector-curvature="0"
               id="path266"
               style="fill:#ffffff;fill-opacity:1;fill-rule:nonzero;stroke:none"
               d="m 0,0 c 0,-1.253 -1.017,-2.269 -2.27,-2.269 -1.252,0 -2.269,1.016 -2.269,2.269 0,1.253 1.017,2.27 2.269,2.27 C -1.017,2.27 0,1.253 0,0" /></g><g
             transform="translate(249.21,141.4484)"
             id="g268"><path
               inkscape:connector-curvature="0"
               id="path270"
               style="fill:#ffffff;fill-opacity:1;fill-rule:nonzero;stroke:none"
               d="m 0,0 c 0,-1.254 -1.016,-2.27 -2.27,-2.27 -1.252,0 -2.268,1.016 -2.268,2.27 0,1.253 1.016,2.269 2.268,2.269 C -1.016,2.269 0,1.253 0,0" /></g><g
             transform="translate(230.1309,89.4455)"
             id="g272"><path
               inkscape:connector-curvature="0"
               id="path274"
               style="fill:#ffffff;fill-opacity:1;fill-rule:nonzero;stroke:none"
               d="m 0,0 c 0,-1.254 -1.016,-2.27 -2.269,-2.27 -1.253,0 -2.269,1.016 -2.269,2.27 0,1.253 1.016,2.269 2.269,2.269 C -1.016,2.269 0,1.253 0,0" /></g><g
             transform="translate(254.1426,84.715)"
             id="g276"><path
               inkscape:connector-curvature="0"
               id="path278"
               style="fill:#ffffff;fill-opacity:1;fill-rule:nonzero;stroke:none"
               d="m 0,0 c 0,-1.253 -1.016,-2.27 -2.27,-2.27 -1.252,0 -2.268,1.017 -2.268,2.27 0,1.253 1.016,2.27 2.268,2.27 C -1.016,2.27 0,1.253 0,0" /></g><g
             transform="translate(246.6827,69.0558)"
             id="g280"><path
               inkscape:connector-curvature="0"
               id="path282"
               style="fill:#ffffff;fill-opacity:1;fill-rule:nonzero;stroke:none"
               d="m 0,0 c 0,-1.253 -1.017,-2.269 -2.27,-2.269 -1.252,0 -2.269,1.016 -2.269,2.269 0,1.254 1.017,2.27 2.269,2.27 C -1.017,2.27 0,1.254 0,0" /></g><g
             transform="translate(258.7227,178.8205)"
             id="g284"><path
               inkscape:connector-curvature="0"
               id="path286"
               style="fill:#ffffff;fill-opacity:1;fill-rule:nonzero;stroke:none"
               d="m 0,0 c 0,-1.253 -1.016,-2.27 -2.269,-2.27 -1.253,0 -2.269,1.017 -2.269,2.27 0,1.253 1.016,2.269 2.269,2.269 C -1.016,2.269 0,1.253 0,0" /></g><g
             transform="translate(177.6827,170.692)"
             id="g288"><path
               inkscape:connector-curvature="0"
               id="path290"
               style="fill:#ffffff;fill-opacity:1;fill-rule:nonzero;stroke:none"
               d="m 0,0 c 0,-1.253 -1.017,-2.27 -2.27,-2.27 -1.252,0 -2.269,1.017 -2.269,2.27 0,1.253 1.017,2.269 2.269,2.269 C -1.017,2.269 0,1.253 0,0" /></g><g
             transform="translate(228.7549,262.4005)"
             id="g292"><path
               inkscape:connector-curvature="0"
               id="path294"
               style="fill:#ffffff;fill-opacity:1;fill-rule:nonzero;stroke:none"
               d="m 0,0 c 0,-1.253 -1.016,-2.269 -2.27,-2.269 -1.252,0 -2.268,1.016 -2.268,2.269 0,1.253 1.016,2.27 2.268,2.27 C -1.016,2.27 0,1.253 0,0" /></g><g
             transform="translate(61.8087,60.757)"
             id="g296"><path
               inkscape:connector-curvature="0"
               id="path298"
               style="fill:#ffffff;fill-opacity:1;fill-rule:nonzero;stroke:none"
               d="m 0,0 c 0,-1.253 -1.016,-2.269 -2.269,-2.269 -1.253,0 -2.269,1.016 -2.269,2.269 0,1.254 1.016,2.27 2.269,2.27 C -1.016,2.27 0,1.254 0,0" /></g><g
             transform="translate(101.5665,113.383)"
             id="g300"><path
               inkscape:connector-curvature="0"
               id="path302"
               style="fill:#ffffff;fill-opacity:1;fill-rule:nonzero;stroke:none"
               d="m 0,0 c 0,-1.253 -1.016,-2.269 -2.269,-2.269 -1.253,0 -2.269,1.016 -2.269,2.269 0,1.254 1.016,2.27 2.269,2.27 C -1.016,2.27 0,1.254 0,0" /></g><g
             transform="translate(116.5547,242.3737)"
             id="g304"><path
               inkscape:connector-curvature="0"
               id="path306"
               style="fill:#ffffff;fill-opacity:1;fill-rule:nonzero;stroke:none"
               d="m 0,0 c 0,-1.253 -1.016,-2.269 -2.27,-2.269 -1.252,0 -2.268,1.016 -2.268,2.269 0,1.253 1.016,2.269 2.268,2.269 C -1.016,2.269 0,1.253 0,0" /></g><g
             transform="translate(160.3926,229.0729)"
             id="g308"><path
               inkscape:connector-curvature="0"
               id="path310"
               style="fill:#ffffff;fill-opacity:1;fill-rule:nonzero;stroke:none"
               d="M 0,0 C -0.156,0 -0.311,0.074 -0.408,0.211 L -13.089,18.15 c -0.159,0.225 -0.105,0.537 0.119,0.697 0.224,0.157 0.536,0.106 0.698,-0.12 L 0.408,0.789 C 0.567,0.563 0.514,0.251 0.289,0.092 0.201,0.03 0.101,0 0,0" /></g><g
             transform="translate(162.6612,229.5729)"
             id="g312"><path
               inkscape:connector-curvature="0"
               id="path314"
               style="fill:#ffffff;fill-opacity:1;fill-rule:nonzero;stroke:none"
               d="m 0,0 c 0,-1.253 -1.016,-2.269 -2.269,-2.269 -1.253,0 -2.269,1.016 -2.269,2.269 0,1.253 1.016,2.269 2.269,2.269 C -1.016,2.269 0,1.253 0,0" /></g><g
             transform="translate(160.3926,229.3229)"
             id="g316"><path
               inkscape:connector-curvature="0"
               id="path318"
               style="fill:#ffffff;fill-opacity:1;fill-rule:nonzero;stroke:none"
               d="m 0,0 h -87.828 c -0.138,0 -0.25,0.112 -0.25,0.25 0,0.138 0.112,0.25 0.25,0.25 H 0 C 0.138,0.5 0.25,0.388 0.25,0.25 0.25,0.112 0.138,0 0,0" /></g><g
             transform="translate(99.2979,113.133)"
             id="g320"><path
               inkscape:connector-curvature="0"
               id="path322"
               style="fill:#ffffff;fill-opacity:1;fill-rule:nonzero;stroke:none"
               d="M 0,0 C -0.037,0 -0.075,0.008 -0.11,0.025 -0.234,0.087 -0.285,0.236 -0.225,0.36 l 48.888,99.303 c 0.063,0.124 0.214,0.174 0.335,0.114 0.124,-0.061 0.175,-0.211 0.114,-0.335 L 0.225,0.14 C 0.181,0.051 0.092,0 0,0" /></g><g
             transform="translate(228.2637,137.6095)"
             id="g324"><path
               inkscape:connector-curvature="0"
               id="path326"
               style="fill:#ffffff;fill-opacity:1;fill-rule:nonzero;stroke:none"
               d="m 0,0 c -0.138,0 -0.25,0.112 -0.25,0.25 v 62.811 c 0,0.138 0.112,0.25 0.25,0.25 0.138,0 0.25,-0.112 0.25,-0.25 V 0.25 C 0.25,0.112 0.138,0 0,0" /></g><g
             transform="translate(238.6495,132.425)"
             id="g328"><path
               inkscape:connector-curvature="0"
               id="path330"
               style="fill:#ffffff;fill-opacity:1;fill-rule:nonzero;stroke:none"
               d="m 0,0 c -0.276,0 -0.5,0.224 -0.5,0.5 v 62.811 c 0,0.276 0.224,0.5 0.5,0.5 0.276,0 0.5,-0.224 0.5,-0.5 V 0.5 C 0.5,0.224 0.276,0 0,0" /></g><g
             transform="translate(246.9405,141.1984)"
             id="g332"><path
               inkscape:connector-curvature="0"
               id="path334"
               style="fill:#ffffff;fill-opacity:1;fill-rule:nonzero;stroke:none"
               d="m 0,0 c -0.138,0 -0.25,0.112 -0.25,0.25 v 10.097 l -14.171,14.172 c -0.047,0.046 -0.073,0.11 -0.073,0.176 v 21.319 c 0,0.138 0.112,0.25 0.25,0.25 0.138,0 0.25,-0.112 0.25,-0.25 V 24.799 L 0.177,10.627 C 0.224,10.58 0.25,10.517 0.25,10.45 V 0.25 C 0.25,0.112 0.138,0 0,0" /></g><g
             transform="translate(256.4532,140.1964)"
             id="g336"><path
               inkscape:connector-curvature="0"
               id="path338"
               style="fill:#ffffff;fill-opacity:1;fill-rule:nonzero;stroke:none"
               d="m 0,0 c -0.064,0 -0.128,0.024 -0.177,0.073 l -6.001,6.002 c -0.047,0.047 -0.073,0.111 -0.073,0.177 v 26.455 c 0,0.066 0.026,0.13 0.073,0.177 l 5.916,5.916 c 0.098,0.098 0.256,0.098 0.354,0 0.097,-0.097 0.097,-0.256 0,-0.353 L -5.751,32.604 V 6.355 L 0.177,0.427 C 0.274,0.329 0.274,0.171 0.177,0.073 0.128,0.024 0.064,0 0,0" /></g><g
             transform="translate(227.8624,66.2746)"
             id="g340"><path
               inkscape:connector-curvature="0"
               id="path342"
               style="fill:#ffffff;fill-opacity:1;fill-rule:nonzero;stroke:none"
               d="m 0,0 c -0.138,0 -0.25,0.112 -0.25,0.25 v 22.92 c 0,0.138 0.112,0.25 0.25,0.25 0.138,0 0.25,-0.112 0.25,-0.25 V 0.25 C 0.25,0.112 0.138,0 0,0" /></g><g
             transform="translate(251.8731,66.2746)"
             id="g344"><path
               inkscape:connector-curvature="0"
               id="path346"
               style="fill:#ffffff;fill-opacity:1;fill-rule:nonzero;stroke:none"
               d="m 0,0 c -0.138,0 -0.25,0.112 -0.25,0.25 v 18.19 c 0,0.138 0.112,0.25 0.25,0.25 0.138,0 0.25,-0.112 0.25,-0.25 V 0.25 C 0.25,0.112 0.138,0 0,0" /></g><g
             transform="translate(244.4131,68.5558)"
             id="g348"><path
               inkscape:connector-curvature="0"
               id="path350"
               style="fill:#ffffff;fill-opacity:1;fill-rule:nonzero;stroke:none"
               d="m 0,0 c -0.276,0 -0.5,0.224 -0.5,0.5 v 8.637 l -10.662,10.662 c -0.195,0.195 -0.195,0.512 0,0.707 0.195,0.195 0.512,0.195 0.707,0 L 0.354,9.697 C 0.447,9.604 0.5,9.477 0.5,9.344 V 0.5 C 0.5,0.224 0.276,0 0,0" /></g><g
             transform="translate(148.1446,237.4552)"
             id="g352"><path
               inkscape:connector-curvature="0"
               id="path354"
               style="fill:#ffffff;fill-opacity:1;fill-rule:nonzero;stroke:none"
               d="m 0,0 -12.681,17.938 c -0.093,0.133 -0.246,0.212 -0.408,0.212 h -79.509 v -1 h 79.25 L -0.816,-0.577 c 0.097,-0.138 0.252,-0.212 0.408,-0.212 0.1,0 0.201,0.03 0.289,0.092 C 0.105,-0.538 0.159,-0.226 0,0" /></g><g
             transform="translate(138.6876,250.2169)"
             id="g356"><path
               inkscape:connector-curvature="0"
               id="path358"
               style="fill:#ffffff;fill-opacity:1;fill-rule:nonzero;stroke:none"
               d="m 0,0 h -83.141 v -0.5 0 H 0 c 0.138,0 0.25,0.112 0.25,0.25 C 0.25,-0.112 0.138,0 0,0" /></g><g
             transform="translate(114.2852,242.6232)"
             id="g360"><path
               inkscape:connector-curvature="0"
               id="path362"
               style="fill:#ffffff;fill-opacity:1;fill-rule:nonzero;stroke:none"
               d="m 0,0 h -58.738 v -0.5 0 H 0 c 0.138,0 0.25,0.112 0.25,0.25 C 0.25,-0.112 0.138,0 0,0" /></g><g
             transform="translate(111.7921,98.716)"
             id="g364"><path
               inkscape:connector-curvature="0"
               id="path366"
               style="fill:#ffffff;fill-opacity:1;fill-rule:nonzero;stroke:none"
               d="m 0,0 h -16.375 c -0.096,0 -0.183,-0.054 -0.225,-0.14 l -27.049,-54.945 h 0.557 L -16.22,-0.5 h 15.973 z" /></g><g
             transform="translate(160.5284,197.7126)"
             id="g368"><path
               inkscape:connector-curvature="0"
               id="path370"
               style="fill:#ffffff;fill-opacity:1;fill-rule:nonzero;stroke:none"
               d="m 0,0 h -28.461 c -0.19,0 -0.364,-0.108 -0.448,-0.279 l -75.72,-153.803 h 1.114 L -28.149,-1 h 27.657 z" /></g><g
             transform="translate(251.8702,276.4884)"
             id="g372"><path
               inkscape:connector-curvature="0"
               id="path374"
               style="fill:#ffffff;fill-opacity:1;fill-rule:nonzero;stroke:none"
               d="m 0,0 h -36.373 c -0.19,0 -0.364,-0.108 -0.448,-0.279 l -62.91,-127.785 c -0.123,-0.248 -0.021,-0.547 0.227,-0.669 0.071,-0.036 0.147,-0.052 0.221,-0.052 0.184,0 0.361,0.102 0.448,0.279 L -36.062,-1 h 35.57 z" /></g><g
             transform="translate(245.0577,262.6505)"
             id="g376"><path
               inkscape:connector-curvature="0"
               id="path378"
               style="fill:#ffffff;fill-opacity:1;fill-rule:nonzero;stroke:none"
               d="m 0,0 h -18.572 c -0.138,0 -0.25,-0.112 -0.25,-0.25 0,-0.138 0.112,-0.25 0.25,-0.25 h 18.326 z" /></g><g
             transform="translate(238.502,249.3361)"
             id="g380"><path
               inkscape:connector-curvature="0"
               id="path382"
               style="fill:#ffffff;fill-opacity:1;fill-rule:nonzero;stroke:none"
               d="m 0,0 h -11.961 c -0.19,0 -0.364,-0.108 -0.448,-0.279 l -25.522,-51.838 h -12.344 c -0.191,0 -0.365,-0.109 -0.449,-0.279 l -12.813,-26.028 c -0.122,-0.247 -0.021,-0.547 0.227,-0.669 0.072,-0.035 0.147,-0.052 0.221,-0.052 0.185,0 0.361,0.103 0.448,0.28 l 12.677,25.748 h 12.345 c 0.19,0 0.364,0.108 0.448,0.279 L -11.649,-1 h 11.157 z" /></g><g
             transform="translate(256.8145,70.8927)"
             id="g384"><path
               inkscape:connector-curvature="0"
               id="path386"
               style="fill:#ffffff;fill-opacity:1;fill-rule:nonzero;stroke:none"
               d="M 0,0 V -7.343 H 0.5 V 0.104 C 0.5,0.17 0.474,0.233 0.427,0.28 L -9.882,10.589 v 9.314 c 0,0.138 -0.112,0.25 -0.25,0.25 -0.138,0 -0.25,-0.112 -0.25,-0.25 v -9.418 c 0,-0.066 0.027,-0.13 0.073,-0.176 z" /></g></g></g></g></g></svg>