<?xml version="1.0" encoding="UTF-8" standalone="no"?>
<!-- Created with Inkscape (http://www.inkscape.org/) -->

<svg
   xmlns:dc="http://purl.org/dc/elements/1.1/"
   xmlns:cc="http://creativecommons.org/ns#"
   xmlns:rdf="http://www.w3.org/1999/02/22-rdf-syntax-ns#"
   xmlns:svg="http://www.w3.org/2000/svg"
   xmlns="http://www.w3.org/2000/svg"
   xmlns:sodipodi="http://sodipodi.sourceforge.net/DTD/sodipodi-0.dtd"
   xmlns:inkscape="http://www.inkscape.org/namespaces/inkscape"
   width="157.56799mm"
   height="31.57mm"
   viewBox="0 0 157.56799 31.57"
   version="1.1"
   id="svg1057"
   inkscape:version="0.92.3 (2405546, 2018-03-11)"
   sodipodi:docname="cangkrukan-no-background.svg">
  <defs
     id="defs1051" />
  <sodipodi:namedview
     id="base"
     pagecolor="#ffffff"
     bordercolor="#666666"
     borderopacity="1.0"
     inkscape:pageopacity="0.0"
     inkscape:pageshadow="2"
     inkscape:zoom="1.0074671"
     inkscape:cx="-24.205764"
     inkscape:cy="186.66311"
     inkscape:document-units="mm"
     inkscape:current-layer="layer1"
     showgrid="false"
     inkscape:window-width="1366"
     inkscape:window-height="711"
     inkscape:window-x="0"
     inkscape:window-y="28"
     inkscape:window-maximized="1" />
  <metadata
     id="metadata1054">
    <rdf:RDF>
      <cc:Work
         rdf:about="">
        <dc:format>image/svg+xml</dc:format>
        <dc:type
           rdf:resource="http://purl.org/dc/dcmitype/StillImage" />
        <dc:title />
      </cc:Work>
    </rdf:RDF>
  </metadata>
  <g
     inkscape:label="Layer 1"
     inkscape:groupmode="layer"
     id="layer1"
     transform="translate(0,-265.43)">
    <g
       style="clip-rule:evenodd;fill-rule:evenodd;image-rendering:optimizeQuality;shape-rendering:geometricPrecision;text-rendering:geometricPrecision"
       id="_47433992"
       transform="matrix(7.2294212,0,0,6.4472729,-5.9902502,258.9811)">
      <path
         style="fill:#da251d;fill-rule:nonzero"
         inkscape:connector-curvature="0"
         d="m 19.7047,5.31204 h -0.664977 l 0.0058,-1.32642 h 0.336627 l -0.0058,1.16884 H 19.7047 V 5.312041 Z M 20.086562,4.22665 H 19.78203 l -0.0039,-0.240283 h 0.304532 z M 20.0863,5.31204 H 19.781768 V 4.31774 H 20.0863 Z m 0.810129,0 H 20.591897 V 4.51391 c 0,-0.030406 -0.01751,-0.045607 -0.05252,-0.045607 -0.03464,0 -0.05215,0.014622 -0.05215,0.043851 v 0.799885 h -0.304532 v -0.9943 h 0.304532 v 0.033326 c 0.04048,-0.026895 0.103213,-0.040344 0.187823,-0.040344 0.05507,0 0.105406,0.011987 0.151721,0.035962 0.04631,0.02397 0.06966,0.05906 0.06966,0.105539 z m 0.811224,0 H 21.404216 V 5.27871 c -0.03939,0.031282 -0.101754,0.047069 -0.18819,0.047069 -0.05981,0 -0.111517,-0.012961 -0.155364,-0.0383 -0.04368,-0.025233 -0.06565,-0.05847 -0.06565,-0.09969 V 4.31774 h 0.303437 v 0.808362 c 0,0.030398 0.01787,0.045607 0.05325,0.045607 0.03501,0 0.05252,-0.014618 0.05252,-0.043855 V 4.317741 h 0.303437 z m 0.915895,0 H 22.288016 L 22.183345,5.042195 22.085238,5.31204 H 21.780706 L 22.018863,4.786093 21.786907,4.31774 h 0.321672 l 0.10358,0.257564 0.08242,-0.257564 h 0.289581 l -0.20424,0.48034 z"
         class="fil1"
         id="_64233456" />
      <path
         style="fill:#ffffff;fill-rule:nonzero"
         inkscape:connector-curvature="0"
         d="m 20.2705,4.03522 0.09251,-0.150896 h 0.0666 l -0.09818,0.148788 0.09818,0.150896 h -0.0666 z m -8.6e-4,0.148788 H 20.20972 V 3.884324 h 0.05992 z m 0.398084,-0.138322 c -0.0046,-0.015103 -0.01234,-0.026551 -0.02325,-0.034491 -0.01084,-0.00787 -0.02454,-0.0118 -0.04105,-0.0118 -0.01435,0 -0.02713,0.00429 -0.03846,0.012785 -0.01141,0.0085 -0.01902,0.019666 -0.02297,0.033506 z m -0.127601,0.041799 c 0.0018,0.016296 0.0085,0.029225 0.01988,0.038565 0.01141,0.00941 0.0262,0.014122 0.04428,0.014122 0.01198,0 0.02282,-0.00246 0.03243,-0.00738 0.0096,-0.00499 0.01723,-0.011874 0.02282,-0.020792 h 0.05806 c -0.0098,0.024655 -0.02447,0.043836 -0.04406,0.057532 -0.01952,0.013629 -0.04213,0.020444 -0.06782,0.020444 -0.01723,0 -0.03308,-0.00295 -0.04758,-0.00892 -0.0145,-0.00597 -0.02749,-0.014822 -0.03904,-0.026484 -0.01091,-0.0111 -0.01938,-0.023955 -0.02541,-0.038565 -0.006,-0.014611 -0.009,-0.029573 -0.009,-0.044958 0,-0.015807 0.0028,-0.030629 0.0083,-0.044539 0.0055,-0.013981 0.01371,-0.026484 0.02447,-0.037584 0.01177,-0.012222 0.02512,-0.021636 0.03997,-0.02817 0.01486,-0.0066 0.03014,-0.0099 0.046,-0.0099 0.02002,0 0.03875,0.00443 0.05612,0.013348 0.01737,0.00892 0.03215,0.021496 0.04435,0.037655 0.0075,0.00976 0.01292,0.020651 0.01651,0.032732 0.0036,0.012085 0.0054,0.025921 0.0054,0.041588 0,0.0012 -7.4e-5,0.00309 -2.15e-4,0.00562 -1.44e-4,0.0026 -2.19e-4,0.00443 -2.19e-4,0.00569 z m 0.277449,0.096523 V 3.884324 h 0.05253 v 0.299684 z m 0.200009,-0.114649 c 0,0.021007 0.0059,0.037654 0.01766,0.049947 0.01177,0.012296 0.02777,0.018407 0.04794,0.018407 0.01995,0 0.03581,-0.00625 0.04765,-0.018829 0.01184,-0.012574 0.0178,-0.029503 0.0178,-0.050717 0,-0.019107 -0.0062,-0.034773 -0.01859,-0.047065 -0.01242,-0.012296 -0.02806,-0.018407 -0.04687,-0.018407 -0.0193,0 -0.03509,0.00618 -0.04729,0.018614 -0.0122,0.012437 -0.0183,0.028451 -0.0183,0.04805 z m -0.05548,4.222e-4 c 0,-0.015874 0.003,-0.031051 0.009,-0.04538 0.006,-0.014329 0.01457,-0.027044 0.02591,-0.038143 0.01163,-0.011381 0.02476,-0.020162 0.03933,-0.026273 0.01457,-0.00611 0.02971,-0.00913 0.04543,-0.00913 0.01665,0 0.03208,0.00274 0.04615,0.00815 0.01406,0.00541 0.02706,0.013559 0.03882,0.024377 0.01206,0.011381 0.02139,0.024518 0.02792,0.03941 0.0066,0.014892 0.0099,0.030136 0.0099,0.045802 0,0.017281 -0.0029,0.033014 -0.0086,0.047276 -0.0057,0.014329 -0.01435,0.027184 -0.02584,0.038706 -0.01155,0.011663 -0.02462,0.020514 -0.03933,0.026484 -0.01471,0.00597 -0.03071,0.00892 -0.04794,0.00892 -0.01744,0 -0.03323,-0.00302 -0.04751,-0.00906 -0.01435,-0.00604 -0.02734,-0.015103 -0.03911,-0.027188 -0.01127,-0.0118 -0.01974,-0.024795 -0.02548,-0.038988 -0.0057,-0.014188 -0.0086,-0.029151 -0.0086,-0.044958 z m 0.387176,-0.112185 v 0.02571 c 0.0078,-0.010255 0.01687,-0.017844 0.02698,-0.022833 0.01019,-0.00491 0.02175,-0.00737 0.0348,-0.00737 0.01866,0 0.03459,0.00323 0.0478,0.00969 0.01328,0.0064 0.02469,0.016511 0.03416,0.030206 0.0091,-0.013414 0.01938,-0.023462 0.03072,-0.029995 0.01134,-0.0066 0.0239,-0.0099 0.0376,-0.0099 0.02835,0 0.05009,0.00871 0.06523,0.026133 0.01515,0.017422 0.02268,0.042358 0.02268,0.074883 v 0.129893 h -0.05296 v -0.100245 c 0,-0.030699 -0.0034,-0.051636 -0.01041,-0.062661 -0.007,-0.011029 -0.01895,-0.016581 -0.0361,-0.016581 -0.0178,0 -0.0305,0.00618 -0.03811,0.018618 -0.0077,0.012433 -0.01148,0.033717 -0.01148,0.063924 v 0.096945 h -0.05339 v -0.100245 c 0,-0.030629 -0.0035,-0.051421 -0.01062,-0.062595 -0.0071,-0.011096 -0.01945,-0.016648 -0.0371,-0.016648 -0.01794,0 -0.03086,0.00618 -0.03868,0.018618 -0.0078,0.012433 -0.01177,0.033717 -0.01177,0.063924 v 0.096945 h -0.05196 v -0.226412 z m 0.456217,0.112185 c 0,0.019318 0.0064,0.035477 0.01916,0.048473 0.01278,0.012996 0.02849,0.019459 0.0473,0.019459 0.01851,0 0.0343,-0.0066 0.04744,-0.01974 0.01313,-0.013207 0.01966,-0.029014 0.01966,-0.047347 0,-0.019107 -0.0066,-0.034984 -0.01973,-0.047558 -0.01321,-0.012648 -0.02986,-0.01897 -0.04988,-0.01897 -0.01765,0 -0.03272,0.00632 -0.04521,0.01904 -0.01249,0.012714 -0.01873,0.02824 -0.01873,0.046643 z m -0.0021,0.096101 v 0.091394 h -0.05296 v -0.29968 h 0.05296 v 0.018896 c 0.01077,-0.00836 0.0221,-0.01454 0.03387,-0.018614 0.01177,-0.00401 0.0244,-0.00604 0.03804,-0.00604 0.01457,0 0.02828,0.00225 0.04119,0.00667 0.01292,0.0045 0.02447,0.0111 0.03473,0.019881 0.01385,0.011803 0.02454,0.02571 0.032,0.041799 0.0075,0.016018 0.01127,0.033088 0.01127,0.05121 0,0.016933 -0.0034,0.033018 -0.01019,0.048402 -0.0068,0.015385 -0.01644,0.028592 -0.02892,0.039691 -0.01062,0.0099 -0.02282,0.017422 -0.03645,0.022688 -0.01371,0.0052 -0.02806,0.0078 -0.04321,0.0078 -0.01471,0 -0.02792,-0.00197 -0.03961,-0.00583 -0.01177,-0.00394 -0.02261,-0.010048 -0.03272,-0.018266 z m 0.327681,-0.096523 c 0,0.021007 0.0059,0.037654 0.01766,0.049947 0.01177,0.012296 0.02777,0.018407 0.04794,0.018407 0.01995,0 0.03581,-0.00625 0.04766,-0.018829 0.01184,-0.012574 0.0178,-0.029503 0.0178,-0.050717 0,-0.019107 -0.0062,-0.034773 -0.01859,-0.047065 -0.01242,-0.012296 -0.02806,-0.018407 -0.04687,-0.018407 -0.0193,0 -0.03509,0.00618 -0.04729,0.018614 -0.0122,0.012437 -0.0183,0.028451 -0.0183,0.04805 z m -0.05547,4.223e-4 c 0,-0.015874 0.003,-0.031051 0.009,-0.04538 0.006,-0.014329 0.01457,-0.027044 0.02591,-0.038143 0.01163,-0.011381 0.02476,-0.020162 0.03933,-0.026273 0.01457,-0.00611 0.02971,-0.00913 0.04543,-0.00913 0.01665,0 0.03208,0.00274 0.04615,0.00815 0.01407,0.00541 0.02706,0.013559 0.03883,0.024377 0.01205,0.011381 0.02139,0.024518 0.02792,0.03941 0.0066,0.014892 0.0099,0.030136 0.0099,0.045802 0,0.017281 -0.0029,0.033014 -0.0086,0.047276 -0.0057,0.014329 -0.01435,0.027184 -0.02584,0.038706 -0.01155,0.011663 -0.02462,0.020514 -0.03933,0.026484 -0.01471,0.00597 -0.03072,0.00892 -0.04794,0.00892 -0.01744,0 -0.03323,-0.00302 -0.04751,-0.00906 -0.01435,-0.00604 -0.02734,-0.015103 -0.03911,-0.027188 -0.01126,-0.0118 -0.01973,-0.024795 -0.02548,-0.038988 -0.0057,-0.014188 -0.0086,-0.029151 -0.0086,-0.044958 z m 0.386096,0.114226 h -0.05196 v -0.299684 h 0.05196 v 0.178225 l 0.07507,-0.104952 h 0.06071 l -0.08009,0.107412 0.09588,0.119 h -0.06746 l -0.08411,-0.115067 v 0.115067 z"
         class="fil2"
         id="_64228992" />
      <path
         style="fill:#ffffff;fill-rule:nonzero"
         inkscape:connector-curvature="0"
         d="M 19.2514,5.61906 19.21393,5.519081 19.17565,5.61906 Z m -0.09709,0.057555 -0.0246,0.065054 h -0.0643 l 0.123097,-0.310412 h 0.05352 l 0.121315,0.310412 h -0.06646 l -0.02498,-0.065054 z m 0.385928,-0.121952 c -0.02163,0.00167 -0.03672,0.00728 -0.04527,0.016663 -0.0085,0.00939 -0.01286,0.026269 -0.01286,0.050717 v 0.119626 h -0.05575 V 5.507148 h 0.05226 v 0.027071 c 0.0084,-0.010552 0.01762,-0.018266 0.02765,-0.023142 0.01004,-0.00488 0.02134,-0.00735 0.03397,-0.00735 z m 0.251156,0.04373 c -0.0048,-0.015643 -0.01279,-0.027505 -0.02408,-0.035727 -0.01122,-0.00815 -0.02542,-0.012222 -0.04252,-0.012222 -0.01487,0 -0.0281,0.00444 -0.03984,0.013242 -0.01181,0.0088 -0.0197,0.020374 -0.02379,0.034707 z m -0.132168,0.043296 c 0.0019,0.016882 0.0088,0.030269 0.02059,0.03995 0.01182,0.00975 0.02713,0.014622 0.04586,0.014622 0.01241,0 0.02364,-0.00255 0.0336,-0.00764 0.01,-0.00516 0.01784,-0.012296 0.02364,-0.021539 h 0.06013 c -0.01018,0.025542 -0.02535,0.045408 -0.04564,0.059596 -0.02022,0.014114 -0.04363,0.021175 -0.07025,0.021175 -0.01784,0 -0.03427,-0.00306 -0.04929,-0.00924 -0.01501,-0.00619 -0.02847,-0.015354 -0.04044,-0.027431 -0.0113,-0.011498 -0.02007,-0.024815 -0.02631,-0.039949 -0.0062,-0.015135 -0.0094,-0.030633 -0.0094,-0.046569 0,-0.016374 0.0029,-0.031724 0.0086,-0.046131 0.0057,-0.014482 0.0142,-0.027435 0.02535,-0.038929 0.01219,-0.012664 0.02602,-0.022414 0.0414,-0.029182 0.01539,-0.00684 0.03122,-0.010259 0.04765,-0.010259 0.02074,0 0.04014,0.00459 0.05813,0.013829 0.01799,0.00924 0.0333,0.022266 0.04594,0.038999 0.0077,0.010114 0.01338,0.021394 0.0171,0.033909 0.0037,0.012515 0.0056,0.026848 0.0056,0.043077 0,0.00124 -7.4e-5,0.0032 -2.23e-4,0.00582 -1.52e-4,0.00269 -2.22e-4,0.00458 -2.22e-4,0.00589 z m 0.333741,0.099979 h -0.05382 V 5.431256 h 0.05382 v 0.184601 l 0.07776,-0.10871 h 0.06289 l -0.08296,0.111255 0.09931,0.123266 h -0.06987 L 19.992977,5.62248 Z m 0.332631,-0.096343 0.05664,-2.15e-4 v 0.00451 c 0,0.013023 0.0035,0.023501 0.01048,0.03136 0.0069,0.00793 0.01621,0.011862 0.0278,0.011862 0.01249,0 0.02238,-0.00364 0.02966,-0.010986 0.0072,-0.00728 0.01085,-0.017246 0.01085,-0.029765 0,-0.020006 -0.01464,-0.034343 -0.04401,-0.043003 -0.0037,-0.00117 -0.0068,-0.00211 -0.0089,-0.00276 -0.02468,-0.00757 -0.04297,-0.018262 -0.05486,-0.032087 -0.01189,-0.013899 -0.01784,-0.031434 -0.01784,-0.052609 0,-0.029108 0.0083,-0.052465 0.02468,-0.070144 0.0165,-0.017609 0.03843,-0.026414 0.06586,-0.026414 0.02572,0 0.04616,0.00786 0.0614,0.023576 0.01524,0.015643 0.02379,0.037619 0.02549,0.065922 h -0.0562 v -0.00255 c 0,-0.00997 -0.003,-0.017973 -0.0091,-0.024084 -0.0061,-0.00611 -0.01405,-0.00917 -0.02393,-0.00917 -0.01018,0 -0.01814,0.00313 -0.02401,0.00939 -0.0059,0.00626 -0.0088,0.014771 -0.0088,0.025538 0,0.00459 5.95e-4,0.00859 0.0019,0.012081 0.0012,0.00349 0.0031,0.00662 0.0057,0.00946 0.006,0.0064 0.01873,0.012296 0.03836,0.017754 0.0087,0.00226 0.01539,0.00415 0.02007,0.00575 0.02178,0.00721 0.03784,0.017609 0.04825,0.031145 0.01033,0.013461 0.01554,0.030777 0.01554,0.051808 0,0.031942 -0.0091,0.057629 -0.02721,0.077057 -0.01814,0.019427 -0.0423,0.029108 -0.07233,0.029108 -0.02832,0 -0.05114,-0.00939 -0.06861,-0.028162 -0.01739,-0.0187 -0.02631,-0.043511 -0.02676,-0.074367 z m 0.440187,0.096343 V 5.716271 c -0.0081,0.010697 -0.01747,0.01863 -0.02795,0.023794 -0.01056,0.00517 -0.0226,0.00779 -0.03606,0.00779 -0.03003,0 -0.05315,-0.00902 -0.06928,-0.027071 -0.01613,-0.018043 -0.02416,-0.04402 -0.02416,-0.077858 V 5.507149 h 0.05642 v 0.105289 c 0,0.031727 0.0037,0.053411 0.01108,0.065054 0.0074,0.011639 0.02022,0.017461 0.03835,0.017461 0.01859,0 0.03189,-0.00655 0.03992,-0.019646 0.0081,-0.013023 0.01212,-0.035215 0.01212,-0.066504 V 5.50715 h 0.05486 v 0.234521 z m 0.269219,-0.187006 c -0.02163,0.00167 -0.03672,0.00728 -0.04527,0.016663 -0.0085,0.00939 -0.01286,0.026269 -0.01286,0.050717 v 0.119626 h -0.05575 V 5.507147 h 0.05226 v 0.027071 c 0.0084,-0.010552 0.01762,-0.018266 0.02765,-0.023142 0.01003,-0.00488 0.02133,-0.00735 0.03397,-0.00735 z m 0.118543,0.068252 c 0,0.021758 0.0061,0.039003 0.01829,0.051737 0.01219,0.012734 0.02877,0.019064 0.04966,0.019064 0.02067,0 0.0371,-0.00647 0.04936,-0.019502 0.01226,-0.013023 0.01844,-0.030558 0.01844,-0.052535 0,-0.019791 -0.0064,-0.03602 -0.01925,-0.048754 -0.01286,-0.012734 -0.02906,-0.019064 -0.04854,-0.019064 -0.01999,0 -0.03635,0.0064 -0.04898,0.019283 -0.01264,0.012882 -0.01896,0.029472 -0.01896,0.049771 z m -0.05746,4.379e-4 c 0,-0.016444 0.0031,-0.032161 0.0093,-0.047006 0.0062,-0.014841 0.01509,-0.028013 0.02684,-0.039508 0.01204,-0.011792 0.02564,-0.020886 0.04074,-0.027216 0.01509,-0.00633 0.03077,-0.00946 0.04705,-0.00946 0.01725,0 0.03323,0.00284 0.0478,0.00844 0.01457,0.0056 0.02802,0.014044 0.04021,0.025249 0.01249,0.011788 0.02215,0.025397 0.02892,0.040821 0.0068,0.015428 0.01026,0.031215 0.01026,0.047444 0,0.017899 -0.003,0.034198 -0.0089,0.048969 -0.0059,0.014845 -0.01487,0.028158 -0.02676,0.040094 -0.01197,0.012077 -0.0255,0.021245 -0.04074,0.027431 -0.01524,0.00619 -0.03182,0.00924 -0.04966,0.00924 -0.01806,0 -0.03442,-0.00313 -0.04921,-0.00939 -0.01487,-0.00626 -0.02832,-0.015647 -0.04052,-0.028162 -0.01167,-0.012222 -0.02044,-0.025687 -0.02639,-0.040383 -0.0059,-0.014697 -0.0089,-0.030195 -0.0089,-0.046569 z m 0.392395,0.00211 c 0,0.019064 0.0065,0.035219 0.0194,0.048387 0.01294,0.013242 0.02854,0.019865 0.04683,0.019865 0.02074,0 0.03798,-0.00655 0.05166,-0.019721 0.01361,-0.013168 0.02044,-0.029612 0.02044,-0.049407 0,-0.018845 -0.0068,-0.035145 -0.02037,-0.048825 -0.01361,-0.013606 -0.02996,-0.020444 -0.04914,-0.020444 -0.01947,0 -0.03575,0.00669 -0.04899,0.020155 -0.01323,0.013461 -0.01985,0.030124 -0.01985,0.04999 z m -0.0022,-0.099541 c 0.01033,-0.00837 0.02148,-0.014552 0.03352,-0.018411 0.01205,-0.00393 0.02587,-0.00589 0.04141,-0.00589 0.01598,0 0.031,0.00262 0.04505,0.00786 0.01412,0.00531 0.02661,0.012953 0.03746,0.023067 0.01293,0.011639 0.02289,0.025394 0.02996,0.041255 0.0071,0.015862 0.01056,0.032525 0.01056,0.04999 0,0.018771 -0.0039,0.036454 -0.01167,0.053188 -0.0077,0.016663 -0.01881,0.031145 -0.03315,0.04337 -0.01063,0.00895 -0.0226,0.015787 -0.03598,0.020444 -0.01338,0.00473 -0.02758,0.00706 -0.04267,0.00706 -0.0142,0 -0.02743,-0.00211 -0.03962,-0.00626 -0.01219,-0.00422 -0.02386,-0.010548 -0.03486,-0.019138 v 0.019212 h -0.05486 v -0.310412 h 0.05486 z m 0.332404,0.096992 c 0,0.021758 0.0061,0.039003 0.01828,0.051737 0.01219,0.012734 0.02877,0.019064 0.04966,0.019064 0.02066,0 0.03709,-0.00647 0.04936,-0.019502 0.01227,-0.013023 0.01844,-0.030558 0.01844,-0.052535 0,-0.019791 -0.0064,-0.03602 -0.01925,-0.048754 -0.01286,-0.012734 -0.02907,-0.019064 -0.04854,-0.019064 -0.02,0 -0.03635,0.0064 -0.04899,0.019283 -0.01264,0.012882 -0.01896,0.029472 -0.01895,0.049771 z m -0.05746,4.379e-4 c 0,-0.016444 0.0031,-0.032161 0.0093,-0.047006 0.0062,-0.014841 0.01509,-0.028013 0.02684,-0.039508 0.01204,-0.011792 0.02565,-0.020886 0.04074,-0.027216 0.01509,-0.00633 0.03078,-0.00946 0.04706,-0.00946 0.01724,0 0.03323,0.00284 0.0478,0.00844 0.01457,0.0056 0.02802,0.014044 0.04022,0.025249 0.01249,0.011788 0.02215,0.025398 0.02892,0.040821 0.0068,0.015428 0.01026,0.031215 0.01026,0.047444 0,0.017899 -0.003,0.034198 -0.0089,0.048969 -0.0059,0.014845 -0.01487,0.028158 -0.02676,0.040094 -0.01197,0.012077 -0.0255,0.021245 -0.04074,0.027431 -0.01524,0.00619 -0.03181,0.00924 -0.04965,0.00924 -0.01807,0 -0.03442,-0.00313 -0.04921,-0.00939 -0.01487,-0.00626 -0.02832,-0.015647 -0.04051,-0.028162 -0.01167,-0.012222 -0.02044,-0.025687 -0.02639,-0.040383 -0.0059,-0.014697 -0.0089,-0.030195 -0.0089,-0.046569 z m 0.309509,-0.116205 h 0.05902 l 0.05835,0.163719 0.0643,-0.163719 h 0.05835 l -0.12942,0.310412 h -0.05746 l 0.03353,-0.082515 z m 0.354334,0.115767 c 0,0.021758 0.0061,0.039003 0.01829,0.051737 0.01219,0.012734 0.02877,0.019064 0.04966,0.019064 0.02066,0 0.03709,-0.00647 0.04936,-0.019502 0.01227,-0.013023 0.01844,-0.030558 0.01844,-0.052535 0,-0.019791 -0.0064,-0.03602 -0.01925,-0.048754 -0.01286,-0.012734 -0.02907,-0.019064 -0.04854,-0.019064 -0.02,0 -0.03635,0.0064 -0.04899,0.019283 -0.01264,0.012882 -0.01896,0.029471 -0.01896,0.049771 z m -0.05746,4.379e-4 c 0,-0.016444 0.0031,-0.032161 0.0093,-0.047007 0.0062,-0.014841 0.01509,-0.028013 0.02684,-0.039508 0.01204,-0.011792 0.02565,-0.020886 0.04074,-0.027216 0.01509,-0.00633 0.03078,-0.00946 0.04706,-0.00946 0.01724,0 0.03323,0.00284 0.0478,0.00844 0.01457,0.0056 0.02802,0.014044 0.04022,0.025249 0.01249,0.011788 0.02215,0.025397 0.02892,0.040821 0.0068,0.015428 0.01026,0.031215 0.01026,0.047444 0,0.017899 -0.003,0.034198 -0.0089,0.048969 -0.0059,0.014845 -0.01487,0.028158 -0.02676,0.040094 -0.01197,0.012077 -0.0255,0.021245 -0.04074,0.027431 -0.01524,0.00619 -0.03181,0.00924 -0.04965,0.00924 -0.01807,0 -0.03442,-0.00313 -0.04921,-0.00939 -0.01487,-0.00626 -0.02832,-0.015647 -0.04051,-0.028162 -0.01167,-0.012222 -0.02044,-0.025687 -0.02639,-0.040383 -0.0059,-0.014697 -0.0089,-0.030195 -0.0089,-0.046569 z"
         class="fil2"
         id="_64213048" />
      <path
         inkscape:connector-curvature="0"
         id="_64212000"
         d="M 2.83794,1.08269 H 4.656 V 5.65374 H 2.83794 Z"
         style="fill:#c4337b" />
      <path
         inkscape:connector-curvature="0"
         id="_64210952"
         d="m 16.8758,1.15115 h 1.818 v 4.57104 h -1.818 z"
         style="fill:#593b65" />
      <path
         inkscape:connector-curvature="0"
         id="_64209904"
         d="M 6.82644,1.0224 H 8.64451 V 5.59345 H 6.82644 Z"
         style="fill:#f0bc0d" />
      <path
         inkscape:connector-curvature="0"
         id="_64208856"
         d="M 8.8359,1.23403 H 10.654 V 5.80508 H 8.8359 Z"
         style="fill:#ae2c2a" />
      <path
         inkscape:connector-curvature="0"
         id="_64207808"
         d="m 10.8241,1.24455 h 1.8181 V 5.8156 h -1.8181 z"
         style="fill:#106f88" />
      <path
         inkscape:connector-curvature="0"
         id="_64206760"
         d="m 12.8706,1.10778 h 1.8181 v 4.57105 h -1.8181 z"
         style="fill:#2e838e" />
      <path
         inkscape:connector-curvature="0"
         id="_64205712"
         d="M 4.83864,1.34806 H 6.6567 V 5.91911 H 4.83864 Z"
         style="fill:#d36622" />
      <path
         inkscape:connector-curvature="0"
         id="_64204664"
         d="m 14.8745,1.31973 h 1.8181 v 4.57104 h -1.8181 z"
         style="fill:#009a46" />
      <path
         inkscape:connector-curvature="0"
         id="_64203632"
         d="M 0.828172,1.26569 H 2.64624 V 5.83674 H 0.828172 Z"
         style="fill:#901e78" />
      <path
         inkscape:connector-curvature="0"
         id="_64199296"
         d="M 0.913838,2.68651 H 1.15796 L 1.87532,1.67653 v 1.00998 h 0.00582 l 0.0034,3.15023 H 0.917232 Z"
         style="fill:#1f1a17;fill-opacity:0.25097997" />
      <path
         inkscape:connector-curvature="0"
         id="_64199056"
         d="M 0.990887,2.83189 H 1.28751 V 3.08437 H 0.990887 Z"
         style="fill:#1f1a17;fill-opacity:0.25097997" />
      <path
         inkscape:connector-curvature="0"
         id="_64197728"
         d="M 1.47451,2.83189 H 1.77113 V 3.08437 H 1.47451 Z"
         style="fill:#1f1a17;fill-opacity:0.25097997" />
      <path
         inkscape:connector-curvature="0"
         id="_64196840"
         d="M 0.984436,5.47032 H 1.28106 V 5.7228 H 0.984436 Z"
         style="fill:#1f1a17;fill-opacity:0.25097997" />
      <path
         style="fill:#1f1a17;fill-opacity:0.25097997"
         inkscape:connector-curvature="0"
         d="m 11.2038,4.89358 c -0.09314,-0.14724 0.147916,-0.533247 0.367244,-0.659441 0.166523,-0.095819 0.387703,-0.154223 0.59217,-0.123778 0.09723,0.014482 0.291739,0.0279 0.478952,0.024666 V 4.601351 C 12.475807,4.5677943 12.324849,4.4792314 12.1685,4.4309074 12.04525,4.3928189 11.916366,4.4007791 11.773853,4.4255902 11.484135,4.5182623 11.402594,4.5816862 11.2038,4.89358 Z m 1.66682,-0.773108 c 0.109077,-0.013731 0.194524,-0.038057 0.224215,-0.077784 0.0926,-0.123907 0.252138,0.069136 0.328878,0.05318 0.07674,-0.015952 0.268578,-0.10636 0.295985,-0.154223 C 13.747108,3.893782 13.884137,3.760828 13.85673,3.712969 13.82932,3.665102 13.80038,3.822547 13.730661,3.814012 13.660951,3.805472 13.585446,3.679185 13.566535,3.565635 13.520315,3.569415 13.487575,3.58256 13.44861,3.558465 13.41232,3.536027 13.387,3.425359 13.43911,3.420362 c 0.07112,-0.00681 0.09652,0.00365 0.138729,0.030973 0.06339,0.0764 0.08442,0.172442 0.129314,0.208826 0.007,-0.085236 0.05475,-0.26755 0.115493,-0.259312 0.03119,-0.029737 0.02511,-0.036704 0.06701,-0.038874 C 13.832126,3.350758 13.811086,3.322147 13.748996,3.282576 13.689376,3.272485 13.592029,3.273306 13.467598,3.229025 13.348187,3.186178 13.228781,3.17163 13.109366,3.100454 c -0.01839,-0.014869 -0.0203,-0.037506 -0.0025,-0.044641 0.192174,0.068365 0.358193,0.04558 0.492273,0.04558 C 13.507429,2.98314 13.329806,2.922504 13.148172,2.85702 13.114552,2.844904 13.064152,2.827341 13.045534,2.798261 c -0.0072,-0.085032 0.03852,-0.108084 0.137028,-0.069136 0.122441,0.04762 0.254011,0.086268 0.350803,0.090408 0.101266,0.00311 0.185532,0.010036 0.245112,0.030859 0.264954,0.013352 0.583369,0.483495 0.583443,0.509597 2e-5,0.01219 -0.0258,-0.074957 -0.01839,-0.094693 0.0046,-0.012339 0.0172,-0.063048 0.0303,-0.064006 0.02189,-0.00161 0.07087,0.057301 0.08643,0.068088 0.004,0.020334 -5.59e-4,0.071923 -0.01359,0.154653 0.0326,0.021965 0.09104,0.164505 0.02503,0.19997 0,0 -0.04541,-0.011307 -0.05097,-0.03758 -0.0035,-0.016386 -0.0021,-0.022023 -0.0014,-0.015205 0.02098,0.209315 -0.02046,0.429713 -0.107603,0.599106 -0.116936,0.22735 -0.419392,0.396926 -0.501726,0.412862 0,0 -0.105977,0.019756 -0.15332,-0.00966 C 13.598861,4.53759 13.546228,4.502535 13.484059,4.446861 l 0.08222,0.074457 0.07674,0.063814 c 0.04387,0.075653 0.01013,0.139526 -0.137032,0.186134 l -0.142513,0.047863 c 0.02403,0.035391 0.054,0.047562 0.09,0.036517 0.08538,-0.059885 0.130467,-0.034906 0.16214,-0.00993 0.01106,0.065183 -0.04802,0.114676 -0.0877,0.131249 -0.107115,0.017132 -0.241292,-0.035934 -0.350803,-0.147201 -0.0116,-0.046424 0.0067,-0.078312 0.05481,-0.09573 0.02876,-0.028068 0.10231,-0.021269 0.153476,-0.031907 -0.149828,-0.063345 -0.277269,0.0061 -0.449461,-0.111681 -0.02211,0.00658 -0.04385,0.011667 -0.06526,0.015471 z"
         class="fil12"
         id="_64196008" />
      <path
         style="fill:#1f1a17;fill-opacity:0.29019602"
         inkscape:connector-curvature="0"
         d="m 13.1644,1.23802 c 0,0 0.09901,0.081365 -0.0552,0.165162 -0.154195,0.083793 -0.07097,0.30669 0.0094,0.408034 0.04423,0.055792 0.03383,0.081529 0.0084,0.122691 -0.03268,0.052941 -0.08531,0.107138 -0.06599,0.090772 0.06392,-0.054138 0.174522,-0.058701 0.162077,-0.165131 -0.01022,-0.087046 -0.06513,-0.109527 -0.09852,-0.218139 -0.03443,-0.111951 0.011,-0.112182 0.09969,-0.17731 0.04482,-0.032908 0.01254,-0.136262 -0.0599,-0.2260789 z"
         class="fil13"
         id="_64195120" />
      <path
         style="fill:#1f1a17;fill-opacity:0.25097997"
         inkscape:connector-curvature="0"
         d="m 11.754,3.25815 c -0.528696,0.00646 -0.438049,-0.473338 -0.488461,-0.841317 0.177458,0.110735 0.26077,0.465221 0.445075,0.487124 -0.03864,0.033002 -0.191217,-0.24564 0.07062,-0.651101 0.205718,-0.271155 0.605338,-0.277019 0.860881,-0.247255 v 0.351081 c -0.189125,0.046557 -0.325625,0.162562 -0.368202,0.251082 -0.0427,0.075505 -0.08207,0.323424 -0.03755,0.373175 L 12.35377,2.749695 c 0.05225,0.2091 0.02598,0.209612 0.0061,0.365711 0.209354,0.382464 0.274752,0.461147 0.219945,0.621227 C 12.552065,3.817748 12.164091,3.528057 12.029639,3.49113 11.998599,3.48262 12.192068,3.726378 12.166381,3.719383 11.994529,3.6725094 11.889944,3.554154 11.754,3.25815 Z m 1.11657,-1.21116 c 0.09129,0.024936 0.175926,0.072369 0.272113,0.068232 0.0913,-0.00394 0.14613,-0.092809 0.235232,-0.104827 0.08127,-0.010975 0.147275,0.046819 0.227632,0.039046 0.07459,-0.00724 -0.265521,0.211273 -0.194329,0.202664 0.07506,-0.00906 0.21939,0.069824 0.291794,1.447e-4 0.265704,-0.255727 0.689725,-0.366341 0.707096,-0.394276 0.09469,0.152807 -0.206445,0.459756 -0.332815,0.492914 -0.182643,0.088426 0.201792,0.053598 0.171496,0.098771 -0.172493,0.257209 -0.465648,0.181235 -0.697263,0.062978 -0.09266,-0.029964 -0.07923,0.064002 -0.09346,0.114754 -0.02182,0.077807 -0.209968,-0.099819 -0.339051,-0.226287 -0.08629,-0.03699 -0.169709,-0.056452 -0.248443,-0.062747 z"
         class="fil12"
         id="_64192624" />
      <path
         style="fill:#1f1a17;fill-opacity:0.25097997"
         inkscape:connector-curvature="0"
         d="M 2.11181,2.66532 H 2.6392 L 2.64624,5.83674 H 2.11885 Z m 0.720843,0 h 0.601143 l 0.783152,0.51025 0.00921,2.47817 H 2.841868 L 2.832658,2.66532 Z"
         class="fil12"
         id="_64190440" />
      <path
         inkscape:connector-curvature="0"
         id="_64189112"
         d="M 2.20034,2.76305 H 2.44215 V 3.21279 H 2.20034 Z"
         style="fill:#1f1a17;fill-opacity:0.29019602" />
      <path
         inkscape:connector-curvature="0"
         id="_64187784"
         d="M 1.01023,3.21061 H 1.30685 V 3.46309 H 1.01023 Z"
         style="fill:#1f1a17;fill-opacity:0.25097997" />
      <path
         inkscape:connector-curvature="0"
         id="_64186456"
         d="M 2.99659,3.31536 H 3.23841 V 3.7651 H 2.99659 Z"
         style="fill:#1f1a17;fill-opacity:0.29019602" />
      <path
         inkscape:connector-curvature="0"
         id="_64184992"
         d="M 3.02077,3.88346 H 3.26259 V 4.3332 H 3.02077 Z"
         style="fill:#1f1a17;fill-opacity:0.29019602" />
      <path
         style="fill:#1f1a17;fill-opacity:0.25097997"
         inkscape:connector-curvature="0"
         d="m 11.5083,1.24455 c -0.112557,0.185981 -0.03555,0.57467 0.03904,0.75863 0.04423,0.109128 0.03383,0.159462 0.0084,0.239971 -0.03267,0.103545 -0.08531,0.209553 -0.06599,0.177544 0.06392,-0.105887 0.174518,-0.114817 0.162073,-0.322982 -0.01021,-0.170249 -0.06513,-0.214221 -0.09853,-0.426656 -0.03443,-0.218972 0.01101,-0.219417 0.09969,-0.346808 0.01218,-0.017488 0.01865,-0.045165 0.02019,-0.0797 z"
         class="fil12"
         id="_64183608" />
      <path
         style="fill:#1f1a17;fill-opacity:0.25097997"
         inkscape:connector-curvature="0"
         d="M 6.01529,2.3669 C 6.0281921,2.357243 6.297251,2.177994 6.297251,2.177994 l 0.15999,-0.039605 c 0.02555,-0.00803 0.04072,-0.00365 0.047464,0.015267 0.01,0.021941 0.019994,0.043887 0.029991,0.065832 0.00745,0.017582 8.484e-4,0.025816 -0.01214,0.0298 L 6.307588,2.31035 c -0.090127,0.031688 -0.1826,0.05664 -0.272957,0.087671 0.00221,0.00602 -0.00111,0.00674 -0.00905,0.014994 -0.787179,0.302745 -0.862777,0.506039 -0.832754,1.0514 l 0.14457,2.4547 H 5.26079 L 5.133341,3.540695 C 5.083797,2.849222 5.300243,2.64786 6.009919,2.376355 c 5.86e-5,-0.00339 0.00153,-0.00657 0.00538,-0.00945 z"
         class="fil12"
         id="_64182072" />
      <path
         style="fill:#1f1a17;fill-opacity:0.25097997"
         inkscape:connector-curvature="0"
         d="M 6.14067,3.00981 C 6.15058,3.00168 6.357296,2.850778 6.357296,2.850778 L 6.48021,2.8174398 c 0.019631,-0.00676 0.031286,-0.00307 0.036462,0.012851 0.00768,0.018473 0.015361,0.036947 0.023048,0.05542 0.00572,0.014802 6.49e-4,0.021734 -0.00933,0.025089 l -0.165154,0.051405 c -0.069245,0.026676 -0.140285,0.047679 -0.209706,0.073804 0.00169,0.00507 -8.523e-4,0.00568 -0.00696,0.012621 -0.604771,0.254859 -0.662854,0.426007 -0.639782,0.885102 l 0.106649,1.98431 H 5.556983 l -0.0939,-1.9201 c -0.038061,-0.582106 0.128227,-0.75162 0.673453,-0.980182 4.3e-5,-0.00286 0.00118,-0.00553 0.00413,-0.00795 z"
         class="fil12"
         id="_64179904" />
      <path
         inkscape:connector-curvature="0"
         id="_64178576"
         d="m 8.20987,4.30557 0.11442,4.8e-4 V 4.38236 L 8.20987,4.38188 Z"
         style="fill:#1f1a17;fill-opacity:0.25097997" />
      <path
         inkscape:connector-curvature="0"
         id="_64177248"
         d="m 8.39268,4.31098 0.11443,4.7e-4 V 4.38776 L 8.39268,4.38728 Z"
         style="fill:#1f1a17;fill-opacity:0.25097997" />
      <path
         inkscape:connector-curvature="0"
         id="_64175888"
         d="M 8.04216,3.26762 8.15658,3.2681 V 3.34441 L 8.04216,3.34394 Z"
         style="fill:#1f1a17;fill-opacity:0.25097997" />
      <path
         inkscape:connector-curvature="0"
         id="_64174560"
         d="m 8.22282,3.26872 0.11442,4.9e-4 V 3.34552 L 8.22282,3.34503 Z"
         style="fill:#1f1a17;fill-opacity:0.25097997" />
      <path
         inkscape:connector-curvature="0"
         id="_64173232"
         d="M 8.40668,3.26761 8.5211,3.26809 V 3.3444 L 8.40668,3.34392 Z"
         style="fill:#1f1a17;fill-opacity:0.25097997" />
      <path
         inkscape:connector-curvature="0"
         id="_64171904"
         d="m 7.96934,3.49499 0.11442,4.7e-4 V 3.57177 L 7.96934,3.5713 Z"
         style="fill:#1f1a17;fill-opacity:0.25097997" />
      <path
         inkscape:connector-curvature="0"
         id="_64170440"
         d="m 8.15,3.49609 0.11442,4.8e-4 V 3.57288 L 8.15,3.5724 Z"
         style="fill:#1f1a17;fill-opacity:0.25097997" />
      <path
         inkscape:connector-curvature="0"
         id="_64169112"
         d="m 8.40233,3.48944 0.11443,4.8e-4 V 3.56623 L 8.40233,3.56575 Z"
         style="fill:#1f1a17;fill-opacity:0.25097997" />
      <path
         inkscape:connector-curvature="0"
         id="_64167784"
         d="m 7.97326,3.68398 0.11442,4.8e-4 V 3.76077 L 7.97326,3.76029 Z"
         style="fill:#1f1a17;fill-opacity:0.25097997" />
      <path
         inkscape:connector-curvature="0"
         id="_64166456"
         d="M 8.15378,3.88636 8.2682,3.88684 V 3.96315 L 8.15378,3.96267 Z"
         style="fill:#1f1a17;fill-opacity:0.25097997" />
      <path
         inkscape:connector-curvature="0"
         id="_64165128"
         d="m 8.40612,3.87971 0.11442,4.8e-4 V 3.9565 L 8.40612,3.95602 Z"
         style="fill:#1f1a17;fill-opacity:0.25097997" />
      <path
         inkscape:connector-curvature="0"
         id="_64163800"
         d="m 8.40537,4.07105 0.11442,4.7e-4 V 4.14783 L 8.40537,4.14736 Z"
         style="fill:#1f1a17;fill-opacity:0.25097997" />
      <path
         inkscape:connector-curvature="0"
         id="_64162520"
         d="m 8.59038,2.88041 0.05413,2.2e-4 V 2.95694 L 8.59038,2.95672 Z"
         style="fill:#1f1a17;fill-opacity:0.25097997" />
      <path
         inkscape:connector-curvature="0"
         id="_64161240"
         d="m 8.5895,3.27301 0.05501,2.4e-4 V 3.34956 L 8.5895,3.34932 Z"
         style="fill:#1f1a17;fill-opacity:0.25097997" />
      <path
         inkscape:connector-curvature="0"
         id="_64159960"
         d="M 8.58515,3.49485 8.64451,3.4951 V 3.57141 L 8.58515,3.57116 Z"
         style="fill:#1f1a17;fill-opacity:0.25097997" />
      <path
         inkscape:connector-curvature="0"
         id="_64159072"
         d="m 8.58907,3.68384 0.05544,2.4e-4 V 3.76039 L 8.58907,3.76016 Z"
         style="fill:#1f1a17;fill-opacity:0.25097997" />
      <path
         inkscape:connector-curvature="0"
         id="_64158048"
         d="m 8.58894,3.88512 0.05557,2.3e-4 V 3.96166 L 8.58894,3.96143 Z"
         style="fill:#1f1a17;fill-opacity:0.25097997" />
      <path
         inkscape:connector-curvature="0"
         id="_47068672"
         d="m 8.58819,4.07645 0.05632,2.4e-4 V 4.153 L 8.58819,4.15276 Z"
         style="fill:#1f1a17;fill-opacity:0.25097997" />
      <path
         inkscape:connector-curvature="0"
         id="_47065928"
         d="m 8.58515,4.29531 0.05936,2.5e-4 V 4.37187 L 8.58515,4.37162 Z"
         style="fill:#1f1a17;fill-opacity:0.25097997" />
      <path
         inkscape:connector-curvature="0"
         id="_47063968"
         d="m 9.04086,2.58323 0.06969,-0.061 v 0.07631 l -0.06969,0.061 z"
         style="fill:#1f1a17;fill-opacity:0.25097997" />
      <path
         inkscape:connector-curvature="0"
         id="_47063576"
         d="m 8.93891,2.87315 0.0697,-0.061 v 0.0763 l -0.0697,0.06101 z"
         style="fill:#1f1a17;fill-opacity:0.25097997" />
      <path
         inkscape:connector-curvature="0"
         id="_47062400"
         d="M 9.04895,2.77717 9.11864,2.71618 V 2.79249 L 9.04895,2.85348 Z"
         style="fill:#1f1a17;fill-opacity:0.25097997" />
      <path
         inkscape:connector-curvature="0"
         id="_47059264"
         d="m 8.94207,3.06047 0.0697,-0.061 v 0.07631 l -0.0697,0.061 z"
         style="fill:#1f1a17;fill-opacity:0.25097997" />
      <path
         inkscape:connector-curvature="0"
         id="_47058088"
         d="M 8.95017,3.25441 9.01986,3.19342 V 3.26973 L 8.95017,3.33072 Z"
         style="fill:#1f1a17;fill-opacity:0.25097997" />
      <path
         inkscape:connector-curvature="0"
         id="_47056520"
         d="m 9.15364,2.49229 0.06969,-0.061 V 2.5076 l -0.06969,0.061 z"
         style="fill:#1f1a17;fill-opacity:0.25097997" />
      <path
         inkscape:connector-curvature="0"
         id="_47053384"
         d="M 9.16173,2.68623 9.23143,2.62524 V 2.70155 L 9.16173,2.76254 Z"
         style="fill:#1f1a17;fill-opacity:0.25097997" />
      <path
         inkscape:connector-curvature="0"
         id="_47052208"
         d="m 9.16489,2.87356 0.0697,-0.06101 v 0.07631 l -0.0697,0.061 z"
         style="fill:#1f1a17;fill-opacity:0.25097997" />
      <path
         inkscape:connector-curvature="0"
         id="_47050640"
         d="M 9.34498,2.4345 9.41467,2.49282 V 2.56913 L 9.34498,2.51081 Z"
         style="fill:#1f1a17;fill-opacity:0.25097997" />
      <path
         inkscape:connector-curvature="0"
         id="_47049464"
         d="m 9.35307,2.64231 0.0697,0.05831 V 2.77693 L 9.35307,2.71862 Z"
         style="fill:#1f1a17;fill-opacity:0.25097997" />
      <path
         inkscape:connector-curvature="0"
         id="_46980968"
         d="m 9.35623,2.83505 0.0697,0.05831 V 2.96967 L 9.35623,2.91136 Z"
         style="fill:#1f1a17;fill-opacity:0.25097997" />
      <path
         inkscape:connector-curvature="0"
         id="_46979400"
         d="M 9.46628,2.92746 9.53597,2.98578 V 3.06209 L 9.46628,3.00377 Z"
         style="fill:#1f1a17;fill-opacity:0.25097997" />
      <path
         inkscape:connector-curvature="0"
         id="_46977048"
         d="m 9.36433,3.04285 0.0697,0.05832 V 3.17748 L 9.36433,3.11916 Z"
         style="fill:#1f1a17;fill-opacity:0.25097997" />
      <path
         inkscape:connector-curvature="0"
         id="_46975872"
         d="m 9.47437,3.13527 0.0697,0.05832 v 0.0763 L 9.47437,3.21158 Z"
         style="fill:#1f1a17;fill-opacity:0.25097997" />
      <path
         inkscape:connector-curvature="0"
         id="_46972848"
         d="m 9.7291,2.66909 0.11442,4.8e-4 V 2.74588 L 9.7291,2.7454 Z"
         style="fill:#1f1a17;fill-opacity:0.25097997" />
      <path
         inkscape:connector-curvature="0"
         id="_46969960"
         d="m 9.73301,2.85809 0.11442,4.8e-4 V 2.93488 L 9.73301,2.9344 Z"
         style="fill:#1f1a17;fill-opacity:0.25097997" />
      <path
         inkscape:connector-curvature="0"
         id="_47139992"
         d="m 9.91367,2.85919 0.11443,4.8e-4 V 2.93598 L 9.91367,2.9355 Z"
         style="fill:#1f1a17;fill-opacity:0.25097997" />
      <path
         inkscape:connector-curvature="0"
         id="_46975480"
         d="m 7.97456,2.88055 0.11442,4.7e-4 V 2.95733 L 7.97456,2.95686 Z"
         style="fill:#1f1a17;fill-opacity:0.25097997" />
      <path
         inkscape:connector-curvature="0"
         id="_47047152"
         d="m 8.15522,2.88165 0.11442,4.8e-4 V 2.95844 L 8.15522,2.95796 Z"
         style="fill:#1f1a17;fill-opacity:0.25097997" />
      <path
         style="fill:#1f1a17;fill-opacity:0.25097997"
         inkscape:connector-curvature="0"
         d="m 12.5433,3.85621 c 0,0 -0.158914,0.354334 -0.06428,0.568461 0.09464,0.214131 0.171074,0.33902 0.0275,0.623096 -0.02512,0.0497 -0.03872,0.18303 0.0043,0.305279 0.05173,0.147017 0.0059,0.276362 0.0059,0.276304 -0.0035,-0.216376 -0.125721,-0.483316 -0.09426,-0.594782 0.02583,-0.091511 0.0619,-0.082276 0.08806,-0.215867 0.02696,-0.137677 -0.0522,-0.216313 -0.121663,-0.496444 -0.0351,-0.141544 0.09769,-0.438061 0.154434,-0.466046 z"
         class="fil12"
         id="_47054952" />
      <path
         style="fill:#1f1a17;fill-opacity:0.38823499"
         inkscape:connector-curvature="0"
         d="m 12.3202,4.94339 c 0,0 0.07752,0.083019 -0.04321,0.168521 -0.12072,0.085498 -0.05556,0.31293 0.0074,0.416334 0.03462,0.056929 0.02648,0.083187 0.0066,0.125189 -0.02558,0.054017 -0.06679,0.109316 -0.05166,0.092621 0.05004,-0.05524 0.136629,-0.059897 0.126886,-0.168493 -0.008,-0.088817 -0.05099,-0.111755 -0.07714,-0.222576 -0.02695,-0.11423 0.0086,-0.114465 0.07805,-0.180918 0.03509,-0.033577 0.0098,-0.139034 -0.04689,-0.230677 z"
         class="fil14"
         id="_47061224" />
      <path
         style="fill:#1f1a17;fill-opacity:0.25097997"
         inkscape:connector-curvature="0"
         d="m 14.6041,2.82519 c 0,0 -0.158914,0.467591 -0.06428,0.750158 0.09464,0.282571 0.171074,0.447377 0.02751,0.822253 -0.02512,0.065586 -0.03872,0.241527 0.0043,0.40285 0.05173,0.194008 0.0059,0.364695 0.0059,0.364616 -0.0035,-0.285531 -0.125721,-0.637792 -0.09426,-0.784888 0.02583,-0.120759 0.0619,-0.108573 0.08805,-0.284862 0.02697,-0.181685 -0.0522,-0.285452 -0.121659,-0.65512 -0.0351,-0.186783 0.09769,-0.578075 0.154434,-0.615007 z"
         class="fil12"
         id="_47067496" />
      <path
         style="fill:#1f1a17;fill-opacity:0.25097997"
         inkscape:connector-curvature="0"
         d="m 14.4269,4.16083 c 0,0 0.07751,0.109554 -0.04322,0.222385 -0.12072,0.112823 -0.05556,0.412948 0.0074,0.549405 0.03463,0.075125 0.02648,0.109777 0.0066,0.165201 C 14.3721,5.169103 14.3309,5.242078 14.34602,5.220043 14.39606,5.147146 14.482653,5.141 14.472906,4.997697 c -0.008,-0.117202 -0.05099,-0.147471 -0.07713,-0.293714 -0.02695,-0.150743 0.0086,-0.151052 0.07805,-0.238747 0.03509,-0.044313 0.0098,-0.183475 -0.04689,-0.304407 z"
         class="fil12"
         id="_47069064" />
      <path
         style="fill:#1f1a17;fill-opacity:0.25097997"
         inkscape:connector-curvature="0"
         d="m 14.2495,4.58535 c 0,0 -0.0492,0.109554 0.02743,0.222385 0.07661,0.112823 0.03526,0.412948 -0.0047,0.549405 -0.02198,0.075125 -0.01681,0.109773 -0.0042,0.165197 0.01623,0.071282 0.04239,0.144261 0.03279,0.122226 C 14.26906,5.571666 14.21411,5.56552 14.22029,5.422217 14.22539,5.305011 14.25265,5.274742 14.26924,5.128499 14.28635,4.977756 14.26374,4.977447 14.21971,4.889756 14.19744,4.845443 14.21351,4.706281 14.24947,4.585349 Z"
         class="fil12"
         id="_47070240" />
      <path
         style="fill:#ffffff;fill-rule:nonzero"
         inkscape:connector-curvature="0"
         d="m 11.5405,4.02694 v 0.463282 h 0.0085 c 0.08549,0 0.15115,-0.020342 0.197441,-0.061031 0.04581,-0.040688 0.06896,-0.098021 0.06896,-0.171996 0,-0.07398 -0.02314,-0.13085 -0.06896,-0.170612 C 11.700151,4.046821 11.634494,4.02694 11.549,4.02694 Z M 10.921728,5.47227 V 3.50262 h 0.774648 c 0.239005,0 0.422273,0.049008 0.548862,0.147029 0.127062,0.098021 0.190356,0.239502 0.190356,0.424447 0,0.113742 -0.02551,0.213146 -0.07699,0.298222 -0.05101,0.084614 -0.125643,0.151654 -0.223417,0.200201 L 12.497942,5.390897 11.848467,5.47227 11.540498,4.636325 v 0.788324 l -0.618772,0.04762 z"
         class="fil2"
         id="_47071808" />
      <path
         style="fill:#ffffff;fill-rule:nonzero"
         inkscape:connector-curvature="0"
         d="m 13.0361,3.55355 0.608782,-0.046467 v 1.22161 c 0,0.061805 0.01014,0.106915 0.03088,0.135785 0.02074,0.02842 0.053,0.042854 0.09632,0.042854 0.04378,0 0.07604,-0.014435 0.09632,-0.042854 0.02028,-0.028869 0.03042,-0.07398 0.03042,-0.135785 v -1.17514 l 0.595419,-0.046467 v 1.24822 c 0,0.23187 -0.06037,0.405098 -0.181575,0.520579 -0.121205,0.115485 -0.303242,0.173228 -0.54611,0.173228 -0.242868,0 -0.425366,-0.057743 -0.547494,-0.173228 C 13.09693,5.160404 13.036099,4.987176 13.036099,4.755306 v -1.20176 z"
         class="fil2"
         id="_47072984" />
      <path
         style="fill:#1f1a17;fill-opacity:0.25097997"
         inkscape:connector-curvature="0"
         d="M 5.70955,5.91831 V 4.975689 L 6.449711,4.7462 H 6.656699 V 5.91763 Z M 6.83228,4.7462 h 0.746271 l 0.00785,-2.19067 h 1.05811 V 5.59344 H 6.832281 V 4.746192 Z M 8.8359,2.51926 9.33462,2.093988 l 0.481286,0.461351 0.535585,0.151932 8.6e-4,2.02501 0.16266,0.01395 0.0075,1.05369 H 8.8359004 Z"
         class="fil12"
         id="_47074160" />
      <path
         style="fill:#1f1a17;fill-opacity:0.25097997"
         inkscape:connector-curvature="0"
         d="m 17.3216,4.26548 0.05412,1.45672 h 1.19606 L 18.55983,3.84921 18.560393,2.59719 18.474743,2.507368 C 18.383943,2.394424 18.249727,2.493672 18.266394,2.35831 L 18.299684,2.087851 18.113304,1.92846 18.138474,1.642562 17.943629,1.43962 17.925239,1.151165 h -0.0654 l -0.0239,0.296138 -0.185931,0.198899 0.006,0.281175 -0.196936,0.154692 0.01196,0.154536 0.0016,0.020671 H 16.91278 l -0.03769,0.083273 v 3.38166 h 0.361723 v -1.45727 l 0.08483,5.513e-4 z m -0.629015,1.62529 h -1.8046 V 5.198206 l 0.04529,-0.04271 0.166132,5.08e-5 0.134111,-0.134694 -0.345537,3.597e-4 v -0.119981 l 0.106763,-0.100691 0.457988,1.447e-4 0.122671,-0.123082 -0.687422,7.194e-4 v -0.110778 l 0.116529,-0.109906 0.789732,2.424e-4 0.124614,-0.125099 -1.03088,0.00108 V 4.226384 l 0.119981,-0.113202 0.482643,1.485e-4 0.390937,-0.510164 -0.138815,1.916e-4 0.180074,-0.220805 0.127734,5.08e-5 0.10326,-0.134694 -0.363792,4.926e-4 0.18016,-0.220801 0.35223,1.408e-4 0.09442,-0.123078 -0.619299,8.406e-4 0.180097,-0.220809 0.719298,2.268e-4 -0.0043,3.20585 z m -0.153367,-3.33074 -0.739035,0.001 0.180097,-0.220801 0.716628,2.229e-4 -0.157691,0.219574 z"
         class="fil12"
         id="_47075336" />
      <path
         inkscape:connector-curvature="0"
         id="_47076512"
         d="M 8.93428,5.45979 V 3.53129 L 9.55825,3.48135 V 4.28817 L 9.88464,3.47303 10.5421,3.53684 10.1586,4.38296 10.6073,5.40153 9.91817,5.45979 9.55825,4.48606 v 0.91547 z"
         style="fill:#ffffff;fill-rule:nonzero" />
      <path
         style="fill:#ffffff;fill-rule:nonzero"
         inkscape:connector-curvature="0"
         d="M 8.56392,5.28997 C 8.449052,5.343295 8.336879,5.383623 8.226941,5.410507 8.117011,5.43784 8.010217,5.451285 7.906567,5.451285 7.77375,5.451285 7.648115,5.428433 7.530104,5.383174 7.412093,5.3374696 7.307547,5.2715982 7.215559,5.1846702 7.1199859,5.0937067 7.048196,4.9884062 6.999735,4.8687652 6.951724,4.7495732 6.927491,4.6169362 6.927491,4.4717572 c 0,-0.144284 0.024232,-0.276472 0.072244,-0.395667 0.048461,-0.119641 0.120251,-0.224942 0.215824,-0.315901 0.091988,-0.087828 0.196534,-0.153699 0.314545,-0.198954 0.118011,-0.045259 0.243646,-0.067662 0.376463,-0.067662 0.126534,0 0.240956,0.017922 0.344607,0.05377 0.103201,0.035848 0.201468,0.091409 0.294351,0.166691 L 8.238162,4.171089 C 8.1879065,4.1280704 8.136302,4.096257 8.082461,4.0756449 8.0286164,4.0550329 7.969838,4.0447268 7.907016,4.0447268 c -0.117561,0 -0.211789,0.038984 -0.283134,0.116951 -0.071345,0.077968 -0.10724,0.181028 -0.10724,0.31008 0,0.123223 0.035895,0.225837 0.10724,0.30784 0.071345,0.081999 0.15929,0.122777 0.264739,0.122777 0.015701,0 0.032306,-0.00134 0.050252,-0.00403 0.01795,-0.00269 0.035449,-0.00627 0.05205,-0.011651 V 4.714622 H 7.715866 L 7.820865,4.286695 h 0.743054 v 1.00328 z"
         class="fil2"
         id="_47077688" />
      <path
         inkscape:connector-curvature="0"
         id="_47078864"
         d="M 1.21732,5.05036 H 1.51394 V 5.30283 H 1.21732 Z"
         style="fill:#1f1a17;fill-opacity:0.25097997" />
      <path
         style="fill:#ffffff;fill-rule:nonzero"
         inkscape:connector-curvature="0"
         d="M 2.46155,4.13294 C 2.4062861,4.1047353 2.351491,4.0839278 2.297647,4.0705213 2.2433254,4.057111 2.190423,4.050179 2.137521,4.050179 c -0.135562,0 -0.247036,0.04115 -0.333949,0.123911 -0.087382,0.082761 -0.130839,0.190032 -0.130839,0.321801 0,0.134549 0.044403,0.242739 0.132731,0.324577 0.088801,0.081838 0.205467,0.122527 0.350006,0.122527 0.058098,0 0.114308,-0.0074 0.16768,-0.022195 C 2.376526,4.905544 2.428486,4.882426 2.47808,4.850984 L 2.396367,5.472395 C 2.345822,5.483491 2.295754,5.491815 2.24616,5.497824 2.197034,5.503834 2.148859,5.506614 2.101622,5.506614 1.789877,5.506614 1.536699,5.413215 1.342093,5.225959 1.147491,5.039168 1.050186,4.795964 1.050186,4.495893 1.050186,4.346088 1.075693,4.209232 1.126234,4.085318 1.177244,3.961869 1.252823,3.853675 1.353432,3.761668 1.447425,3.673355 1.555123,3.605854 1.676042,3.559152 1.797435,3.512454 1.925912,3.489336 2.061474,3.489336 c 0.061879,0 0.118085,0.00324 0.169099,0.010173 0.050541,0.00694 0.099194,0.01757 0.145011,0.031903 l 0.085967,0.60153 z"
         class="fil2"
         id="_47080040" />
      <path
         style="fill:#ffffff;fill-rule:nonzero"
         inkscape:connector-curvature="0"
         d="M 14.9628,3.9596 C 14.94372,3.939223 14.92955,3.915447 14.92059,3.888279 14.91159,3.86111 14.907,3.828843 14.907,3.791205 c 0,-0.05689 0.01041,-0.114062 0.03123,-0.17123 0.02111,-0.057172 0.05349,-0.11717 0.09744,-0.180285 l 0.220319,0.014149 -0.06101,0.165854 c -0.0107,0.028584 -0.01879,0.054623 -0.024,0.077831 -0.0055,0.023208 -0.0081,0.0433 -0.0081,0.059717 0,0.024338 0.0058,0.048113 0.01764,0.07104 0.01185,0.022923 0.02978,0.044434 0.05349,0.065093 z"
         class="fil2"
         id="_47081216" />
      <path
         style="fill:#ffffff;fill-rule:nonzero"
         inkscape:connector-curvature="0"
         d="m 15.6626,4.62182 h 0.234912 L 15.784951,4.061374 Z m -0.693811,0.781142 0.527042,-1.89563 h 0.593675 l 0.517256,1.89563 -0.537207,0.049454 -0.07943,-0.335626 h -0.41373 l -0.08282,0.335626 z"
         class="fil2"
         id="_47082392" />
      <path
         inkscape:connector-curvature="0"
         id="_47263832"
         d="M 17.008,5.44279 V 3.50828 h 0.5388 l 0.5121,0.89088 V 3.51377 L 18.5977,3.47764 V 5.41215 H 18.0589 L 17.5468,4.49566 v 0.90597 z"
         style="fill:#ffffff;fill-rule:nonzero" />
      <path
         style="fill:#1f1a17;fill-opacity:0.25097997"
         inkscape:connector-curvature="0"
         d="M 4.3884,3.45839 C 4.39048,4.190149 4.39256,4.92193 4.39464,5.65374 H 4.656001 V 2.85559 L 4.53159,2.968288 4.543554,3.146501 4.555275,3.320902 C 4.561495,3.413398 4.445396,3.407143 4.3884,3.45839 Z M 4.838635,5.91828 H 5.631721 L 5.6323857,5.006139 5.6329526,3.562329 5.5472946,3.458745 C 5.4564992,3.328497 5.3222786,3.4429536 5.3389456,3.286854 L 5.3722408,2.974964 5.1858568,2.791156 5.2110276,2.461461 5.0161826,2.227433 4.9689336,1.3728 4.9084936,2.236293 4.8386346,2.322467 v 3.59582 z"
         class="fil12"
         id="_47264968" />
      <path
         style="fill:#ffffff;fill-rule:nonzero"
         inkscape:connector-curvature="0"
         d="M 3.62181,4.62156 H 3.856722 L 3.744161,4.061114 Z M 2.927995,5.40271 3.455037,3.50708 H 4.048716 L 4.565972,5.40271 4.028765,5.45216 3.949331,5.116534 H 3.535601 L 3.452778,5.45216 Z"
         class="fil2"
         id="_47266144" />
      <path
         style="fill:#1f1a17;fill-opacity:0.25097997"
         inkscape:connector-curvature="0"
         d="M 6.77796,3.86447 C 6.78626,3.85873 6.959246,3.752116 6.959246,3.752116 L 7.062111,3.728564 c 0.016429,-0.00477 0.02618,-0.00217 0.030515,0.00908 0.00643,0.013055 0.012851,0.026105 0.019283,0.039152 0.00479,0.010458 5.435e-4,0.015357 -0.0078,0.017727 L 6.965897,3.83084 C 6.907951,3.849685 6.8485,3.864526 6.790405,3.88298 6.791825,3.88656 6.7896895,3.88699 6.784585,3.8919 6.278476,4.071958 6.22987,4.192866 6.249176,4.517217 l 0.089251,1.40189 H 6.289509 L 6.210928,4.562577 C 6.179075,4.151325 6.318238,4.031563 6.774514,3.870088 c 3.52e-5,-0.00202 9.853e-4,-0.00391 0.00345,-0.00562 z"
         class="fil12"
         id="_47267320" />
      <path
         inkscape:connector-curvature="0"
         id="_46863360"
         d="M 4.93768,5.45989 V 3.52908 H 5.49093 L 6.01682,4.41826 V 3.53456 L 6.57007,3.4985 V 5.42931 H 6.01682 L 5.49093,4.51457 v 0.90424 z"
         style="fill:#ffffff;fill-rule:nonzero" />
    </g>
    <g
       transform="matrix(7.2294212,0,0,6.4472729,-7.3033617,197.7901)"
       id="g1071"
       style="clip-rule:evenodd;fill-rule:evenodd;image-rendering:optimizeQuality;shape-rendering:geometricPrecision;text-rendering:geometricPrecision"
       inkscape:export-xdpi="200.33284"
       inkscape:export-ydpi="200.33284">
      <path
         id="path901"
         class="fil1"
         d="m 19.7047,5.31204 h -0.664977 l 0.0058,-1.32642 h 0.336627 l -0.0058,1.16884 H 19.7047 V 5.312041 Z M 20.086562,4.22665 H 19.78203 l -0.0039,-0.240283 h 0.304532 z M 20.0863,5.31204 H 19.781768 V 4.31774 H 20.0863 Z m 0.810129,0 H 20.591897 V 4.51391 c 0,-0.030406 -0.01751,-0.045607 -0.05252,-0.045607 -0.03464,0 -0.05215,0.014622 -0.05215,0.043851 v 0.799885 h -0.304532 v -0.9943 h 0.304532 v 0.033326 c 0.04048,-0.026895 0.103213,-0.040344 0.187823,-0.040344 0.05507,0 0.105406,0.011987 0.151721,0.035962 0.04631,0.02397 0.06966,0.05906 0.06966,0.105539 z m 0.811224,0 H 21.404216 V 5.27871 c -0.03939,0.031282 -0.101754,0.047069 -0.18819,0.047069 -0.05981,0 -0.111517,-0.012961 -0.155364,-0.0383 -0.04368,-0.025233 -0.06565,-0.05847 -0.06565,-0.09969 V 4.31774 h 0.303437 v 0.808362 c 0,0.030398 0.01787,0.045607 0.05325,0.045607 0.03501,0 0.05252,-0.014618 0.05252,-0.043855 V 4.317741 h 0.303437 z m 0.915895,0 H 22.288016 L 22.183345,5.042195 22.085238,5.31204 H 21.780706 L 22.018863,4.786093 21.786907,4.31774 h 0.321672 l 0.10358,0.257564 0.08242,-0.257564 h 0.289581 l -0.20424,0.48034 z"
         inkscape:connector-curvature="0"
         style="fill:#da251d;fill-rule:nonzero" />
      <path
         id="path903"
         class="fil2"
         d="m 20.2705,4.03522 0.09251,-0.150896 h 0.0666 l -0.09818,0.148788 0.09818,0.150896 h -0.0666 z m -8.6e-4,0.148788 H 20.20972 V 3.884324 h 0.05992 z m 0.398084,-0.138322 c -0.0046,-0.015103 -0.01234,-0.026551 -0.02325,-0.034491 -0.01084,-0.00787 -0.02454,-0.0118 -0.04105,-0.0118 -0.01435,0 -0.02713,0.00429 -0.03846,0.012785 -0.01141,0.0085 -0.01902,0.019666 -0.02297,0.033506 z m -0.127601,0.041799 c 0.0018,0.016296 0.0085,0.029225 0.01988,0.038565 0.01141,0.00941 0.0262,0.014122 0.04428,0.014122 0.01198,0 0.02282,-0.00246 0.03243,-0.00738 0.0096,-0.00499 0.01723,-0.011874 0.02282,-0.020792 h 0.05806 c -0.0098,0.024655 -0.02447,0.043836 -0.04406,0.057532 -0.01952,0.013629 -0.04213,0.020444 -0.06782,0.020444 -0.01723,0 -0.03308,-0.00295 -0.04758,-0.00892 -0.0145,-0.00597 -0.02749,-0.014822 -0.03904,-0.026484 -0.01091,-0.0111 -0.01938,-0.023955 -0.02541,-0.038565 -0.006,-0.014611 -0.009,-0.029573 -0.009,-0.044958 0,-0.015807 0.0028,-0.030629 0.0083,-0.044539 0.0055,-0.013981 0.01371,-0.026484 0.02447,-0.037584 0.01177,-0.012222 0.02512,-0.021636 0.03997,-0.02817 0.01486,-0.0066 0.03014,-0.0099 0.046,-0.0099 0.02002,0 0.03875,0.00443 0.05612,0.013348 0.01737,0.00892 0.03215,0.021496 0.04435,0.037655 0.0075,0.00976 0.01292,0.020651 0.01651,0.032732 0.0036,0.012085 0.0054,0.025921 0.0054,0.041588 0,0.0012 -7.4e-5,0.00309 -2.15e-4,0.00562 -1.44e-4,0.0026 -2.19e-4,0.00443 -2.19e-4,0.00569 z m 0.277449,0.096523 V 3.884324 h 0.05253 v 0.299684 z m 0.200009,-0.114649 c 0,0.021007 0.0059,0.037654 0.01766,0.049947 0.01177,0.012296 0.02777,0.018407 0.04794,0.018407 0.01995,0 0.03581,-0.00625 0.04765,-0.018829 0.01184,-0.012574 0.0178,-0.029503 0.0178,-0.050717 0,-0.019107 -0.0062,-0.034773 -0.01859,-0.047065 -0.01242,-0.012296 -0.02806,-0.018407 -0.04687,-0.018407 -0.0193,0 -0.03509,0.00618 -0.04729,0.018614 -0.0122,0.012437 -0.0183,0.028451 -0.0183,0.04805 z m -0.05548,4.222e-4 c 0,-0.015874 0.003,-0.031051 0.009,-0.04538 0.006,-0.014329 0.01457,-0.027044 0.02591,-0.038143 0.01163,-0.011381 0.02476,-0.020162 0.03933,-0.026273 0.01457,-0.00611 0.02971,-0.00913 0.04543,-0.00913 0.01665,0 0.03208,0.00274 0.04615,0.00815 0.01406,0.00541 0.02706,0.013559 0.03882,0.024377 0.01206,0.011381 0.02139,0.024518 0.02792,0.03941 0.0066,0.014892 0.0099,0.030136 0.0099,0.045802 0,0.017281 -0.0029,0.033014 -0.0086,0.047276 -0.0057,0.014329 -0.01435,0.027184 -0.02584,0.038706 -0.01155,0.011663 -0.02462,0.020514 -0.03933,0.026484 -0.01471,0.00597 -0.03071,0.00892 -0.04794,0.00892 -0.01744,0 -0.03323,-0.00302 -0.04751,-0.00906 -0.01435,-0.00604 -0.02734,-0.015103 -0.03911,-0.027188 -0.01127,-0.0118 -0.01974,-0.024795 -0.02548,-0.038988 -0.0057,-0.014188 -0.0086,-0.029151 -0.0086,-0.044958 z m 0.387176,-0.112185 v 0.02571 c 0.0078,-0.010255 0.01687,-0.017844 0.02698,-0.022833 0.01019,-0.00491 0.02175,-0.00737 0.0348,-0.00737 0.01866,0 0.03459,0.00323 0.0478,0.00969 0.01328,0.0064 0.02469,0.016511 0.03416,0.030206 0.0091,-0.013414 0.01938,-0.023462 0.03072,-0.029995 0.01134,-0.0066 0.0239,-0.0099 0.0376,-0.0099 0.02835,0 0.05009,0.00871 0.06523,0.026133 0.01515,0.017422 0.02268,0.042358 0.02268,0.074883 v 0.129893 h -0.05296 v -0.100245 c 0,-0.030699 -0.0034,-0.051636 -0.01041,-0.062661 -0.007,-0.011029 -0.01895,-0.016581 -0.0361,-0.016581 -0.0178,0 -0.0305,0.00618 -0.03811,0.018618 -0.0077,0.012433 -0.01148,0.033717 -0.01148,0.063924 v 0.096945 h -0.05339 v -0.100245 c 0,-0.030629 -0.0035,-0.051421 -0.01062,-0.062595 -0.0071,-0.011096 -0.01945,-0.016648 -0.0371,-0.016648 -0.01794,0 -0.03086,0.00618 -0.03868,0.018618 -0.0078,0.012433 -0.01177,0.033717 -0.01177,0.063924 v 0.096945 h -0.05196 v -0.226412 z m 0.456217,0.112185 c 0,0.019318 0.0064,0.035477 0.01916,0.048473 0.01278,0.012996 0.02849,0.019459 0.0473,0.019459 0.01851,0 0.0343,-0.0066 0.04744,-0.01974 0.01313,-0.013207 0.01966,-0.029014 0.01966,-0.047347 0,-0.019107 -0.0066,-0.034984 -0.01973,-0.047558 -0.01321,-0.012648 -0.02986,-0.01897 -0.04988,-0.01897 -0.01765,0 -0.03272,0.00632 -0.04521,0.01904 -0.01249,0.012714 -0.01873,0.02824 -0.01873,0.046643 z m -0.0021,0.096101 v 0.091394 h -0.05296 v -0.29968 h 0.05296 v 0.018896 c 0.01077,-0.00836 0.0221,-0.01454 0.03387,-0.018614 0.01177,-0.00401 0.0244,-0.00604 0.03804,-0.00604 0.01457,0 0.02828,0.00225 0.04119,0.00667 0.01292,0.0045 0.02447,0.0111 0.03473,0.019881 0.01385,0.011803 0.02454,0.02571 0.032,0.041799 0.0075,0.016018 0.01127,0.033088 0.01127,0.05121 0,0.016933 -0.0034,0.033018 -0.01019,0.048402 -0.0068,0.015385 -0.01644,0.028592 -0.02892,0.039691 -0.01062,0.0099 -0.02282,0.017422 -0.03645,0.022688 -0.01371,0.0052 -0.02806,0.0078 -0.04321,0.0078 -0.01471,0 -0.02792,-0.00197 -0.03961,-0.00583 -0.01177,-0.00394 -0.02261,-0.010048 -0.03272,-0.018266 z m 0.327681,-0.096523 c 0,0.021007 0.0059,0.037654 0.01766,0.049947 0.01177,0.012296 0.02777,0.018407 0.04794,0.018407 0.01995,0 0.03581,-0.00625 0.04766,-0.018829 0.01184,-0.012574 0.0178,-0.029503 0.0178,-0.050717 0,-0.019107 -0.0062,-0.034773 -0.01859,-0.047065 -0.01242,-0.012296 -0.02806,-0.018407 -0.04687,-0.018407 -0.0193,0 -0.03509,0.00618 -0.04729,0.018614 -0.0122,0.012437 -0.0183,0.028451 -0.0183,0.04805 z m -0.05547,4.223e-4 c 0,-0.015874 0.003,-0.031051 0.009,-0.04538 0.006,-0.014329 0.01457,-0.027044 0.02591,-0.038143 0.01163,-0.011381 0.02476,-0.020162 0.03933,-0.026273 0.01457,-0.00611 0.02971,-0.00913 0.04543,-0.00913 0.01665,0 0.03208,0.00274 0.04615,0.00815 0.01407,0.00541 0.02706,0.013559 0.03883,0.024377 0.01205,0.011381 0.02139,0.024518 0.02792,0.03941 0.0066,0.014892 0.0099,0.030136 0.0099,0.045802 0,0.017281 -0.0029,0.033014 -0.0086,0.047276 -0.0057,0.014329 -0.01435,0.027184 -0.02584,0.038706 -0.01155,0.011663 -0.02462,0.020514 -0.03933,0.026484 -0.01471,0.00597 -0.03072,0.00892 -0.04794,0.00892 -0.01744,0 -0.03323,-0.00302 -0.04751,-0.00906 -0.01435,-0.00604 -0.02734,-0.015103 -0.03911,-0.027188 -0.01126,-0.0118 -0.01973,-0.024795 -0.02548,-0.038988 -0.0057,-0.014188 -0.0086,-0.029151 -0.0086,-0.044958 z m 0.386096,0.114226 h -0.05196 v -0.299684 h 0.05196 v 0.178225 l 0.07507,-0.104952 h 0.06071 l -0.08009,0.107412 0.09588,0.119 h -0.06746 l -0.08411,-0.115067 v 0.115067 z"
         inkscape:connector-curvature="0"
         style="fill:#ffffff;fill-rule:nonzero" />
      <path
         id="path905"
         class="fil2"
         d="M 19.2514,5.61906 19.21393,5.519081 19.17565,5.61906 Z m -0.09709,0.057555 -0.0246,0.065054 h -0.0643 l 0.123097,-0.310412 h 0.05352 l 0.121315,0.310412 h -0.06646 l -0.02498,-0.065054 z m 0.385928,-0.121952 c -0.02163,0.00167 -0.03672,0.00728 -0.04527,0.016663 -0.0085,0.00939 -0.01286,0.026269 -0.01286,0.050717 v 0.119626 h -0.05575 V 5.507148 h 0.05226 v 0.027071 c 0.0084,-0.010552 0.01762,-0.018266 0.02765,-0.023142 0.01004,-0.00488 0.02134,-0.00735 0.03397,-0.00735 z m 0.251156,0.04373 c -0.0048,-0.015643 -0.01279,-0.027505 -0.02408,-0.035727 -0.01122,-0.00815 -0.02542,-0.012222 -0.04252,-0.012222 -0.01487,0 -0.0281,0.00444 -0.03984,0.013242 -0.01181,0.0088 -0.0197,0.020374 -0.02379,0.034707 z m -0.132168,0.043296 c 0.0019,0.016882 0.0088,0.030269 0.02059,0.03995 0.01182,0.00975 0.02713,0.014622 0.04586,0.014622 0.01241,0 0.02364,-0.00255 0.0336,-0.00764 0.01,-0.00516 0.01784,-0.012296 0.02364,-0.021539 h 0.06013 c -0.01018,0.025542 -0.02535,0.045408 -0.04564,0.059596 -0.02022,0.014114 -0.04363,0.021175 -0.07025,0.021175 -0.01784,0 -0.03427,-0.00306 -0.04929,-0.00924 -0.01501,-0.00619 -0.02847,-0.015354 -0.04044,-0.027431 -0.0113,-0.011498 -0.02007,-0.024815 -0.02631,-0.039949 -0.0062,-0.015135 -0.0094,-0.030633 -0.0094,-0.046569 0,-0.016374 0.0029,-0.031724 0.0086,-0.046131 0.0057,-0.014482 0.0142,-0.027435 0.02535,-0.038929 0.01219,-0.012664 0.02602,-0.022414 0.0414,-0.029182 0.01539,-0.00684 0.03122,-0.010259 0.04765,-0.010259 0.02074,0 0.04014,0.00459 0.05813,0.013829 0.01799,0.00924 0.0333,0.022266 0.04594,0.038999 0.0077,0.010114 0.01338,0.021394 0.0171,0.033909 0.0037,0.012515 0.0056,0.026848 0.0056,0.043077 0,0.00124 -7.4e-5,0.0032 -2.23e-4,0.00582 -1.52e-4,0.00269 -2.22e-4,0.00458 -2.22e-4,0.00589 z m 0.333741,0.099979 h -0.05382 V 5.431256 h 0.05382 v 0.184601 l 0.07776,-0.10871 h 0.06289 l -0.08296,0.111255 0.09931,0.123266 h -0.06987 L 19.992977,5.62248 Z m 0.332631,-0.096343 0.05664,-2.15e-4 v 0.00451 c 0,0.013023 0.0035,0.023501 0.01048,0.03136 0.0069,0.00793 0.01621,0.011862 0.0278,0.011862 0.01249,0 0.02238,-0.00364 0.02966,-0.010986 0.0072,-0.00728 0.01085,-0.017246 0.01085,-0.029765 0,-0.020006 -0.01464,-0.034343 -0.04401,-0.043003 -0.0037,-0.00117 -0.0068,-0.00211 -0.0089,-0.00276 -0.02468,-0.00757 -0.04297,-0.018262 -0.05486,-0.032087 -0.01189,-0.013899 -0.01784,-0.031434 -0.01784,-0.052609 0,-0.029108 0.0083,-0.052465 0.02468,-0.070144 0.0165,-0.017609 0.03843,-0.026414 0.06586,-0.026414 0.02572,0 0.04616,0.00786 0.0614,0.023576 0.01524,0.015643 0.02379,0.037619 0.02549,0.065922 h -0.0562 v -0.00255 c 0,-0.00997 -0.003,-0.017973 -0.0091,-0.024084 -0.0061,-0.00611 -0.01405,-0.00917 -0.02393,-0.00917 -0.01018,0 -0.01814,0.00313 -0.02401,0.00939 -0.0059,0.00626 -0.0088,0.014771 -0.0088,0.025538 0,0.00459 5.95e-4,0.00859 0.0019,0.012081 0.0012,0.00349 0.0031,0.00662 0.0057,0.00946 0.006,0.0064 0.01873,0.012296 0.03836,0.017754 0.0087,0.00226 0.01539,0.00415 0.02007,0.00575 0.02178,0.00721 0.03784,0.017609 0.04825,0.031145 0.01033,0.013461 0.01554,0.030777 0.01554,0.051808 0,0.031942 -0.0091,0.057629 -0.02721,0.077057 -0.01814,0.019427 -0.0423,0.029108 -0.07233,0.029108 -0.02832,0 -0.05114,-0.00939 -0.06861,-0.028162 -0.01739,-0.0187 -0.02631,-0.043511 -0.02676,-0.074367 z m 0.440187,0.096343 V 5.716271 c -0.0081,0.010697 -0.01747,0.01863 -0.02795,0.023794 -0.01056,0.00517 -0.0226,0.00779 -0.03606,0.00779 -0.03003,0 -0.05315,-0.00902 -0.06928,-0.027071 -0.01613,-0.018043 -0.02416,-0.04402 -0.02416,-0.077858 V 5.507149 h 0.05642 v 0.105289 c 0,0.031727 0.0037,0.053411 0.01108,0.065054 0.0074,0.011639 0.02022,0.017461 0.03835,0.017461 0.01859,0 0.03189,-0.00655 0.03992,-0.019646 0.0081,-0.013023 0.01212,-0.035215 0.01212,-0.066504 V 5.50715 h 0.05486 v 0.234521 z m 0.269219,-0.187006 c -0.02163,0.00167 -0.03672,0.00728 -0.04527,0.016663 -0.0085,0.00939 -0.01286,0.026269 -0.01286,0.050717 v 0.119626 h -0.05575 V 5.507147 h 0.05226 v 0.027071 c 0.0084,-0.010552 0.01762,-0.018266 0.02765,-0.023142 0.01003,-0.00488 0.02133,-0.00735 0.03397,-0.00735 z m 0.118543,0.068252 c 0,0.021758 0.0061,0.039003 0.01829,0.051737 0.01219,0.012734 0.02877,0.019064 0.04966,0.019064 0.02067,0 0.0371,-0.00647 0.04936,-0.019502 0.01226,-0.013023 0.01844,-0.030558 0.01844,-0.052535 0,-0.019791 -0.0064,-0.03602 -0.01925,-0.048754 -0.01286,-0.012734 -0.02906,-0.019064 -0.04854,-0.019064 -0.01999,0 -0.03635,0.0064 -0.04898,0.019283 -0.01264,0.012882 -0.01896,0.029472 -0.01896,0.049771 z m -0.05746,4.379e-4 c 0,-0.016444 0.0031,-0.032161 0.0093,-0.047006 0.0062,-0.014841 0.01509,-0.028013 0.02684,-0.039508 0.01204,-0.011792 0.02564,-0.020886 0.04074,-0.027216 0.01509,-0.00633 0.03077,-0.00946 0.04705,-0.00946 0.01725,0 0.03323,0.00284 0.0478,0.00844 0.01457,0.0056 0.02802,0.014044 0.04021,0.025249 0.01249,0.011788 0.02215,0.025397 0.02892,0.040821 0.0068,0.015428 0.01026,0.031215 0.01026,0.047444 0,0.017899 -0.003,0.034198 -0.0089,0.048969 -0.0059,0.014845 -0.01487,0.028158 -0.02676,0.040094 -0.01197,0.012077 -0.0255,0.021245 -0.04074,0.027431 -0.01524,0.00619 -0.03182,0.00924 -0.04966,0.00924 -0.01806,0 -0.03442,-0.00313 -0.04921,-0.00939 -0.01487,-0.00626 -0.02832,-0.015647 -0.04052,-0.028162 -0.01167,-0.012222 -0.02044,-0.025687 -0.02639,-0.040383 -0.0059,-0.014697 -0.0089,-0.030195 -0.0089,-0.046569 z m 0.392395,0.00211 c 0,0.019064 0.0065,0.035219 0.0194,0.048387 0.01294,0.013242 0.02854,0.019865 0.04683,0.019865 0.02074,0 0.03798,-0.00655 0.05166,-0.019721 0.01361,-0.013168 0.02044,-0.029612 0.02044,-0.049407 0,-0.018845 -0.0068,-0.035145 -0.02037,-0.048825 -0.01361,-0.013606 -0.02996,-0.020444 -0.04914,-0.020444 -0.01947,0 -0.03575,0.00669 -0.04899,0.020155 -0.01323,0.013461 -0.01985,0.030124 -0.01985,0.04999 z m -0.0022,-0.099541 c 0.01033,-0.00837 0.02148,-0.014552 0.03352,-0.018411 0.01205,-0.00393 0.02587,-0.00589 0.04141,-0.00589 0.01598,0 0.031,0.00262 0.04505,0.00786 0.01412,0.00531 0.02661,0.012953 0.03746,0.023067 0.01293,0.011639 0.02289,0.025394 0.02996,0.041255 0.0071,0.015862 0.01056,0.032525 0.01056,0.04999 0,0.018771 -0.0039,0.036454 -0.01167,0.053188 -0.0077,0.016663 -0.01881,0.031145 -0.03315,0.04337 -0.01063,0.00895 -0.0226,0.015787 -0.03598,0.020444 -0.01338,0.00473 -0.02758,0.00706 -0.04267,0.00706 -0.0142,0 -0.02743,-0.00211 -0.03962,-0.00626 -0.01219,-0.00422 -0.02386,-0.010548 -0.03486,-0.019138 v 0.019212 h -0.05486 v -0.310412 h 0.05486 z m 0.332404,0.096992 c 0,0.021758 0.0061,0.039003 0.01828,0.051737 0.01219,0.012734 0.02877,0.019064 0.04966,0.019064 0.02066,0 0.03709,-0.00647 0.04936,-0.019502 0.01227,-0.013023 0.01844,-0.030558 0.01844,-0.052535 0,-0.019791 -0.0064,-0.03602 -0.01925,-0.048754 -0.01286,-0.012734 -0.02907,-0.019064 -0.04854,-0.019064 -0.02,0 -0.03635,0.0064 -0.04899,0.019283 -0.01264,0.012882 -0.01896,0.029472 -0.01895,0.049771 z m -0.05746,4.379e-4 c 0,-0.016444 0.0031,-0.032161 0.0093,-0.047006 0.0062,-0.014841 0.01509,-0.028013 0.02684,-0.039508 0.01204,-0.011792 0.02565,-0.020886 0.04074,-0.027216 0.01509,-0.00633 0.03078,-0.00946 0.04706,-0.00946 0.01724,0 0.03323,0.00284 0.0478,0.00844 0.01457,0.0056 0.02802,0.014044 0.04022,0.025249 0.01249,0.011788 0.02215,0.025398 0.02892,0.040821 0.0068,0.015428 0.01026,0.031215 0.01026,0.047444 0,0.017899 -0.003,0.034198 -0.0089,0.048969 -0.0059,0.014845 -0.01487,0.028158 -0.02676,0.040094 -0.01197,0.012077 -0.0255,0.021245 -0.04074,0.027431 -0.01524,0.00619 -0.03181,0.00924 -0.04965,0.00924 -0.01807,0 -0.03442,-0.00313 -0.04921,-0.00939 -0.01487,-0.00626 -0.02832,-0.015647 -0.04051,-0.028162 -0.01167,-0.012222 -0.02044,-0.025687 -0.02639,-0.040383 -0.0059,-0.014697 -0.0089,-0.030195 -0.0089,-0.046569 z m 0.309509,-0.116205 h 0.05902 l 0.05835,0.163719 0.0643,-0.163719 h 0.05835 l -0.12942,0.310412 h -0.05746 l 0.03353,-0.082515 z m 0.354334,0.115767 c 0,0.021758 0.0061,0.039003 0.01829,0.051737 0.01219,0.012734 0.02877,0.019064 0.04966,0.019064 0.02066,0 0.03709,-0.00647 0.04936,-0.019502 0.01227,-0.013023 0.01844,-0.030558 0.01844,-0.052535 0,-0.019791 -0.0064,-0.03602 -0.01925,-0.048754 -0.01286,-0.012734 -0.02907,-0.019064 -0.04854,-0.019064 -0.02,0 -0.03635,0.0064 -0.04899,0.019283 -0.01264,0.012882 -0.01896,0.029471 -0.01896,0.049771 z m -0.05746,4.379e-4 c 0,-0.016444 0.0031,-0.032161 0.0093,-0.047007 0.0062,-0.014841 0.01509,-0.028013 0.02684,-0.039508 0.01204,-0.011792 0.02565,-0.020886 0.04074,-0.027216 0.01509,-0.00633 0.03078,-0.00946 0.04706,-0.00946 0.01724,0 0.03323,0.00284 0.0478,0.00844 0.01457,0.0056 0.02802,0.014044 0.04022,0.025249 0.01249,0.011788 0.02215,0.025397 0.02892,0.040821 0.0068,0.015428 0.01026,0.031215 0.01026,0.047444 0,0.017899 -0.003,0.034198 -0.0089,0.048969 -0.0059,0.014845 -0.01487,0.028158 -0.02676,0.040094 -0.01197,0.012077 -0.0255,0.021245 -0.04074,0.027431 -0.01524,0.00619 -0.03181,0.00924 -0.04965,0.00924 -0.01807,0 -0.03442,-0.00313 -0.04921,-0.00939 -0.01487,-0.00626 -0.02832,-0.015647 -0.04051,-0.028162 -0.01167,-0.012222 -0.02044,-0.025687 -0.02639,-0.040383 -0.0059,-0.014697 -0.0089,-0.030195 -0.0089,-0.046569 z"
         inkscape:connector-curvature="0"
         style="fill:#ffffff;fill-rule:nonzero" />
      <path
         style="fill:#c4337b"
         d="M 2.83794,1.08269 H 4.656 V 5.65374 H 2.83794 Z"
         id="path907"
         inkscape:connector-curvature="0" />
      <path
         style="fill:#593b65"
         d="m 16.8758,1.15115 h 1.818 v 4.57104 h -1.818 z"
         id="path909"
         inkscape:connector-curvature="0" />
      <path
         style="fill:#f0bc0d"
         d="M 6.82644,1.0224 H 8.64451 V 5.59345 H 6.82644 Z"
         id="path911"
         inkscape:connector-curvature="0" />
      <path
         style="fill:#ae2c2a"
         d="M 8.8359,1.23403 H 10.654 V 5.80508 H 8.8359 Z"
         id="path913"
         inkscape:connector-curvature="0" />
      <path
         style="fill:#106f88"
         d="m 10.8241,1.24455 h 1.8181 V 5.8156 h -1.8181 z"
         id="path915"
         inkscape:connector-curvature="0" />
      <path
         style="fill:#2e838e"
         d="m 12.8706,1.10778 h 1.8181 v 4.57105 h -1.8181 z"
         id="path917"
         inkscape:connector-curvature="0" />
      <path
         style="fill:#d36622"
         d="M 4.83864,1.34806 H 6.6567 V 5.91911 H 4.83864 Z"
         id="path919"
         inkscape:connector-curvature="0" />
      <path
         style="fill:#009a46"
         d="m 14.8745,1.31973 h 1.8181 v 4.57104 h -1.8181 z"
         id="path921"
         inkscape:connector-curvature="0" />
      <path
         style="fill:#901e78"
         d="M 0.828172,1.26569 H 2.64624 V 5.83674 H 0.828172 Z"
         id="path923"
         inkscape:connector-curvature="0" />
      <path
         style="fill:#1f1a17;fill-opacity:0.25097997"
         d="M 0.913838,2.68651 H 1.15796 L 1.87532,1.67653 v 1.00998 h 0.00582 l 0.0034,3.15023 H 0.917232 Z"
         id="path925"
         inkscape:connector-curvature="0" />
      <path
         style="fill:#1f1a17;fill-opacity:0.25097997"
         d="M 0.990887,2.83189 H 1.28751 V 3.08437 H 0.990887 Z"
         id="path927"
         inkscape:connector-curvature="0" />
      <path
         style="fill:#1f1a17;fill-opacity:0.25097997"
         d="M 1.47451,2.83189 H 1.77113 V 3.08437 H 1.47451 Z"
         id="path929"
         inkscape:connector-curvature="0" />
      <path
         style="fill:#1f1a17;fill-opacity:0.25097997"
         d="M 0.984436,5.47032 H 1.28106 V 5.7228 H 0.984436 Z"
         id="path931"
         inkscape:connector-curvature="0" />
      <path
         id="path933"
         class="fil12"
         d="m 11.2038,4.89358 c -0.09314,-0.14724 0.147916,-0.533247 0.367244,-0.659441 0.166523,-0.095819 0.387703,-0.154223 0.59217,-0.123778 0.09723,0.014482 0.291739,0.0279 0.478952,0.024666 V 4.601351 C 12.475807,4.5677943 12.324849,4.4792314 12.1685,4.4309074 12.04525,4.3928189 11.916366,4.4007791 11.773853,4.4255902 11.484135,4.5182623 11.402594,4.5816862 11.2038,4.89358 Z m 1.66682,-0.773108 c 0.109077,-0.013731 0.194524,-0.038057 0.224215,-0.077784 0.0926,-0.123907 0.252138,0.069136 0.328878,0.05318 0.07674,-0.015952 0.268578,-0.10636 0.295985,-0.154223 C 13.747108,3.893782 13.884137,3.760828 13.85673,3.712969 13.82932,3.665102 13.80038,3.822547 13.730661,3.814012 13.660951,3.805472 13.585446,3.679185 13.566535,3.565635 13.520315,3.569415 13.487575,3.58256 13.44861,3.558465 13.41232,3.536027 13.387,3.425359 13.43911,3.420362 c 0.07112,-0.00681 0.09652,0.00365 0.138729,0.030973 0.06339,0.0764 0.08442,0.172442 0.129314,0.208826 0.007,-0.085236 0.05475,-0.26755 0.115493,-0.259312 0.03119,-0.029737 0.02511,-0.036704 0.06701,-0.038874 C 13.832126,3.350758 13.811086,3.322147 13.748996,3.282576 13.689376,3.272485 13.592029,3.273306 13.467598,3.229025 13.348187,3.186178 13.228781,3.17163 13.109366,3.100454 c -0.01839,-0.014869 -0.0203,-0.037506 -0.0025,-0.044641 0.192174,0.068365 0.358193,0.04558 0.492273,0.04558 C 13.507429,2.98314 13.329806,2.922504 13.148172,2.85702 13.114552,2.844904 13.064152,2.827341 13.045534,2.798261 c -0.0072,-0.085032 0.03852,-0.108084 0.137028,-0.069136 0.122441,0.04762 0.254011,0.086268 0.350803,0.090408 0.101266,0.00311 0.185532,0.010036 0.245112,0.030859 0.264954,0.013352 0.583369,0.483495 0.583443,0.509597 2e-5,0.01219 -0.0258,-0.074957 -0.01839,-0.094693 0.0046,-0.012339 0.0172,-0.063048 0.0303,-0.064006 0.02189,-0.00161 0.07087,0.057301 0.08643,0.068088 0.004,0.020334 -5.59e-4,0.071923 -0.01359,0.154653 0.0326,0.021965 0.09104,0.164505 0.02503,0.19997 0,0 -0.04541,-0.011307 -0.05097,-0.03758 -0.0035,-0.016386 -0.0021,-0.022023 -0.0014,-0.015205 0.02098,0.209315 -0.02046,0.429713 -0.107603,0.599106 -0.116936,0.22735 -0.419392,0.396926 -0.501726,0.412862 0,0 -0.105977,0.019756 -0.15332,-0.00966 C 13.598861,4.53759 13.546228,4.502535 13.484059,4.446861 l 0.08222,0.074457 0.07674,0.063814 c 0.04387,0.075653 0.01013,0.139526 -0.137032,0.186134 l -0.142513,0.047863 c 0.02403,0.035391 0.054,0.047562 0.09,0.036517 0.08538,-0.059885 0.130467,-0.034906 0.16214,-0.00993 0.01106,0.065183 -0.04802,0.114676 -0.0877,0.131249 -0.107115,0.017132 -0.241292,-0.035934 -0.350803,-0.147201 -0.0116,-0.046424 0.0067,-0.078312 0.05481,-0.09573 0.02876,-0.028068 0.10231,-0.021269 0.153476,-0.031907 -0.149828,-0.063345 -0.277269,0.0061 -0.449461,-0.111681 -0.02211,0.00658 -0.04385,0.011667 -0.06526,0.015471 z"
         inkscape:connector-curvature="0"
         style="fill:#1f1a17;fill-opacity:0.25097997" />
      <path
         id="path935"
         class="fil13"
         d="m 13.1644,1.23802 c 0,0 0.09901,0.081365 -0.0552,0.165162 -0.154195,0.083793 -0.07097,0.30669 0.0094,0.408034 0.04423,0.055792 0.03383,0.081529 0.0084,0.122691 -0.03268,0.052941 -0.08531,0.107138 -0.06599,0.090772 0.06392,-0.054138 0.174522,-0.058701 0.162077,-0.165131 -0.01022,-0.087046 -0.06513,-0.109527 -0.09852,-0.218139 -0.03443,-0.111951 0.011,-0.112182 0.09969,-0.17731 0.04482,-0.032908 0.01254,-0.136262 -0.0599,-0.2260789 z"
         inkscape:connector-curvature="0"
         style="fill:#1f1a17;fill-opacity:0.29019602" />
      <path
         id="path937"
         class="fil12"
         d="m 11.754,3.25815 c -0.528696,0.00646 -0.438049,-0.473338 -0.488461,-0.841317 0.177458,0.110735 0.26077,0.465221 0.445075,0.487124 -0.03864,0.033002 -0.191217,-0.24564 0.07062,-0.651101 0.205718,-0.271155 0.605338,-0.277019 0.860881,-0.247255 v 0.351081 c -0.189125,0.046557 -0.325625,0.162562 -0.368202,0.251082 -0.0427,0.075505 -0.08207,0.323424 -0.03755,0.373175 L 12.35377,2.749695 c 0.05225,0.2091 0.02598,0.209612 0.0061,0.365711 0.209354,0.382464 0.274752,0.461147 0.219945,0.621227 C 12.552065,3.817748 12.164091,3.528057 12.029639,3.49113 11.998599,3.48262 12.192068,3.726378 12.166381,3.719383 11.994529,3.6725094 11.889944,3.554154 11.754,3.25815 Z m 1.11657,-1.21116 c 0.09129,0.024936 0.175926,0.072369 0.272113,0.068232 0.0913,-0.00394 0.14613,-0.092809 0.235232,-0.104827 0.08127,-0.010975 0.147275,0.046819 0.227632,0.039046 0.07459,-0.00724 -0.265521,0.211273 -0.194329,0.202664 0.07506,-0.00906 0.21939,0.069824 0.291794,1.447e-4 0.265704,-0.255727 0.689725,-0.366341 0.707096,-0.394276 0.09469,0.152807 -0.206445,0.459756 -0.332815,0.492914 -0.182643,0.088426 0.201792,0.053598 0.171496,0.098771 -0.172493,0.257209 -0.465648,0.181235 -0.697263,0.062978 -0.09266,-0.029964 -0.07923,0.064002 -0.09346,0.114754 -0.02182,0.077807 -0.209968,-0.099819 -0.339051,-0.226287 -0.08629,-0.03699 -0.169709,-0.056452 -0.248443,-0.062747 z"
         inkscape:connector-curvature="0"
         style="fill:#1f1a17;fill-opacity:0.25097997" />
      <path
         id="path939"
         class="fil12"
         d="M 2.11181,2.66532 H 2.6392 L 2.64624,5.83674 H 2.11885 Z m 0.720843,0 h 0.601143 l 0.783152,0.51025 0.00921,2.47817 H 2.841868 L 2.832658,2.66532 Z"
         inkscape:connector-curvature="0"
         style="fill:#1f1a17;fill-opacity:0.25097997" />
      <path
         style="fill:#1f1a17;fill-opacity:0.29019602"
         d="M 2.20034,2.76305 H 2.44215 V 3.21279 H 2.20034 Z"
         id="path941"
         inkscape:connector-curvature="0" />
      <path
         style="fill:#1f1a17;fill-opacity:0.25097997"
         d="M 1.01023,3.21061 H 1.30685 V 3.46309 H 1.01023 Z"
         id="path943"
         inkscape:connector-curvature="0" />
      <path
         style="fill:#1f1a17;fill-opacity:0.29019602"
         d="M 2.99659,3.31536 H 3.23841 V 3.7651 H 2.99659 Z"
         id="path945"
         inkscape:connector-curvature="0" />
      <path
         style="fill:#1f1a17;fill-opacity:0.29019602"
         d="M 3.02077,3.88346 H 3.26259 V 4.3332 H 3.02077 Z"
         id="path947"
         inkscape:connector-curvature="0" />
      <path
         id="path949"
         class="fil12"
         d="m 11.5083,1.24455 c -0.112557,0.185981 -0.03555,0.57467 0.03904,0.75863 0.04423,0.109128 0.03383,0.159462 0.0084,0.239971 -0.03267,0.103545 -0.08531,0.209553 -0.06599,0.177544 0.06392,-0.105887 0.174518,-0.114817 0.162073,-0.322982 -0.01021,-0.170249 -0.06513,-0.214221 -0.09853,-0.426656 -0.03443,-0.218972 0.01101,-0.219417 0.09969,-0.346808 0.01218,-0.017488 0.01865,-0.045165 0.02019,-0.0797 z"
         inkscape:connector-curvature="0"
         style="fill:#1f1a17;fill-opacity:0.25097997" />
      <path
         id="path951"
         class="fil12"
         d="M 6.01529,2.3669 C 6.0281921,2.357243 6.297251,2.177994 6.297251,2.177994 l 0.15999,-0.039605 c 0.02555,-0.00803 0.04072,-0.00365 0.047464,0.015267 0.01,0.021941 0.019994,0.043887 0.029991,0.065832 0.00745,0.017582 8.484e-4,0.025816 -0.01214,0.0298 L 6.307588,2.31035 c -0.090127,0.031688 -0.1826,0.05664 -0.272957,0.087671 0.00221,0.00602 -0.00111,0.00674 -0.00905,0.014994 -0.787179,0.302745 -0.862777,0.506039 -0.832754,1.0514 l 0.14457,2.4547 H 5.26079 L 5.133341,3.540695 C 5.083797,2.849222 5.300243,2.64786 6.009919,2.376355 c 5.86e-5,-0.00339 0.00153,-0.00657 0.00538,-0.00945 z"
         inkscape:connector-curvature="0"
         style="fill:#1f1a17;fill-opacity:0.25097997" />
      <path
         id="path953"
         class="fil12"
         d="M 6.14067,3.00981 C 6.15058,3.00168 6.357296,2.850778 6.357296,2.850778 L 6.48021,2.8174398 c 0.019631,-0.00676 0.031286,-0.00307 0.036462,0.012851 0.00768,0.018473 0.015361,0.036947 0.023048,0.05542 0.00572,0.014802 6.49e-4,0.021734 -0.00933,0.025089 l -0.165154,0.051405 c -0.069245,0.026676 -0.140285,0.047679 -0.209706,0.073804 0.00169,0.00507 -8.523e-4,0.00568 -0.00696,0.012621 -0.604771,0.254859 -0.662854,0.426007 -0.639782,0.885102 l 0.106649,1.98431 H 5.556983 l -0.0939,-1.9201 c -0.038061,-0.582106 0.128227,-0.75162 0.673453,-0.980182 4.3e-5,-0.00286 0.00118,-0.00553 0.00413,-0.00795 z"
         inkscape:connector-curvature="0"
         style="fill:#1f1a17;fill-opacity:0.25097997" />
      <path
         style="fill:#1f1a17;fill-opacity:0.25097997"
         d="m 8.20987,4.30557 0.11442,4.8e-4 V 4.38236 L 8.20987,4.38188 Z"
         id="path955"
         inkscape:connector-curvature="0" />
      <path
         style="fill:#1f1a17;fill-opacity:0.25097997"
         d="m 8.39268,4.31098 0.11443,4.7e-4 V 4.38776 L 8.39268,4.38728 Z"
         id="path957"
         inkscape:connector-curvature="0" />
      <path
         style="fill:#1f1a17;fill-opacity:0.25097997"
         d="M 8.04216,3.26762 8.15658,3.2681 V 3.34441 L 8.04216,3.34394 Z"
         id="path959"
         inkscape:connector-curvature="0" />
      <path
         style="fill:#1f1a17;fill-opacity:0.25097997"
         d="m 8.22282,3.26872 0.11442,4.9e-4 V 3.34552 L 8.22282,3.34503 Z"
         id="path961"
         inkscape:connector-curvature="0" />
      <path
         style="fill:#1f1a17;fill-opacity:0.25097997"
         d="M 8.40668,3.26761 8.5211,3.26809 V 3.3444 L 8.40668,3.34392 Z"
         id="path963"
         inkscape:connector-curvature="0" />
      <path
         style="fill:#1f1a17;fill-opacity:0.25097997"
         d="m 7.96934,3.49499 0.11442,4.7e-4 V 3.57177 L 7.96934,3.5713 Z"
         id="path965"
         inkscape:connector-curvature="0" />
      <path
         style="fill:#1f1a17;fill-opacity:0.25097997"
         d="m 8.15,3.49609 0.11442,4.8e-4 V 3.57288 L 8.15,3.5724 Z"
         id="path967"
         inkscape:connector-curvature="0" />
      <path
         style="fill:#1f1a17;fill-opacity:0.25097997"
         d="m 8.40233,3.48944 0.11443,4.8e-4 V 3.56623 L 8.40233,3.56575 Z"
         id="path969"
         inkscape:connector-curvature="0" />
      <path
         style="fill:#1f1a17;fill-opacity:0.25097997"
         d="m 7.97326,3.68398 0.11442,4.8e-4 V 3.76077 L 7.97326,3.76029 Z"
         id="path971"
         inkscape:connector-curvature="0" />
      <path
         style="fill:#1f1a17;fill-opacity:0.25097997"
         d="M 8.15378,3.88636 8.2682,3.88684 V 3.96315 L 8.15378,3.96267 Z"
         id="path973"
         inkscape:connector-curvature="0" />
      <path
         style="fill:#1f1a17;fill-opacity:0.25097997"
         d="m 8.40612,3.87971 0.11442,4.8e-4 V 3.9565 L 8.40612,3.95602 Z"
         id="path975"
         inkscape:connector-curvature="0" />
      <path
         style="fill:#1f1a17;fill-opacity:0.25097997"
         d="m 8.40537,4.07105 0.11442,4.7e-4 V 4.14783 L 8.40537,4.14736 Z"
         id="path977"
         inkscape:connector-curvature="0" />
      <path
         style="fill:#1f1a17;fill-opacity:0.25097997"
         d="m 8.59038,2.88041 0.05413,2.2e-4 V 2.95694 L 8.59038,2.95672 Z"
         id="path979"
         inkscape:connector-curvature="0" />
      <path
         style="fill:#1f1a17;fill-opacity:0.25097997"
         d="m 8.5895,3.27301 0.05501,2.4e-4 V 3.34956 L 8.5895,3.34932 Z"
         id="path981"
         inkscape:connector-curvature="0" />
      <path
         style="fill:#1f1a17;fill-opacity:0.25097997"
         d="M 8.58515,3.49485 8.64451,3.4951 V 3.57141 L 8.58515,3.57116 Z"
         id="path983"
         inkscape:connector-curvature="0" />
      <path
         style="fill:#1f1a17;fill-opacity:0.25097997"
         d="m 8.58907,3.68384 0.05544,2.4e-4 V 3.76039 L 8.58907,3.76016 Z"
         id="path985"
         inkscape:connector-curvature="0" />
      <path
         style="fill:#1f1a17;fill-opacity:0.25097997"
         d="m 8.58894,3.88512 0.05557,2.3e-4 V 3.96166 L 8.58894,3.96143 Z"
         id="path987"
         inkscape:connector-curvature="0" />
      <path
         style="fill:#1f1a17;fill-opacity:0.25097997"
         d="m 8.58819,4.07645 0.05632,2.4e-4 V 4.153 L 8.58819,4.15276 Z"
         id="path989"
         inkscape:connector-curvature="0" />
      <path
         style="fill:#1f1a17;fill-opacity:0.25097997"
         d="m 8.58515,4.29531 0.05936,2.5e-4 V 4.37187 L 8.58515,4.37162 Z"
         id="path991"
         inkscape:connector-curvature="0" />
      <path
         style="fill:#1f1a17;fill-opacity:0.25097997"
         d="m 9.04086,2.58323 0.06969,-0.061 v 0.07631 l -0.06969,0.061 z"
         id="path993"
         inkscape:connector-curvature="0" />
      <path
         style="fill:#1f1a17;fill-opacity:0.25097997"
         d="m 8.93891,2.87315 0.0697,-0.061 v 0.0763 l -0.0697,0.06101 z"
         id="path995"
         inkscape:connector-curvature="0" />
      <path
         style="fill:#1f1a17;fill-opacity:0.25097997"
         d="M 9.04895,2.77717 9.11864,2.71618 V 2.79249 L 9.04895,2.85348 Z"
         id="path997"
         inkscape:connector-curvature="0" />
      <path
         style="fill:#1f1a17;fill-opacity:0.25097997"
         d="m 8.94207,3.06047 0.0697,-0.061 v 0.07631 l -0.0697,0.061 z"
         id="path999"
         inkscape:connector-curvature="0" />
      <path
         style="fill:#1f1a17;fill-opacity:0.25097997"
         d="M 8.95017,3.25441 9.01986,3.19342 V 3.26973 L 8.95017,3.33072 Z"
         id="path1001"
         inkscape:connector-curvature="0" />
      <path
         style="fill:#1f1a17;fill-opacity:0.25097997"
         d="m 9.15364,2.49229 0.06969,-0.061 V 2.5076 l -0.06969,0.061 z"
         id="path1003"
         inkscape:connector-curvature="0" />
      <path
         style="fill:#1f1a17;fill-opacity:0.25097997"
         d="M 9.16173,2.68623 9.23143,2.62524 V 2.70155 L 9.16173,2.76254 Z"
         id="path1005"
         inkscape:connector-curvature="0" />
      <path
         style="fill:#1f1a17;fill-opacity:0.25097997"
         d="m 9.16489,2.87356 0.0697,-0.06101 v 0.07631 l -0.0697,0.061 z"
         id="path1007"
         inkscape:connector-curvature="0" />
      <path
         style="fill:#1f1a17;fill-opacity:0.25097997"
         d="M 9.34498,2.4345 9.41467,2.49282 V 2.56913 L 9.34498,2.51081 Z"
         id="path1009"
         inkscape:connector-curvature="0" />
      <path
         style="fill:#1f1a17;fill-opacity:0.25097997"
         d="m 9.35307,2.64231 0.0697,0.05831 V 2.77693 L 9.35307,2.71862 Z"
         id="path1011"
         inkscape:connector-curvature="0" />
      <path
         style="fill:#1f1a17;fill-opacity:0.25097997"
         d="m 9.35623,2.83505 0.0697,0.05831 V 2.96967 L 9.35623,2.91136 Z"
         id="path1013"
         inkscape:connector-curvature="0" />
      <path
         style="fill:#1f1a17;fill-opacity:0.25097997"
         d="M 9.46628,2.92746 9.53597,2.98578 V 3.06209 L 9.46628,3.00377 Z"
         id="path1015"
         inkscape:connector-curvature="0" />
      <path
         style="fill:#1f1a17;fill-opacity:0.25097997"
         d="m 9.36433,3.04285 0.0697,0.05832 V 3.17748 L 9.36433,3.11916 Z"
         id="path1017"
         inkscape:connector-curvature="0" />
      <path
         style="fill:#1f1a17;fill-opacity:0.25097997"
         d="m 9.47437,3.13527 0.0697,0.05832 v 0.0763 L 9.47437,3.21158 Z"
         id="path1019"
         inkscape:connector-curvature="0" />
      <path
         style="fill:#1f1a17;fill-opacity:0.25097997"
         d="m 9.7291,2.66909 0.11442,4.8e-4 V 2.74588 L 9.7291,2.7454 Z"
         id="path1021"
         inkscape:connector-curvature="0" />
      <path
         style="fill:#1f1a17;fill-opacity:0.25097997"
         d="m 9.73301,2.85809 0.11442,4.8e-4 V 2.93488 L 9.73301,2.9344 Z"
         id="path1023"
         inkscape:connector-curvature="0" />
      <path
         style="fill:#1f1a17;fill-opacity:0.25097997"
         d="m 9.91367,2.85919 0.11443,4.8e-4 V 2.93598 L 9.91367,2.9355 Z"
         id="path1025"
         inkscape:connector-curvature="0" />
      <path
         style="fill:#1f1a17;fill-opacity:0.25097997"
         d="m 7.97456,2.88055 0.11442,4.7e-4 V 2.95733 L 7.97456,2.95686 Z"
         id="path1027"
         inkscape:connector-curvature="0" />
      <path
         style="fill:#1f1a17;fill-opacity:0.25097997"
         d="m 8.15522,2.88165 0.11442,4.8e-4 V 2.95844 L 8.15522,2.95796 Z"
         id="path1029"
         inkscape:connector-curvature="0" />
      <path
         id="path1031"
         class="fil12"
         d="m 12.5433,3.85621 c 0,0 -0.158914,0.354334 -0.06428,0.568461 0.09464,0.214131 0.171074,0.33902 0.0275,0.623096 -0.02512,0.0497 -0.03872,0.18303 0.0043,0.305279 0.05173,0.147017 0.0059,0.276362 0.0059,0.276304 -0.0035,-0.216376 -0.125721,-0.483316 -0.09426,-0.594782 0.02583,-0.091511 0.0619,-0.082276 0.08806,-0.215867 0.02696,-0.137677 -0.0522,-0.216313 -0.121663,-0.496444 -0.0351,-0.141544 0.09769,-0.438061 0.154434,-0.466046 z"
         inkscape:connector-curvature="0"
         style="fill:#1f1a17;fill-opacity:0.25097997" />
      <path
         id="path1033"
         class="fil14"
         d="m 12.3202,4.94339 c 0,0 0.07752,0.083019 -0.04321,0.168521 -0.12072,0.085498 -0.05556,0.31293 0.0074,0.416334 0.03462,0.056929 0.02648,0.083187 0.0066,0.125189 -0.02558,0.054017 -0.06679,0.109316 -0.05166,0.092621 0.05004,-0.05524 0.136629,-0.059897 0.126886,-0.168493 -0.008,-0.088817 -0.05099,-0.111755 -0.07714,-0.222576 -0.02695,-0.11423 0.0086,-0.114465 0.07805,-0.180918 0.03509,-0.033577 0.0098,-0.139034 -0.04689,-0.230677 z"
         inkscape:connector-curvature="0"
         style="fill:#1f1a17;fill-opacity:0.38823499" />
      <path
         id="path1035"
         class="fil12"
         d="m 14.6041,2.82519 c 0,0 -0.158914,0.467591 -0.06428,0.750158 0.09464,0.282571 0.171074,0.447377 0.02751,0.822253 -0.02512,0.065586 -0.03872,0.241527 0.0043,0.40285 0.05173,0.194008 0.0059,0.364695 0.0059,0.364616 -0.0035,-0.285531 -0.125721,-0.637792 -0.09426,-0.784888 0.02583,-0.120759 0.0619,-0.108573 0.08805,-0.284862 0.02697,-0.181685 -0.0522,-0.285452 -0.121659,-0.65512 -0.0351,-0.186783 0.09769,-0.578075 0.154434,-0.615007 z"
         inkscape:connector-curvature="0"
         style="fill:#1f1a17;fill-opacity:0.25097997" />
      <path
         id="path1037"
         class="fil12"
         d="m 14.4269,4.16083 c 0,0 0.07751,0.109554 -0.04322,0.222385 -0.12072,0.112823 -0.05556,0.412948 0.0074,0.549405 0.03463,0.075125 0.02648,0.109777 0.0066,0.165201 C 14.3721,5.169103 14.3309,5.242078 14.34602,5.220043 14.39606,5.147146 14.482653,5.141 14.472906,4.997697 c -0.008,-0.117202 -0.05099,-0.147471 -0.07713,-0.293714 -0.02695,-0.150743 0.0086,-0.151052 0.07805,-0.238747 0.03509,-0.044313 0.0098,-0.183475 -0.04689,-0.304407 z"
         inkscape:connector-curvature="0"
         style="fill:#1f1a17;fill-opacity:0.25097997" />
      <path
         id="path1039"
         class="fil12"
         d="m 14.2495,4.58535 c 0,0 -0.0492,0.109554 0.02743,0.222385 0.07661,0.112823 0.03526,0.412948 -0.0047,0.549405 -0.02198,0.075125 -0.01681,0.109773 -0.0042,0.165197 0.01623,0.071282 0.04239,0.144261 0.03279,0.122226 C 14.26906,5.571666 14.21411,5.56552 14.22029,5.422217 14.22539,5.305011 14.25265,5.274742 14.26924,5.128499 14.28635,4.977756 14.26374,4.977447 14.21971,4.889756 14.19744,4.845443 14.21351,4.706281 14.24947,4.585349 Z"
         inkscape:connector-curvature="0"
         style="fill:#1f1a17;fill-opacity:0.25097997" />
      <path
         id="path1041"
         class="fil2"
         d="m 11.5405,4.02694 v 0.463282 h 0.0085 c 0.08549,0 0.15115,-0.020342 0.197441,-0.061031 0.04581,-0.040688 0.06896,-0.098021 0.06896,-0.171996 0,-0.07398 -0.02314,-0.13085 -0.06896,-0.170612 C 11.700151,4.046821 11.634494,4.02694 11.549,4.02694 Z M 10.921728,5.47227 V 3.50262 h 0.774648 c 0.239005,0 0.422273,0.049008 0.548862,0.147029 0.127062,0.098021 0.190356,0.239502 0.190356,0.424447 0,0.113742 -0.02551,0.213146 -0.07699,0.298222 -0.05101,0.084614 -0.125643,0.151654 -0.223417,0.200201 L 12.497942,5.390897 11.848467,5.47227 11.540498,4.636325 v 0.788324 l -0.618772,0.04762 z"
         inkscape:connector-curvature="0"
         style="fill:#ffffff;fill-rule:nonzero" />
      <path
         id="path1043"
         class="fil2"
         d="m 13.0361,3.55355 0.608782,-0.046467 v 1.22161 c 0,0.061805 0.01014,0.106915 0.03088,0.135785 0.02074,0.02842 0.053,0.042854 0.09632,0.042854 0.04378,0 0.07604,-0.014435 0.09632,-0.042854 0.02028,-0.028869 0.03042,-0.07398 0.03042,-0.135785 v -1.17514 l 0.595419,-0.046467 v 1.24822 c 0,0.23187 -0.06037,0.405098 -0.181575,0.520579 -0.121205,0.115485 -0.303242,0.173228 -0.54611,0.173228 -0.242868,0 -0.425366,-0.057743 -0.547494,-0.173228 C 13.09693,5.160404 13.036099,4.987176 13.036099,4.755306 v -1.20176 z"
         inkscape:connector-curvature="0"
         style="fill:#ffffff;fill-rule:nonzero" />
      <path
         id="path1045"
         class="fil12"
         d="M 5.70955,5.91831 V 4.975689 L 6.449711,4.7462 H 6.656699 V 5.91763 Z M 6.83228,4.7462 h 0.746271 l 0.00785,-2.19067 h 1.05811 V 5.59344 H 6.832281 V 4.746192 Z M 8.8359,2.51926 9.33462,2.093988 l 0.481286,0.461351 0.535585,0.151932 8.6e-4,2.02501 0.16266,0.01395 0.0075,1.05369 H 8.8359004 Z"
         inkscape:connector-curvature="0"
         style="fill:#1f1a17;fill-opacity:0.25097997" />
      <path
         id="path1047"
         class="fil12"
         d="m 17.3216,4.26548 0.05412,1.45672 h 1.19606 L 18.55983,3.84921 18.560393,2.59719 18.474743,2.507368 C 18.383943,2.394424 18.249727,2.493672 18.266394,2.35831 L 18.299684,2.087851 18.113304,1.92846 18.138474,1.642562 17.943629,1.43962 17.925239,1.151165 h -0.0654 l -0.0239,0.296138 -0.185931,0.198899 0.006,0.281175 -0.196936,0.154692 0.01196,0.154536 0.0016,0.020671 H 16.91278 l -0.03769,0.083273 v 3.38166 h 0.361723 v -1.45727 l 0.08483,5.513e-4 z m -0.629015,1.62529 h -1.8046 V 5.198206 l 0.04529,-0.04271 0.166132,5.08e-5 0.134111,-0.134694 -0.345537,3.597e-4 v -0.119981 l 0.106763,-0.100691 0.457988,1.447e-4 0.122671,-0.123082 -0.687422,7.194e-4 v -0.110778 l 0.116529,-0.109906 0.789732,2.424e-4 0.124614,-0.125099 -1.03088,0.00108 V 4.226384 l 0.119981,-0.113202 0.482643,1.485e-4 0.390937,-0.510164 -0.138815,1.916e-4 0.180074,-0.220805 0.127734,5.08e-5 0.10326,-0.134694 -0.363792,4.926e-4 0.18016,-0.220801 0.35223,1.408e-4 0.09442,-0.123078 -0.619299,8.406e-4 0.180097,-0.220809 0.719298,2.268e-4 -0.0043,3.20585 z m -0.153367,-3.33074 -0.739035,0.001 0.180097,-0.220801 0.716628,2.229e-4 -0.157691,0.219574 z"
         inkscape:connector-curvature="0"
         style="fill:#1f1a17;fill-opacity:0.25097997" />
      <path
         style="fill:#ffffff;fill-rule:nonzero"
         d="M 8.93428,5.45979 V 3.53129 L 9.55825,3.48135 V 4.28817 L 9.88464,3.47303 10.5421,3.53684 10.1586,4.38296 10.6073,5.40153 9.91817,5.45979 9.55825,4.48606 v 0.91547 z"
         id="path1049"
         inkscape:connector-curvature="0" />
      <path
         id="path1051"
         class="fil2"
         d="M 8.56392,5.28997 C 8.449052,5.343295 8.336879,5.383623 8.226941,5.410507 8.117011,5.43784 8.010217,5.451285 7.906567,5.451285 7.77375,5.451285 7.648115,5.428433 7.530104,5.383174 7.412093,5.3374696 7.307547,5.2715982 7.215559,5.1846702 7.1199859,5.0937067 7.048196,4.9884062 6.999735,4.8687652 6.951724,4.7495732 6.927491,4.6169362 6.927491,4.4717572 c 0,-0.144284 0.024232,-0.276472 0.072244,-0.395667 0.048461,-0.119641 0.120251,-0.224942 0.215824,-0.315901 0.091988,-0.087828 0.196534,-0.153699 0.314545,-0.198954 0.118011,-0.045259 0.243646,-0.067662 0.376463,-0.067662 0.126534,0 0.240956,0.017922 0.344607,0.05377 0.103201,0.035848 0.201468,0.091409 0.294351,0.166691 L 8.238162,4.171089 C 8.1879065,4.1280704 8.136302,4.096257 8.082461,4.0756449 8.0286164,4.0550329 7.969838,4.0447268 7.907016,4.0447268 c -0.117561,0 -0.211789,0.038984 -0.283134,0.116951 -0.071345,0.077968 -0.10724,0.181028 -0.10724,0.31008 0,0.123223 0.035895,0.225837 0.10724,0.30784 0.071345,0.081999 0.15929,0.122777 0.264739,0.122777 0.015701,0 0.032306,-0.00134 0.050252,-0.00403 0.01795,-0.00269 0.035449,-0.00627 0.05205,-0.011651 V 4.714622 H 7.715866 L 7.820865,4.286695 h 0.743054 v 1.00328 z"
         inkscape:connector-curvature="0"
         style="fill:#ffffff;fill-rule:nonzero" />
      <path
         style="fill:#1f1a17;fill-opacity:0.25097997"
         d="M 1.21732,5.05036 H 1.51394 V 5.30283 H 1.21732 Z"
         id="path1053"
         inkscape:connector-curvature="0" />
      <path
         id="path1055"
         class="fil2"
         d="M 2.46155,4.13294 C 2.4062861,4.1047353 2.351491,4.0839278 2.297647,4.0705213 2.2433254,4.057111 2.190423,4.050179 2.137521,4.050179 c -0.135562,0 -0.247036,0.04115 -0.333949,0.123911 -0.087382,0.082761 -0.130839,0.190032 -0.130839,0.321801 0,0.134549 0.044403,0.242739 0.132731,0.324577 0.088801,0.081838 0.205467,0.122527 0.350006,0.122527 0.058098,0 0.114308,-0.0074 0.16768,-0.022195 C 2.376526,4.905544 2.428486,4.882426 2.47808,4.850984 L 2.396367,5.472395 C 2.345822,5.483491 2.295754,5.491815 2.24616,5.497824 2.197034,5.503834 2.148859,5.506614 2.101622,5.506614 1.789877,5.506614 1.536699,5.413215 1.342093,5.225959 1.147491,5.039168 1.050186,4.795964 1.050186,4.495893 1.050186,4.346088 1.075693,4.209232 1.126234,4.085318 1.177244,3.961869 1.252823,3.853675 1.353432,3.761668 1.447425,3.673355 1.555123,3.605854 1.676042,3.559152 1.797435,3.512454 1.925912,3.489336 2.061474,3.489336 c 0.061879,0 0.118085,0.00324 0.169099,0.010173 0.050541,0.00694 0.099194,0.01757 0.145011,0.031903 l 0.085967,0.60153 z"
         inkscape:connector-curvature="0"
         style="fill:#ffffff;fill-rule:nonzero" />
      <path
         id="path1057"
         class="fil2"
         d="M 14.9628,3.9596 C 14.94372,3.939223 14.92955,3.915447 14.92059,3.888279 14.91159,3.86111 14.907,3.828843 14.907,3.791205 c 0,-0.05689 0.01041,-0.114062 0.03123,-0.17123 0.02111,-0.057172 0.05349,-0.11717 0.09744,-0.180285 l 0.220319,0.014149 -0.06101,0.165854 c -0.0107,0.028584 -0.01879,0.054623 -0.024,0.077831 -0.0055,0.023208 -0.0081,0.0433 -0.0081,0.059717 0,0.024338 0.0058,0.048113 0.01764,0.07104 0.01185,0.022923 0.02978,0.044434 0.05349,0.065093 z"
         inkscape:connector-curvature="0"
         style="fill:#ffffff;fill-rule:nonzero" />
      <path
         id="path1059"
         class="fil2"
         d="m 15.6626,4.62182 h 0.234912 L 15.784951,4.061374 Z m -0.693811,0.781142 0.527042,-1.89563 h 0.593675 l 0.517256,1.89563 -0.537207,0.049454 -0.07943,-0.335626 h -0.41373 l -0.08282,0.335626 z"
         inkscape:connector-curvature="0"
         style="fill:#ffffff;fill-rule:nonzero" />
      <path
         style="fill:#ffffff;fill-rule:nonzero"
         d="M 17.008,5.44279 V 3.50828 h 0.5388 l 0.5121,0.89088 V 3.51377 L 18.5977,3.47764 V 5.41215 H 18.0589 L 17.5468,4.49566 v 0.90597 z"
         id="path1061"
         inkscape:connector-curvature="0" />
      <path
         id="path1063"
         class="fil12"
         d="M 4.3884,3.45839 C 4.39048,4.190149 4.39256,4.92193 4.39464,5.65374 H 4.656001 V 2.85559 L 4.53159,2.968288 4.543554,3.146501 4.555275,3.320902 C 4.561495,3.413398 4.445396,3.407143 4.3884,3.45839 Z M 4.838635,5.91828 H 5.631721 L 5.6323857,5.006139 5.6329526,3.562329 5.5472946,3.458745 C 5.4564992,3.328497 5.3222786,3.4429536 5.3389456,3.286854 L 5.3722408,2.974964 5.1858568,2.791156 5.2110276,2.461461 5.0161826,2.227433 4.9689336,1.3728 4.9084936,2.236293 4.8386346,2.322467 v 3.59582 z"
         inkscape:connector-curvature="0"
         style="fill:#1f1a17;fill-opacity:0.25097997" />
      <path
         id="path1065"
         class="fil2"
         d="M 3.62181,4.62156 H 3.856722 L 3.744161,4.061114 Z M 2.927995,5.40271 3.455037,3.50708 H 4.048716 L 4.565972,5.40271 4.028765,5.45216 3.949331,5.116534 H 3.535601 L 3.452778,5.45216 Z"
         inkscape:connector-curvature="0"
         style="fill:#ffffff;fill-rule:nonzero" />
      <path
         id="path1067"
         class="fil12"
         d="M 6.77796,3.86447 C 6.78626,3.85873 6.959246,3.752116 6.959246,3.752116 L 7.062111,3.728564 c 0.016429,-0.00477 0.02618,-0.00217 0.030515,0.00908 0.00643,0.013055 0.012851,0.026105 0.019283,0.039152 0.00479,0.010458 5.435e-4,0.015357 -0.0078,0.017727 L 6.965897,3.83084 C 6.907951,3.849685 6.8485,3.864526 6.790405,3.88298 6.791825,3.88656 6.7896895,3.88699 6.784585,3.8919 6.278476,4.071958 6.22987,4.192866 6.249176,4.517217 l 0.089251,1.40189 H 6.289509 L 6.210928,4.562577 C 6.179075,4.151325 6.318238,4.031563 6.774514,3.870088 c 3.52e-5,-0.00202 9.853e-4,-0.00391 0.00345,-0.00562 z"
         inkscape:connector-curvature="0"
         style="fill:#1f1a17;fill-opacity:0.25097997" />
      <path
         style="fill:#ffffff;fill-rule:nonzero"
         d="M 4.93768,5.45989 V 3.52908 H 5.49093 L 6.01682,4.41826 V 3.53456 L 6.57007,3.4985 V 5.42931 H 6.01682 L 5.49093,4.51457 v 0.90424 z"
         id="path1069"
         inkscape:connector-curvature="0" />
    </g>
  </g>
</svg>
