<?xml version="1.0" encoding="UTF-8" standalone="no"?>
<!-- Created with Inkscape (http://www.inkscape.org/) -->

<svg
   xmlns:dc="http://purl.org/dc/elements/1.1/"
   xmlns:cc="http://creativecommons.org/ns#"
   xmlns:rdf="http://www.w3.org/1999/02/22-rdf-syntax-ns#"
   xmlns:svg="http://www.w3.org/2000/svg"
   xmlns="http://www.w3.org/2000/svg"
   xmlns:sodipodi="http://sodipodi.sourceforge.net/DTD/sodipodi-0.dtd"
   xmlns:inkscape="http://www.inkscape.org/namespaces/inkscape"
   width="46.088116mm"
   height="27.011059mm"
   viewBox="0 0 46.088117 27.011059"
   version="1.1"
   id="svg8"
   inkscape:version="0.92.4 5da689c313, 2019-01-14"
   sodipodi:docname="model-2-monochrome.svg"
   inkscape:export-filename="/home/hervyqa/hervyqa-gh/artwork-documentation/stiker-klas/model-2.png"
   inkscape:export-xdpi="626.72101"
   inkscape:export-ydpi="626.72101">
  <defs
     id="defs2">
    <inkscape:path-effect
       effect="bend_path"
       id="path-effect2749"
       is_visible="true"
       bendpath="m 63.599609,408.875 c 82.096221,19.66337 164.664451,17.37694 246.875001,0"
       prop_scale="1"
       scale_y_rel="false"
       vertical="false"
       bendpath-nodetypes="cc" />
    <inkscape:path-effect
       effect="bend_path"
       id="path-effect1322"
       is_visible="true"
       bendpath="m 31.355469,355.97559 c 66.115094,17.68008 130.255421,13.63778 193.523441,0"
       prop_scale="1"
       scale_y_rel="false"
       vertical="false"
       bendpath-nodetypes="cc" />
    <clipPath
       clipPathUnits="userSpaceOnUse"
       id="clipPath2047">
      <path
         style="fill:none;stroke:#000000;stroke-width:0.26458332px;stroke-linecap:butt;stroke-linejoin:miter;stroke-opacity:1"
         d="m -184.41597,160.42527 c 0,0 22.71791,-8.55263 39.82316,-5.87993 17.10525,2.67269 31.80507,4.81085 33.67596,5.34539 1.87088,0.53454 10.958047,-0.80181 11.759859,-7.21628 0.801804,-6.41447 1.870882,-27.79603 -4.810849,-36.88319 -6.68174,-9.08717 -32.87416,-31.270535 -32.87416,-31.270535 0,0 -11.22532,-3.741772 -16.57071,-1.603618 -5.34539,2.138156 -24.85606,5.612659 -26.19241,15.234364 -1.33635,9.621699 -0.53454,12.561669 -4.54358,24.321529 -4.00904,11.75985 -10.42351,23.25244 -9.08717,26.45968 1.33635,3.20724 2.6727,9.6217 4.81086,11.75986 2.13815,2.13816 4.00904,-0.26727 4.00904,-0.26727 z"
         id="path2049"
         inkscape:connector-curvature="0" />
    </clipPath>
  </defs>
  <sodipodi:namedview
     id="base"
     pagecolor="#ffffff"
     bordercolor="#666666"
     borderopacity="1.0"
     inkscape:pageopacity="0.0"
     inkscape:pageshadow="2"
     inkscape:zoom="2.5155886"
     inkscape:cx="87.929155"
     inkscape:cy="51.920399"
     inkscape:document-units="mm"
     inkscape:current-layer="layer1"
     showgrid="false"
     inkscape:window-width="1346"
     inkscape:window-height="724"
     inkscape:window-x="6"
     inkscape:window-y="30"
     inkscape:window-maximized="1"
     inkscape:snap-global="false"
     inkscape:pagecheckerboard="true" />
  <metadata
     id="metadata5">
    <rdf:RDF>
      <cc:Work
         rdf:about="">
        <dc:format>image/svg+xml</dc:format>
        <dc:type
           rdf:resource="http://purl.org/dc/dcmitype/StillImage" />
        <dc:title></dc:title>
      </cc:Work>
    </rdf:RDF>
  </metadata>
  <g
     inkscape:label="Layer 1"
     inkscape:groupmode="layer"
     id="layer1"
     transform="translate(-125.03667,-73.498406)">
    <g
       id="g1398">
      <path
         id="path3885"
         transform="matrix(0.26458333,0,0,0.26458333,125.03667,73.498406)"
         d="M 128.08594 3.0625 C 126.43799 3.1709992 126.14493 4.9043264 126.48242 5.7480469 C 126.76038 6.4429515 126.81596 6.5761718 126.91406 6.8183594 C 126.68748 6.8358303 126.45892 6.8441461 126.23438 6.8710938 C 121.60353 7.4267945 119.30393 10.778362 118.20898 13.859375 C 117.53647 14.23885 111.82983 17.537546 111.2207 20.970703 C 110.62221 24.344112 116.31553 22.244719 117.18945 21.90625 C 115.96932 23.96795 115.55578 26.278726 116.43359 28.705078 C 115.7277 29.223133 113.1148 31.214186 113.58594 32.083984 C 113.95973 32.774061 116.44646 32.614419 117.97656 32.453125 C 118.06934 32.690316 118.62709 34.110169 118.84375 34.394531 C 118.96852 34.55822 119.13436 34.779316 119.2793 34.962891 C 118.91415 34.976565 118.49849 35.005307 117.96094 35.070312 C 116.79949 35.210766 114.92478 35.7383 112.82812 36.603516 C 113.09886 37.004245 113.34143 37.383901 113.78906 38.140625 C 113.77163 37.762799 113.7575 37.418811 113.75586 37.238281 C 118.01517 35.649675 120.89105 35.430895 121.01562 35.333984 C 121.01562 35.333984 121.04705 35.067786 120.23828 34.978516 C 119.81875 34.427177 118.74486 32.810683 118.47656 32.404297 C 118.62591 32.386162 118.64118 32.382983 118.74414 32.369141 C 118.98339 32.632605 119.23013 32.895715 119.50391 33.160156 C 120.35509 33.982314 121.18 34.673582 121.9707 35.271484 C 121.87353 35.447997 120.15659 38.564391 118.07617 42.318359 L 115.98047 39.5625 L 115.94922 40.474609 C 115.94922 40.474609 116.86194 42.591971 117.33594 43.650391 C 117.16917 43.950857 117.00717 44.240908 116.84375 44.535156 C 117.00139 44.957584 117.15411 45.388733 117.30078 45.832031 L 122.1875 37.335938 C 122.72159 38.82569 124.12668 41.990503 127.08203 44.380859 C 131.0765 47.611679 139.71044 44.438224 148.4043 38.740234 C 149.44657 38.057124 150.43465 37.435002 151.37695 36.857422 C 152.11113 37.37619 152.88837 37.953933 153.72656 38.652344 C 154.70979 39.471585 155.64735 40.394915 156.51172 41.378906 C 156.07917 41.781382 155.38546 42.411486 154.24219 43.412109 C 152.06718 45.31582 148.86133 45.873047 148.86133 45.873047 L 148.85547 45.910156 C 148.26654 43.840268 147.625 41.429688 147.625 41.429688 C 146.25802 42.825764 147.99345 47.375088 148.3457 50.429688 C 148.64564 53.029239 148.07996 56.931342 147.89648 58.091797 C 147.25643 58.460608 146.67959 58.880733 146.34766 59.308594 C 146.25865 59.487496 146.17138 59.666852 146.08203 59.845703 C 146.05186 59.997851 146.05256 60.149333 146.11719 60.296875 C 146.32822 60.778644 146.86844 60.932426 147.43164 60.955078 L 147.35547 61.753906 C 146.88655 62.422406 146.69461 63.446134 146.90039 63.904297 C 146.94579 64.005382 147.03185 64.068183 147.13086 64.115234 L 146.81641 67.447266 C 147.36116 67.628146 147.8881 67.828113 148.37305 68.072266 L 148.39062 65.515625 C 148.68702 65.686404 149.05273 65.736328 149.05273 65.736328 C 149.05273 65.736328 148.53278 66.383732 149.62109 66.646484 C 150.70941 66.909245 156.44274 64.185982 158.64844 61.847656 C 160.85406 59.509312 163.92224 54.262306 161.76953 48.009766 C 160.1046 43.173962 155.56836 38.730598 152.25781 36.332031 C 157.90453 32.946697 161.3194 31.562246 162.06445 31.277344 C 164.64859 32.078152 166.31641 30.962891 166.31641 30.962891 L 167.02344 30.962891 L 167.60547 31.314453 C 168.18699 31.667525 172.63006 32.665019 173.62695 29.009766 C 174.17249 27.009475 174.33409 24.990454 173.92188 23.240234 C 174.0032 23.059825 174.0763 22.807218 174.12695 22.447266 C 174.33464 20.972702 174.08526 18.812581 172.81836 19.041016 C 172.3493 19.125602 171.93656 19.364228 171.60352 19.630859 C 171.59967 19.62806 171.59567 19.625824 171.5918 19.623047 C 170.20029 18.626166 167.95787 18.324003 165.54883 18.396484 C 163.13979 18.468965 160.56378 18.914756 158.50781 19.414062 C 156.66253 19.862202 155.5917 20.12472 153.43359 20.652344 C 153.54959 20.221315 153.56103 19.450257 152.56055 18.548828 C 151.41418 17.515966 149.48648 18.249562 148.6543 18.642578 C 148.66707 17.883232 148.59338 17.081171 148.37305 16.257812 C 147.60998 13.406356 144.74885 9.8290104 141.55664 10.044922 C 140.94277 9.7504278 138.50931 8.6392659 135.07617 7.7363281 C 134.28111 6.8021451 131.82141 4.0725314 129.45312 3.2773438 C 128.91966 3.0982161 128.46623 3.0374617 128.08594 3.0625 z M 128.25781 3.9257812 C 128.38677 3.9152425 128.52634 3.916733 128.67383 3.9316406 C 129.65708 4.0310249 131.00593 4.6877007 132.07031 5.7910156 C 132.86798 6.6178632 133.28862 7.0685761 133.5625 7.3652344 C 131.74485 6.9754181 129.79724 6.7212237 127.875 6.7636719 C 127.56473 6.1711397 127.08352 5.0721163 127.4375 4.3789062 C 127.57769 4.1043738 127.87094 3.9573977 128.25781 3.9257812 z M 128.62305 7.8261719 C 131.12565 7.8054034 133.54503 8.3663975 135.24805 8.7402344 C 137.79275 9.2988282 139.52246 10.016824 140.23633 10.345703 C 137.60187 11.391728 136.36914 14.638672 136.36914 14.638672 C 136.36914 14.638672 134.37452 12.06317 131.30078 10.609375 C 128.22704 9.1555797 125.44517 11.480676 126.23438 15.509766 C 126.49321 16.831306 126.8081 17.726259 127.11719 18.371094 C 126.13163 17.945576 121.99638 16.414708 118.91602 19.650391 C 118.74872 19.826122 118.59334 20.006498 118.4375 20.1875 C 118.28157 18.577919 118.09986 13.659876 121.49805 10.400391 C 123.53336 8.4481505 126.12044 7.8469404 128.62305 7.8261719 z M 141.65234 10.681641 C 142.59459 10.720679 143.7495 11.341045 145.25781 12.976562 C 148.70538 16.714897 147.52163 21.428446 146.73242 22.072266 C 145.94322 22.716112 143.28516 22.861328 143.28516 22.861328 C 143.28516 22.861328 146.10593 23.995617 147.1543 23.154297 C 148.70941 22.690318 160.65274 19.1725 166.26172 19.0625 C 168.48272 19.018951 170.04493 19.392082 171.14258 20.076172 C 170.87658 20.367641 170.69922 20.619141 170.69922 20.619141 L 171.42383 20.972656 C 171.42383 20.972656 171.52786 20.308124 172.10938 19.955078 C 172.69087 19.602017 173.45908 19.683842 173.625 20.597656 C 173.7913 21.51147 173.33657 23.028643 173.35547 23.236328 C 173.37727 23.436009 173.33887 23.61064 173.33594 23.625 C 173.33254 23.625366 173.32958 23.628693 173.32617 23.628906 C 173.32503 23.628978 173.32342 23.626904 173.32227 23.626953 C 173.43678 24.32085 173.47629 25.074614 173.45898 25.876953 C 173.37088 29.959531 171.93188 30.310942 170.28711 30.927734 C 168.64233 31.544531 167.52539 30.193359 167.52539 30.193359 L 165.93945 30.193359 C 165.93945 30.193359 165.38128 30.868683 163.67773 31.044922 C 161.97423 31.22115 160.53563 29.311883 156.48242 28.783203 C 152.42922 28.254527 146.04671 27.721613 138.90234 27.804688 C 132.93784 27.87404 128.34081 24.893962 126.91602 23.863281 C 128.02182 24.021625 128.41406 23.755859 128.41406 23.755859 C 128.18578 23.672785 127.16799 22.53067 125.29883 22.34375 C 123.42966 22.156852 122.91016 23.319989 122.91016 23.423828 C 122.91016 23.521505 123.91225 23.169718 125.60352 23.576172 C 125.89548 23.9901 126.37301 24.533097 127.19336 25.132812 C 127.09479 25.312153 126.96499 25.581868 126.75781 26.111328 C 126.22913 27.4624 128.13806 28.842713 129.16602 28.490234 C 129.9442 28.223432 130.80251 27.515449 131.26562 27.115234 C 131.41674 27.165193 131.55822 27.217011 131.7168 27.265625 C 133.49959 27.812174 135.07623 28.103319 136.63281 28.277344 C 136.37401 29.821297 137.16648 30.450113 138.24219 30.251953 C 139.05535 30.102159 139.82682 29.059205 140.19141 28.498047 C 142.5416 28.552614 145.08538 28.50821 148.45703 28.677734 C 151.25976 28.818654 153.405 29.042151 155.14648 29.326172 C 154.94496 29.867694 154.72376 30.798862 155.55859 31.003906 C 156.44177 31.220829 157.37982 30.340473 157.80078 29.878906 C 158.89957 30.160024 159.81932 30.480812 160.70703 30.8125 C 160.25973 30.959727 159.42231 31.269561 157.68555 31.986328 C 153.98478 33.513628 150.81285 37.155227 137.53711 42.970703 C 125.59007 48.204142 123.27007 38.056705 122.92188 35.957031 C 126.45183 38.364549 129.01758 38.6875 129.01758 38.6875 C 129.01758 38.6875 122.12166 35.158004 118.96484 30.505859 C 115.80803 25.853711 117.76062 20.203923 122.20508 19.207031 C 125.33627 18.504708 126.91072 18.893539 127.58008 19.185547 C 128.01555 19.783825 128.35156 19.871094 128.35156 19.871094 C 128.35156 19.871094 125.44541 11.855343 129.64062 11.398438 C 133.83586 10.94153 136.65625 16.478516 136.65625 16.478516 C 136.65625 16.478516 137.33228 14.156583 138.77148 12.482422 C 139.58102 11.540713 140.44089 10.631448 141.65234 10.681641 z M 145.79688 15.230469 C 145.21168 15.182893 144.12868 15.611423 143.00586 16.505859 C 140.7604 18.294732 140.45508 19.816406 140.45508 19.816406 C 140.60059 20.07103 141.38767 19.847698 142.35352 19.333984 A 1.4558404 0.74219315 80.57588 0 0 142.36719 19.433594 A 1.4558404 0.74219315 80.57588 0 0 142.89062 20.572266 C 142.06182 21.292518 141.86328 21.986328 141.86328 21.986328 C 141.69199 22.405002 142.47209 22.157417 143.86133 20.939453 C 145.07417 19.876151 144.79286 19.451618 143.85352 19.917969 A 1.4558404 0.74219315 80.57588 0 0 143.83203 19.191406 A 1.4558404 0.74219315 80.57588 0 0 143.63477 18.533203 C 144.33397 18.039818 145.03283 17.456816 145.59375 16.810547 C 146.46916 15.801933 146.38205 15.278044 145.79688 15.230469 z M 117.75781 15.351562 C 117.46449 16.526791 117.33483 17.576129 117.30273 18.292969 C 117.26724 19.08503 117.25371 19.738646 117.25 20.3125 C 116.55892 20.784593 113.9343 22.491164 112.80859 21.851562 C 111.51626 21.117282 113.86446 18.504227 115.71484 16.830078 C 116.71315 15.92685 117.35715 15.535217 117.75781 15.351562 z M 132.36523 15.447266 C 131.7266 15.499186 131.63449 16.071144 132.58984 17.171875 C 133.20174 17.876884 133.96186 18.514417 134.72461 19.052734 A 0.80997168 1.5887907 9.4241187 0 0 134.50977 19.769531 A 0.80997168 1.5887907 9.4241187 0 0 134.48828 20.564453 C 133.46267 20.055035 133.15468 20.517105 134.47852 21.677734 C 135.99464 23.006926 136.84705 23.27722 136.66016 22.820312 C 136.66016 22.820312 136.44399 22.063494 135.53906 21.277344 A 0.80997168 1.5887907 9.4241187 0 0 136.10938 20.035156 A 0.80997168 1.5887907 9.4241187 0 0 136.125 19.925781 C 137.17907 20.486428 138.03848 20.731008 138.19727 20.453125 C 138.19727 20.453125 137.86482 18.792079 135.41406 16.839844 C 134.18872 15.863726 133.00387 15.395345 132.36523 15.447266 z M 150.93164 18.806641 C 151.11314 18.814873 151.2901 18.843484 151.45898 18.900391 C 152.46839 19.240518 152.54228 20.341113 152.51562 20.876953 C 150.69013 21.323495 148.27753 21.912855 147.92188 22 C 148.23666 21.327173 148.49481 20.470374 148.60547 19.5 C 149.12491 19.211328 150.06375 18.767277 150.93164 18.806641 z M 124.73828 19.517578 C 122.16299 19.392967 122.22461 22.009766 122.22461 22.009766 C 122.22461 22.009766 123.92867 20.224341 125.48633 20.556641 C 127.04395 20.888937 128.39453 22.115234 128.39453 22.115234 C 128.39453 22.115234 127.31358 19.642189 124.73828 19.517578 z M 172.64648 20.232422 C 172.56691 20.217171 172.47083 20.250958 172.36133 20.349609 C 171.92521 20.744207 172.29883 22.572266 172.29883 22.572266 C 172.29883 22.572266 172.6106 21.700141 172.81836 21.160156 C 172.97398 20.755173 172.88522 20.278176 172.64648 20.232422 z M 164.17188 20.833984 C 162.22809 20.856403 162.54688 22.660156 162.54688 22.660156 C 162.54688 22.660156 163.10598 21.308273 165.2207 21.822266 C 167.33539 22.336262 168.92074 23.923658 168.99414 24.378906 C 168.99414 24.378906 169.75779 22.367329 165.91016 21.148438 C 165.18873 20.919893 164.62042 20.828811 164.17188 20.833984 z M 165.35352 23.169922 C 164.8289 23.153849 164.9366 23.778366 165.63086 24.099609 C 166.42388 24.466753 167.07031 24.658203 167.07031 24.658203 C 166.98225 24.511331 166.42491 23.468399 165.61719 23.21875 C 165.51623 23.187541 165.42846 23.172218 165.35352 23.169922 z M 127.91992 25.599609 C 128.5702 26.000552 129.34787 26.401832 130.33594 26.783203 C 129.95819 27.310816 129.10294 28.263932 128.08008 27.785156 C 127.0291 27.292911 127.58977 26.131002 127.91992 25.599609 z M 137.37695 28.361328 C 138.06373 28.420901 138.75406 28.462192 139.45898 28.486328 C 139.12196 28.991806 138.45228 29.867641 137.86133 29.783203 C 137.22942 29.692931 137.30642 28.783883 137.37695 28.361328 z M 116.69922 29.357422 C 117.026 30.075278 117.47485 30.802621 118.04492 31.535156 C 117.42465 31.719454 116.14458 32.079115 115.41406 31.896484 C 114.70034 31.718069 116.05656 30.081698 116.69922 29.357422 z M 155.58984 29.410156 C 156.14775 29.508696 156.66878 29.611912 157.15039 29.722656 C 156.80236 30.128621 156.07084 30.904742 155.68359 30.734375 C 155.31789 30.573472 155.4695 29.838516 155.58984 29.410156 z M 157.05664 42.046875 C 157.36104 42.416801 157.65809 42.787924 157.93945 43.169922 C 157.40123 43.572517 152.99574 46.831527 151.05078 46.921875 C 150.34338 46.954738 149.85322 46.958718 149.44922 46.955078 C 150.08059 46.741281 151.04984 46.353026 152.36523 45.599609 C 154.39292 44.438262 156.49433 42.556526 157.05664 42.046875 z M 158.45508 43.900391 C 159.99625 46.151238 161.10835 48.523079 161.48242 50.625 C 162.17631 54.522135 160.38348 58.668535 158.10352 61.013672 C 155.82355 63.358801 150.37312 65.857749 150.44531 65.587891 C 150.51803 65.3181 151.38086 64.287109 151.38086 64.287109 C 151.38086 64.287109 149.18923 65.36381 148.99609 64.960938 C 148.80326 64.558066 150.59961 62.65625 150.59961 62.65625 C 150.59961 62.65625 149.09386 63.339588 148.4668 63.320312 C 147.83981 63.300888 147.91588 62.736706 148.5293 62.041016 C 149.14275 61.345337 151.22266 59.753906 151.22266 59.753906 C 151.22266 59.753906 147.06029 60.341524 147.05273 59.9375 C 147.04567 59.533514 147.99395 58.808905 149.40625 58.126953 C 150.81855 57.444956 152.81445 58.105469 152.81445 58.105469 C 152.81445 58.105469 152.63958 57.567925 152.43359 56.058594 C 152.22738 54.549266 153.16782 52.757425 153.65625 50.599609 C 154.14456 48.44179 153.92773 47.074219 153.92773 47.074219 C 153.92773 47.074219 153.27114 48.109388 152.625 49.816406 C 152.02204 49.629415 150.55462 49.176166 149.40039 48.820312 C 149.38788 48.622383 149.38031 48.402899 149.36328 48.224609 C 150.37819 47.993087 151.93326 47.580941 153.63477 46.857422 C 156.16664 45.780814 158.10144 44.197671 158.45508 43.900391 z M 126.38672 46.548828 L 123.05078 62.730469 L 123.5293 62.833984 L 126.26367 63.394531 C 126.29037 63.066829 126.33495 62.74295 126.39453 62.421875 L 124.20117 61.96875 L 127.14648 47.701172 L 131.87891 48.681641 C 133.4115 48.997798 134.69459 49.494165 135.47461 50.1875 C 136.25463 50.880835 136.59575 51.719158 136.32227 53.044922 C 136.30053 53.150341 136.26712 53.255147 136.23438 53.359375 C 136.39101 53.326322 136.54177 53.284508 136.70117 53.255859 C 136.89088 53.221762 137.08982 53.204774 137.2832 53.177734 C 137.58779 51.611722 137.10495 50.329864 136.12305 49.457031 C 135.12865 48.573136 133.69799 48.056827 132.07812 47.722656 L 126.38672 46.548828 z M 129.27344 49.921875 L 128.37305 54.306641 L 128.8457 54.410156 L 130.45508 54.742188 C 131.29897 54.916261 132.00669 54.883747 132.58008 54.636719 C 132.65864 54.596688 132.73664 54.556311 132.81641 54.517578 C 133.34497 54.203424 133.68632 53.672256 133.8125 53.060547 C 133.9565 52.362098 133.80139 51.684198 133.34766 51.228516 C 132.89279 50.772833 132.23421 50.532667 131.38477 50.357422 L 129.27344 49.921875 z M 149.45898 50.300781 C 150.19972 50.482927 151.35624 50.766307 152.23633 50.957031 C 152.07538 51.475174 151.92194 52.019738 151.79297 52.617188 C 151.07032 55.965288 151.87695 57.363281 151.87695 57.363281 C 151.87695 57.363281 151.37799 56.544301 149.87109 57.144531 C 149.69131 57.216137 149.4617 57.32977 149.25391 57.421875 C 149.30716 56.582416 149.50522 53.213267 149.45898 50.300781 z M 130.0332 51.074219 L 131.19336 51.310547 C 131.95516 51.4677 132.43606 51.697359 132.66211 51.923828 C 132.88813 52.150297 132.95518 52.368859 132.85352 52.861328 C 132.76205 53.305094 132.58701 53.555309 132.26953 53.716797 C 131.95205 53.878296 131.42861 53.942926 130.6543 53.783203 L 129.51758 53.546875 L 130.0332 51.074219 z M 109.22266 52.332031 C 109.18607 53.136849 109.09956 53.872572 108.80859 54.472656 C 108.144 55.843378 107.8125 56.298828 107.8125 56.298828 C 107.8125 56.298828 109.8302 56.296726 110.97461 57.322266 C 111.29105 57.295555 111.6073 57.272121 111.92383 57.244141 C 111.65932 56.983355 111.39571 56.734037 111.15234 56.523438 L 111.44922 56.005859 C 111.26891 55.696832 111.07795 55.383682 110.88477 55.060547 L 110.37305 55.941406 C 109.45853 55.450326 108.93359 55.884766 108.93359 55.884766 C 108.93359 55.884766 109.56818 55.300935 110.05078 53.675781 C 109.62398 52.97866 109.42923 52.663173 109.22266 52.332031 z M 128.04102 55.902344 L 127.20117 59.984375 C 127.58726 59.172537 128.07326 58.397758 128.66992 57.6875 L 128.80078 57.052734 L 129.18164 57.130859 C 129.45429 56.846576 129.74095 56.573449 130.04688 56.3125 L 128.04102 55.902344 z M 136.24805 61.410156 C 135.52708 61.812302 135.09389 62.362958 135.02148 63.052734 C 135.5345 62.624619 135.95503 62.077739 136.24805 61.410156 z M 148.5918 64.025391 C 148.5918 64.025391 148.48122 64.218837 148.39844 64.359375 L 148.40039 64.080078 C 148.50311 64.052078 148.5918 64.025391 148.5918 64.025391 z M 108.35742 64.1875 C 108.29052 64.191657 108.2251 64.198968 108.1582 64.203125 C 108.10973 64.566594 108.05001 64.965372 108 65.337891 C 108.06445 65.361182 108.14597 65.406261 108.19531 65.410156 C 108.42862 65.428581 108.58919 65.403688 108.71484 65.361328 C 108.59741 64.979608 108.47284 64.553757 108.35742 64.1875 z M 107.89258 66.123047 C 107.84223 66.494484 107.78834 66.864265 107.73633 67.240234 C 108.35576 67.552836 108.76818 67.747791 109.55469 68.117188 C 109.41291 67.646936 109.27482 67.202822 109.13477 66.740234 L 107.89258 66.123047 z "
         style="opacity:1;vector-effect:none;fill:#ffffff;fill-opacity:1;stroke:none;stroke-width:3.96589732;stroke-linecap:round;stroke-linejoin:round;stroke-miterlimit:4;stroke-dasharray:none;stroke-dashoffset:0;stroke-opacity:0.99607843;marker:none;paint-order:stroke fill markers" />
      <path
         inkscape:connector-curvature="0"
         inkscape:original-d="m 158.30273,400.74609 c -0.98743,0 -1.6582,0.60067 -1.6582,1.51758 0,0.91692 0.67077,1.51563 1.6582,1.51563 0.98744,0 1.65821,-0.59871 1.65821,-1.51563 0,-0.91691 -0.67077,-1.51758 -1.65821,-1.51758 z m -74.941402,0.66993 v 9.16796 c 0,1.97488 0.67139,3.31641 2.716797,3.31641 0.670049,0 1.163077,-0.10471 1.480469,-0.24609 l -0.353516,-2.22266 c -0.141044,0.0337 -0.210623,0.0352 -0.316406,0.0352 -0.211609,0 -0.494141,-0.17782 -0.494141,-0.77735 v -9.27343 z m 50.556642,0.002 v 12.27148 h 2.96289 v -2.11523 l 0.91602,-1.02344 1.76367,3.13867 h 3.27929 l -3.31445,-5.14843 3.13867,-3.66797 h -3.27929 l -2.4336,3.06836 h -0.0703 v -6.52344 z m 88.16406,0 v 12.27148 h 2.96289 v -2.11523 l 0.91602,-1.02344 1.76367,3.13867 h 3.2793 l -3.31446,-5.14843 3.13867,-3.66797 h -3.27929 l -2.4336,3.06836 h -0.0703 v -6.52344 z m 50.76367,0 v 12.27148 h 2.36328 l 0.2461,-0.95117 h 0.0703 c 0.67005,0.77587 1.44681,1.16211 2.22266,1.16211 1.86908,0 3.66797,-1.72688 3.66797,-4.77734 0,-2.69781 -1.35879,-4.46094 -3.43946,-4.46094 -0.77584,0 -1.55082,0.31647 -2.16797,0.88086 l 0.0703,-1.26953 v -2.85547 z m -32.99609,0.59961 c -2.50386,0 -4.26758,1.6033 -4.26758,3.56054 0,1.65749 1.07625,2.69767 2.31055,3.19141 l 1.42773,0.59961 c 0.96981,0.38796 1.55078,0.56474 1.55078,1.11133 0,0.51137 -0.38777,0.81055 -1.30468,0.81055 -0.84638,0 -1.86858,-0.45892 -2.67969,-1.11133 l -1.72852,2.08203 c 1.2343,1.11085 2.89201,1.63867 4.33789,1.63867 2.85652,0 4.47852,-1.7264 4.47852,-3.66601 0,-1.58692 -0.81002,-2.57442 -2.23828,-3.13868 l -1.39453,-0.54687 c -1.04034,-0.40563 -1.69141,-0.5999 -1.69141,-1.14649 0,-0.51137 0.45864,-0.77539 1.19922,-0.77539 0.84637,0 1.51517,0.28171 2.29101,0.82813 l 1.51758,-1.9043 c -1.05796,-1.04033 -2.50376,-1.5332 -3.80859,-1.5332 z m -176.250001,0.21094 v 11.46093 h 3.033203 v -2.85547 l 1.09375,-1.55273 2.539063,4.4082 h 3.314453 l -4.091797,-6.80664 3.421875,-4.65429 h -3.314453 l -2.892578,4.26757 h -0.07031 v -4.26757 z m 84.099611,0 v 11.46093 h 7.37109 v -2.53906 h -4.33789 v -8.92187 z m 49.91601,0 -3.49023,11.46093 h 3.10352 l 0.56445,-2.43359 h 3.20898 l 0.5625,2.43359 h 3.21094 l -3.49219,-11.46093 z m 1.72852,2.25586 h 0.0703 c 0.28213,1.14611 0.56358,2.53959 0.84571,3.63281 l 0.19531,0.79297 h -2.11719 l 0.19531,-0.79297 c 0.28213,-1.09322 0.56369,-2.46907 0.81055,-3.63281 z m -121.472656,0.17773 c -2.151203,0 -4.232422,1.76262 -4.232422,4.61914 0,2.92705 1.976391,4.61914 4.550781,4.61914 0.98744,0 2.256814,-0.3514 3.208985,-1.02148 l -0.988282,-1.79883 c -0.634783,0.35261 -1.19931,0.52929 -1.798828,0.5293 -0.987436,0 -1.7628,-0.35407 -2.044922,-1.41211 h 5.025391 c 0.05289,-0.21165 0.123047,-0.74054 0.123047,-1.26954 0,-2.36278 -1.234095,-4.26562 -3.84375,-4.26562 z m 14.673828,0 c -2.256998,0 -4.373047,1.69209 -4.373047,4.61914 0,2.92705 2.116049,4.61914 4.373047,4.61914 2.257002,0 4.373047,-1.69209 4.373047,-4.61914 0,-2.92705 -2.116045,-4.61914 -4.373047,-4.61914 z m 11.365238,0 c -1.19903,0 -1.93922,0.59943 -2.64454,1.28711 h -0.0703 l -0.21093,-1.07617 h -2.468755 v 8.8164 h 3.033205 v -5.7832 c 0.45845,-0.45844 0.88172,-0.66992 1.23437,-0.66992 0.59952,0 0.88086,0.28184 0.88086,1.41015 v 5.04297 h 3.03321 v -5.7832 c 0.45845,-0.45844 0.88171,-0.66992 1.23437,-0.66992 0.59951,0 0.88086,0.28184 0.88086,1.41015 v 5.04297 h 3.0332 v -5.43164 c 0,-2.18644 -0.8475,-3.5957 -2.78711,-3.5957 -1.19903,0 -1.9919,0.66955 -2.71484,1.41016 -0.47608,-0.91692 -1.23456,-1.41016 -2.43359,-1.41016 z m 15.04492,0 c -0.88164,0 -1.74603,0.422 -2.39844,1.02148 h -0.0703 l -0.21094,-0.81054 h -2.46875 v 11.91992 h 3.0332 v -2.43359 l -0.10742,-1.33985 c 0.56425,0.56426 1.23599,0.88086 1.97656,0.88086 1.86908,0 3.66602,-1.72694 3.66602,-4.75977 0,-2.71543 -1.33925,-4.47851 -3.41992,-4.47851 z m 8.99414,0 c -2.257,0 -4.37305,1.69209 -4.37305,4.61914 0,2.92705 2.11605,4.61914 4.37305,4.61914 2.257,0 4.37305,-1.69209 4.37305,-4.61914 0,-2.92705 -2.11605,-4.61914 -4.37305,-4.61914 z m 39.43555,0 c -1.19903,0 -2.07985,0.59949 -2.78516,1.26953 h -0.0703 l -0.21289,-1.05859 h -2.46875 v 8.8164 h 3.0332 v -5.7832 c 0.45845,-0.42317 0.77559,-0.66992 1.33984,-0.66992 0.59952,0 0.88282,0.28184 0.88282,1.41015 v 5.04297 h 3.0332 v -5.43164 c 0,-2.18644 -0.81234,-3.5957 -2.75195,-3.5957 z m 43.49023,0 c -0.86401,0 -1.85149,0.52752 -2.50391,1.72656 h -0.0703 l -0.21094,-1.51562 h -2.46875 v 8.8164 h 3.03321 v -4.90234 c 0.42318,-1.09322 1.1992,-1.48047 1.83398,-1.48047 0.38792,0 0.66894,0.0704 0.98633,0.14063 l 0.49414,-2.60938 c -0.24687,-0.10561 -0.54713,-0.17578 -1.09375,-0.17578 z m 5.7168,0 c -2.15121,0 -4.23243,1.76262 -4.23242,4.61914 0,2.92705 1.97639,4.61914 4.55078,4.61914 0.98743,0 2.25681,-0.3514 3.20898,-1.02148 l -0.98828,-1.79883 c -0.63478,0.35261 -1.19931,0.52929 -1.79883,0.5293 -0.98743,0 -1.76279,-0.35407 -2.04492,-1.41211 h 5.02539 c 0.0529,-0.21165 0.12305,-0.74054 0.12305,-1.26954 0,-2.36278 -1.23409,-4.26562 -3.84375,-4.26562 z m 44.42773,0 c -0.86401,0 -1.85149,0.52752 -2.50391,1.72656 h -0.0723 l -0.21094,-1.51562 h -2.46875 v 8.8164 h 3.03321 v -4.90234 c 0.42318,-1.09322 1.1992,-1.48047 1.83398,-1.48047 0.38791,0 0.66894,0.0704 0.98633,0.14063 l 0.49414,-2.60938 c -0.24687,-0.10561 -0.54518,-0.17578 -1.0918,-0.17578 z m 5.85742,0 c -2.257,0 -4.37304,1.69209 -4.37304,4.61914 0,2.92705 2.11604,4.61914 4.37304,4.61914 2.257,0 4.37305,-1.69209 4.37305,-4.61914 0,-2.92705 -2.11605,-4.61914 -4.37305,-4.61914 z m 20.11133,0 c -2.257,0 -4.37305,1.69209 -4.37305,4.61914 0,2.92705 2.11605,4.61914 4.37305,4.61914 2.257,0 4.37305,-1.69209 4.37305,-4.61914 0,-2.92705 -2.11605,-4.61914 -4.37305,-4.61914 z m 19.11328,0 c -2.257,0 -4.37304,1.69209 -4.37304,4.61914 0,2.92705 2.11604,4.61914 4.37304,4.61914 2.257,0 4.37305,-1.69209 4.37305,-4.61914 0,-2.92705 -2.11605,-4.61914 -4.37305,-4.61914 z m -149.3164,0.21094 v 8.8164 h 3.0332 v -8.8164 z m 15.25586,0 v 5.43164 c 0,2.18644 0.81039,3.5957 2.75,3.5957 1.19902,0 2.01148,-0.52861 2.71679,-1.375 h 0.0703 l 0.21094,1.16406 h 2.46875 v -8.8164 h -3.0332 v 5.67773 c -0.38791,0.56426 -0.70528,0.77539 -1.26953,0.77539 -0.59952,0 -0.88086,-0.28142 -0.88086,-1.41015 v -5.04297 z m 9.6289,0 2.50391,4.23242 -2.64453,4.58398 h 3.13867 l 0.49414,-1.23437 c 0.19398,-0.51133 0.40564,-1.02193 0.59961,-1.51563 h 0.0703 c 0.2645,0.4937 0.5109,1.02193 0.77539,1.51563 l 0.70508,1.23437 h 3.24414 l -2.64453,-4.23242 2.50391,-4.58398 h -3.13868 l -0.42187,1.23437 c -0.15868,0.4937 -0.3706,1.02193 -0.5293,1.51563 h -0.0703 c -0.22924,-0.4937 -0.47585,-1.02193 -0.70508,-1.51563 l -0.63476,-1.23437 z m 63.83008,0 v 5.43164 c 0,2.18644 0.81039,3.5957 2.75,3.5957 1.19903,0 2.00953,-0.52861 2.71484,-1.375 h 0.0723 l 0.21094,1.16406 h 2.46875 v -8.8164 h -3.03321 v 5.67773 c -0.38791,0.56426 -0.70527,0.77539 -1.26953,0.77539 -0.59951,0 -0.88086,-0.28142 -0.88086,-1.41015 v -5.04297 z m 46.47461,0 3.34961,8.5 -0.10547,0.38672 c -0.17631,0.529 -0.56389,0.88281 -1.375,0.88281 -0.17635,0 -0.40574,-0.0706 -0.56445,-0.10547 l -0.5293,2.29101 c 0.38791,0.10562 0.74228,0.17579 1.3418,0.17579 2.18646,0 3.13778,-1.07467 4.05468,-3.45508 l 2.9629,-8.67578 h -2.89258 l -0.88086,3.38476 c -0.21161,0.84639 -0.38812,1.65752 -0.56446,2.50391 h -0.0703 c -0.21161,-0.88165 -0.3879,-1.69278 -0.63476,-2.50391 l -1.0586,-3.38476 z m -214.033204,2.08007 c 0.916906,0 1.199219,0.59949 1.199219,1.26954 H 76.53125 c 0.176347,-0.88161 0.740108,-1.26953 1.410156,-1.26954 z m 138.720704,0 c 0.9169,0 1.19922,0.59949 1.19922,1.26954 h -2.60938 c 0.17635,-0.88161 0.74011,-1.26953 1.41016,-1.26954 z M 92.544922,407.0957 c 0.916905,0 1.269531,0.84542 1.269531,2.18555 0,1.34009 -0.352622,2.1875 -1.269531,2.1875 -0.916906,0 -1.269531,-0.84741 -1.269531,-2.1875 0,-1.34013 0.352621,-2.18555 1.269531,-2.18555 z m 35.404298,0 c 0.9169,0 1.26953,0.84542 1.26953,2.18555 0,1.34009 -0.35262,2.1875 -1.26953,2.1875 -0.91691,0 -1.26953,-0.84741 -1.26953,-2.1875 0,-1.34013 0.35262,-2.18555 1.26953,-2.18555 z m 138.92773,0 c 0.91691,0 1.26953,0.84542 1.26953,2.18555 0,1.34009 -0.35262,2.1875 -1.26953,2.1875 -0.91691,0 -1.26953,-0.84741 -1.26953,-2.1875 0,-1.34013 0.35262,-2.18555 1.26953,-2.18555 z m 20.11133,0 c 0.91691,0 1.26953,0.84542 1.26953,2.18555 0,1.34009 -0.35262,2.1875 -1.26953,2.1875 -0.9169,0 -1.26953,-0.84741 -1.26953,-2.1875 0,-1.34013 0.35262,-2.18555 1.26953,-2.18555 z m 19.11328,0 c 0.91691,0 1.26953,0.84542 1.26953,2.18555 0,1.34009 -0.35262,2.1875 -1.26953,2.1875 -0.9169,0 -1.26953,-0.84741 -1.26953,-2.1875 0,-1.34013 0.35262,-2.18555 1.26953,-2.18555 z m -188.06445,0.0352 c 0.81111,0 1.23437,0.59905 1.23437,2.04492 0,1.69274 -0.59937,2.25586 -1.30468,2.25586 -0.38792,0 -0.7743,-0.10431 -1.12696,-0.42187 v -3.24415 c 0.38792,-0.45847 0.73882,-0.63476 1.19727,-0.63476 z m 159.04101,0 c 0.81111,0 1.23438,0.59905 1.23438,2.04492 0,1.69274 -0.59938,2.25586 -1.30469,2.25586 -0.38791,0 -0.77625,-0.10431 -1.1289,-0.42187 v -3.24415 c 0.38791,-0.45847 0.74076,-0.63476 1.19921,-0.63476 z"
         inkscape:path-effect="#path-effect2749"
         id="path4031"
         transform="matrix(0.16604915,0.00155858,-0.00155858,0.16604915,119.04393,29.247535)"
         d="m 158.1795,413.88091 c -0.97766,-0.0447 -1.6726,0.52136 -1.71752,1.43617 -0.0449,0.91452 0.5932,1.54511 1.57831,1.59027 0.98512,0.0452 1.67855,-0.52441 1.71781,-1.43931 0.0393,-0.91521 -0.60091,-1.5424 -1.5786,-1.58713 z m -73.787537,-8.10401 -1.761732,8.98552 c -0.37906,1.93335 0.02952,3.38501 2.077048,3.77404 0.669707,0.12725 1.182276,0.11681 1.525357,0.0374 0.01823,-0.74924 0.037,-1.49843 0.05632,-2.24757 -0.146483,0.007 -0.216103,-0.005 -0.321286,-0.0247 -0.21067,-0.0397 -0.458503,-0.26728 -0.347005,-0.85556 l 1.724499,-9.09875 c -0.984969,-0.18701 -1.969374,-0.37713 -2.9532,-0.57038 z m 49.607617,7.11151 -1.12779,12.1977 c 0.99906,0.0924 1.99839,0.18205 2.99797,0.26881 l 0.1824,-2.1037 c 0.33722,-0.31258 0.67387,-0.62549 1.00994,-0.93873 0.50319,1.09095 1.00999,2.18125 1.52039,3.27086 1.10682,0.0904 2.21394,0.17722 3.32134,0.26065 -0.99074,-1.7929 -1.97042,-3.58838 -2.93894,-5.38637 1.14836,-1.13098 2.28972,-2.26578 3.42409,-3.40434 -1.0891,-0.0822 -2.17788,-0.1678 -3.26632,-0.25681 -0.89106,0.95161 -1.78667,1.9009 -2.68685,2.84783 -0.0235,-0.002 -0.0469,-0.004 -0.0704,-0.006 l 0.56253,-6.48787 c -0.97643,-0.0845 -1.95256,-0.17183 -2.92838,-0.26194 z m 87.57576,0.91496 0.8247,12.25509 c 1.00264,-0.0674 2.00514,-0.13721 3.00747,-0.20959 l -0.15273,-2.11182 c 0.28416,-0.36291 0.56779,-0.72603 0.85087,-1.08935 0.67064,1.00062 1.34432,2.00018 2.02103,2.99866 1.10903,-0.0851 2.21785,-0.17327 3.32644,-0.26448 -1.26152,-1.6201 -2.5138,-3.24397 -3.75673,-4.87154 0.95873,-1.30119 1.91086,-2.60474 2.8564,-3.9106 -1.09253,0.0898 -2.18524,0.17655 -3.27814,0.26031 -0.73289,1.08305 -1.47005,2.1647 -2.2115,3.24492 -0.0236,0.002 -0.0471,0.003 -0.0707,0.005 l -0.47102,-6.51294 c -0.98193,0.0712 -1.96397,0.13994 -2.94612,0.20622 z m 50.32199,-5.51724 1.83762,12.14987 c 0.79243,-0.11991 1.58461,-0.24129 2.37654,-0.36415 0.0338,-0.32652 0.0675,-0.65303 0.10109,-0.97954 0.0235,-0.004 0.047,-0.007 0.0706,-0.011 0.79203,0.66304 1.63335,0.9222 2.41314,0.79802 1.8841,-0.30003 3.40264,-2.3029 2.90524,-5.31675 -0.43992,-2.66559 -2.07638,-4.18218 -4.13268,-3.85434 -0.7683,0.12249 -1.48682,0.55639 -2.01213,1.2102 -0.0421,-0.42229 -0.0842,-0.84458 -0.12633,-1.26686 l -0.44108,-2.82496 c -0.99696,0.15553 -1.99429,0.3087 -2.99197,0.45949 z m -32.60902,4.65933 c -2.48255,0.24152 -4.09785,1.99577 -3.92202,3.94814 0.14891,1.65357 1.32073,2.59259 2.60924,2.96877 0.49704,0.15433 0.99451,0.30804 1.49239,0.46115 1.01283,0.29277 1.61532,0.41029 1.6692,0.95519 0.0503,0.50924 -0.31098,0.84689 -1.23642,0.93635 -0.85468,0.0826 -1.92891,-0.27728 -2.80652,-0.85263 -0.51671,0.74547 -1.03546,1.49027 -1.55627,2.23439 1.34807,0.99702 3.07671,1.36725 4.54303,1.22573 2.90018,-0.27991 4.35736,-2.17629 4.1566,-4.10602 -0.16444,-1.58068 -1.08088,-2.47859 -2.56709,-2.89693 -0.48389,-0.13489 -0.96741,-0.27036 -1.45055,-0.4064 -1.08098,-0.3021 -1.75037,-0.43458 -1.80221,-0.97915 -0.0485,-0.50983 0.38453,-0.81624 1.12334,-0.88809 0.84495,-0.0822 1.53901,0.13216 2.36935,0.59838 0.4415,-0.68345 0.88136,-1.36739 1.3196,-2.0518 -1.16007,-0.92662 -2.64594,-1.27313 -3.94167,-1.14708 z M 65.051085,402.38814 62.379108,413.53335 c 1.001694,0.23973 2.004016,0.4762 3.006951,0.70941 l 0.647573,-2.78039 c 0.476851,-0.4203 0.9526,-0.84125 1.427248,-1.26286 0.502248,1.62316 1.012724,3.24557 1.531385,4.86719 1.097513,0.24633 2.195737,0.48879 3.294652,0.72739 -0.874922,-2.51006 -1.729543,-5.0224 -2.563679,-7.53688 1.459151,-1.25934 2.908036,-2.5249 4.346705,-3.79656 -1.072361,-0.23524 -2.143973,-0.47427 -3.214816,-0.7171 -1.24835,1.1749 -2.504686,2.34525 -3.769044,3.51099 -0.0229,-0.005 -0.04579,-0.0107 -0.06869,-0.016 l 0.967814,-4.15537 c -0.978705,-0.22847 -1.956751,-0.46014 -2.934124,-0.69503 z m 82.530595,12.38486 -0.75315,11.41916 c 2.49091,0.1646 4.98309,0.31186 7.4763,0.44196 l 0.1318,-2.53239 c -1.46042,-0.0761 -2.92045,-0.15812 -4.38006,-0.24609 l 0.53546,-8.89329 c -1.0037,-0.0602 -2.00715,-0.12336 -3.01035,-0.18935 z m 49.67022,0.9732 c -1.06374,3.84908 -2.15085,7.69474 -3.2615,11.53673 1.05184,-0.0197 2.10367,-0.0423 3.15547,-0.0678 0.17152,-0.81571 0.34224,-1.63152 0.51215,-2.44741 1.08296,-0.0274 2.16588,-0.0578 3.24877,-0.0913 0.21495,0.80517 0.43069,1.61024 0.64723,2.41521 1.08807,-0.0346 2.17608,-0.0723 3.26402,-0.11297 -1.32668,-3.77493 -2.63029,-7.55387 -3.91062,-11.33664 -1.21851,0.0386 -2.43702,0.0734 -3.65552,0.10417 z m 1.786,2.20932 c 0.0234,-6.6e-4 0.0469,-0.001 0.0703,-0.002 0.31461,1.13791 0.63748,2.52295 0.95401,3.60753 0.0734,0.26233 0.14689,0.52464 0.22046,0.78695 -0.71157,0.0214 -1.42316,0.0414 -2.13475,0.0602 0.0587,-0.26601 0.11728,-0.53203 0.17579,-0.79807 0.25568,-1.10385 0.49923,-2.48083 0.71414,-3.65457 0,0 0,0 1e-5,0 z M 78.395009,407.87179 c -2.09415,-0.43609 -4.508472,0.84195 -5.114407,3.63037 -0.621063,2.85803 0.977335,4.93833 3.552246,5.4714 0.985505,0.20402 2.320207,0.11799 3.400959,-0.34899 -0.210423,-0.65291 -0.419572,-1.30594 -0.627444,-1.95909 -0.69934,0.21778 -1.295644,0.27612 -1.890359,0.15348 -0.980236,-0.20215 -1.676381,-0.71015 -1.737174,-1.80331 1.655962,0.34905 3.313511,0.6893 4.972578,1.02083 0.09394,-0.19707 0.266622,-0.70077 0.370112,-1.21919 0.462537,-2.31699 -0.381659,-4.41556 -2.926511,-4.9455 z m 14.385562,2.76627 c -2.209751,-0.39014 -4.603953,0.88381 -5.1375,3.7566 -0.533919,2.8748 1.26548,4.92672 3.535016,5.32676 2.269489,0.40003 4.661746,-0.91282 5.143768,-3.79567 0.481699,-2.88091 -1.331416,-4.89753 -3.541284,-5.28769 z m 11.192759,1.84204 c -1.18295,-0.18065 -2.00385,0.29545 -2.80874,0.8636 -0.0232,-0.004 -0.0463,-0.007 -0.0695,-0.011 -0.0135,-0.36468 -0.0269,-0.72935 -0.0401,-1.09401 -0.81151,-0.12886 -1.6227,-0.25976 -2.433569,-0.3927 l -1.42314,8.68522 c 1.014173,0.16607 2.028802,0.32901 3.043869,0.48883 l 0.89835,-5.70244 c 0.52616,-0.38035 0.97795,-0.52355 1.32761,-0.46935 0.59405,0.0921 0.83084,0.41252 0.66032,1.52592 l -0.76204,4.97569 c 1.01568,0.15548 2.03179,0.30785 3.04831,0.45713 l 0.83896,-5.71106 c 0.52214,-0.38577 0.9724,-0.53364 1.32259,-0.48308 0.59495,0.0859 0.83505,0.40385 0.67609,1.51889 l -0.7104,4.98302 c 1.0171,0.14496 2.0346,0.28683 3.05248,0.42562 l 0.73255,-5.3715 c 0.2951,-2.16384 -0.35702,-3.66767 -2.2702,-3.93953 -1.18454,-0.16831 -2.0629,0.37799 -2.88711,1.00392 -0.33785,-0.97534 -1.01368,-1.57257 -2.19635,-1.75317 0,0 -10e-6,0 -10e-6,0 z m 14.87602,2.04201 c -0.87304,-0.10652 -1.78151,0.20447 -2.50395,0.71582 -0.0233,-0.003 -0.0465,-0.006 -0.0697,-0.009 -0.0358,-0.27637 -0.0715,-0.55274 -0.10704,-0.82911 -0.81512,-0.10385 -1.62998,-0.2097 -2.44456,-0.31756 l -1.5615,11.79406 c 1.02457,0.13563 2.0495,0.26817 3.07479,0.39765 l 0.30428,-2.40977 c 0.0197,-0.44681 0.0395,-0.89361 0.0594,-1.3404 0.49734,0.63059 1.13598,1.02887 1.88323,1.12043 1.8929,0.23194 3.89707,-1.27175 4.24355,-4.27967 0.31025,-2.69336 -0.82277,-4.59178 -2.87844,-4.84259 0,0 -1e-5,0 -1e-5,0 z m 8.92139,1.00835 c -2.23273,-0.23243 -4.52953,1.20869 -4.85688,4.11072 -0.32757,2.90395 1.61178,4.82217 3.90166,5.06079 2.28979,0.23862 4.58291,-1.23856 4.86097,-4.14803 0.27789,-2.90762 -1.67295,-4.79105 -3.90575,-5.02348 z m 39.3008,2.5974 c -1.19784,-0.0348 -2.09701,0.53455 -2.82649,1.17956 -0.0235,-8.1e-4 -0.0469,-0.002 -0.0704,-0.002 -0.0589,-0.35475 -0.11771,-0.7095 -0.17636,-1.06426 -0.82245,-0.0285 -1.64479,-0.059 -2.46701,-0.0913 l -0.3468,8.80015 c 1.02667,0.0406 2.05348,0.0784 3.08042,0.11322 l 0.19517,-5.77429 c 0.47524,-0.40712 0.80099,-0.64288 1.36768,-0.62516 0.6016,0.0188 0.878,0.30833 0.84452,1.43527 l -0.14961,5.03623 c 1.02712,0.0307 2.05435,0.0585 3.08169,0.0835 l 0.13102,-5.42574 c 0.0528,-2.18567 -0.72849,-3.60853 -2.66382,-3.66475 0,0 -1e-5,0 -1e-5,0 z m 43.51145,-0.4362 c -0.86408,0.0417 -1.82779,0.61436 -2.42996,1.84128 -0.0235,0.001 -0.047,0.002 -0.0705,0.003 -0.0926,-0.5019 -0.18507,-1.00382 -0.27733,-1.50576 -0.82379,0.0358 -1.64762,0.0698 -2.47148,0.10206 l 0.34398,8.81356 c 1.02768,-0.04 2.05528,-0.0826 3.08279,-0.12796 l -0.21699,-4.90016 c 0.37801,-1.11136 1.14023,-1.53416 1.77801,-1.56445 0.3901,-0.0185 0.67557,0.0381 0.99831,0.0926 0.12287,-0.87743 0.245,-1.75491 0.36639,-2.63243 -0.25257,-0.0932 -0.55602,-0.14824 -1.10316,-0.12184 0,0 -1e-5,0 -1e-5,0 z m 5.71944,-0.30402 c -2.1445,0.1245 -4.14492,1.9931 -4.00031,4.84668 0.1482,2.9247 2.23555,4.5175 4.8585,4.36449 1.00427,-0.0586 2.27126,-0.48786 3.19473,-1.21941 -0.37234,-0.57758 -0.7437,-1.15549 -1.11406,-1.73372 -0.61977,0.39209 -1.18089,0.60327 -1.78754,0.63915 -0.99976,0.0591 -1.80462,-0.2509 -2.14841,-1.29222 1.69162,-0.0942 3.38294,-0.19558 5.0739,-0.30422 0.0399,-0.21504 0.0765,-0.74743 0.0424,-1.27602 -0.15235,-2.36234 -1.51401,-4.17597 -4.11924,-4.02473 z m 44.33512,-4.22599 c -0.8588,0.1134 -1.77281,0.76483 -2.2712,2.03888 -0.024,0.003 -0.0481,0.006 -0.0721,0.009 -0.13432,-0.49288 -0.26847,-0.9858 -0.40244,-1.47875 -0.8191,0.10444 -1.63839,0.20726 -2.45787,0.30845 l 1.08188,8.76257 c 1.02115,-0.12607 2.04198,-0.25464 3.06247,-0.3857 l -0.62537,-4.86943 c 0.28429,-1.14007 1.00945,-1.62527 1.64317,-1.70856 0.38759,-0.0509 0.67711,-0.0182 1.00357,0.009 0.0496,-0.88532 0.0986,-1.77062 0.14686,-2.65589 -0.25975,-0.072 -0.56521,-0.10196 -1.10898,-0.0301 10e-6,-10e-6 3e-5,-10e-6 4e-5,-10e-6 z m 5.82139,-0.79639 c -2.23484,0.31635 -4.11951,2.27992 -3.72894,5.18423 0.39077,2.90588 2.74444,4.29886 5.02586,3.97576 2.28138,-0.3231 4.1556,-2.31478 3.72448,-5.21465 -0.43089,-2.89836 -2.78649,-4.2617 -5.0214,-3.94534 z m 19.92564,-3.14268 c -2.2235,0.38651 -4.04462,2.40813 -3.56214,5.29789 0.48273,2.89128 2.87851,4.2082 5.14708,3.81322 2.26856,-0.39498 4.07814,-2.44386 3.55643,-5.32731 -0.52145,-2.88198 -2.9178,-4.17032 -5.14137,-3.7838 z m 18.82967,-3.55822 c -2.20997,0.45101 -3.96977,2.52368 -3.40276,5.39612 0.56731,2.87392 2.99889,4.11855 5.25253,3.65747 2.25366,-0.46107 4.00087,-2.56027 3.39589,-5.4246 -0.60468,-2.86289 -3.03559,-4.08002 -5.24566,-3.62899 z m -148.73965,12.26267 -0.4295,8.79512 c 1.02616,0.0503 2.05247,0.0976 3.07895,0.14208 l 0.37988,-8.79822 c -1.00997,-0.0435 -2.01975,-0.0898 -3.02933,-0.13898 z m 15.24687,0.52691 -0.11216,5.42652 c -0.0451,2.18274 0.74644,3.6123 2.7216,3.64358 1.21919,0.0193 2.05296,-0.49942 2.77725,-1.33722 0.0238,2.6e-4 0.0475,5.1e-4 0.0713,7.7e-4 0.0672,0.38855 0.13456,0.7771 0.20207,1.16564 0.8365,0.009 1.67304,0.0155 2.50962,0.0205 l 0.051,-8.81236 c -1.01182,-0.006 -2.02355,-0.0142 -3.03517,-0.0254 l -0.0639,5.67426 c -0.39836,0.55934 -0.72277,0.76665 -1.29372,0.75886 -0.6071,-0.008 -0.88728,-0.29422 -0.87019,-1.42198 l 0.0764,-5.03925 c -1.01147,-0.0152 -2.02283,-0.0332 -3.03407,-0.0539 z m 9.63389,0.11363 c 0.83075,1.41284 1.66788,2.82395 2.51138,4.23329 -0.88712,1.52863 -1.78142,3.05502 -2.68295,4.57911 1.06364,0.004 2.12732,0.005 3.19104,0.003 0.16659,-0.41167 0.33282,-0.82341 0.49869,-1.23524 0.19526,-0.51176 0.40789,-1.02297 0.60214,-1.51733 0.0237,-9e-5 0.0474,-1.9e-4 0.0711,-2.9e-4 0.26971,0.49247 0.52194,1.01938 0.79304,1.5115 0.24075,0.41006 0.48201,0.81997 0.72379,1.22975 1.09951,-0.007 2.19903,-0.0179 3.29855,-0.0315 -0.91408,-1.39943 -1.82156,-2.80092 -2.72237,-4.20442 0.83026,-1.53434 1.65373,-3.07063 2.47044,-4.60883 -1.04743,0.0131 -2.09482,0.0233 -3.14215,0.0305 -0.13799,0.41234 -0.27628,0.82463 -0.41487,1.23686 -0.15259,0.48307 -0.37072,1.03519 -0.52331,1.51827 -0.0236,1.2e-4 -0.0471,2.4e-4 -0.0707,3.6e-4 -0.23869,-0.50435 -0.47745,-1.00751 -0.71486,-1.51213 -0.21379,-0.41055 -0.4271,-0.8212 -0.63995,-1.23197 -1.08309,0.003 -2.1661,0.003 -3.24902,-6.3e-4 z m 63.84853,-3.35112 0.57633,5.40846 c 0.23184,2.17567 1.1994,3.49586 3.16466,3.27759 1.21324,-0.13475 1.9739,-0.75509 2.58807,-1.679 0.0243,-0.003 0.0486,-0.006 0.0729,-0.008 0.11561,0.37779 0.23135,0.75555 0.34722,1.13329 0.83188,-0.0965 1.66355,-0.1947 2.49502,-0.29455 l -1.05287,-8.76604 c -1.00722,0.121 -2.01473,0.23952 -3.02249,0.35556 l 0.65025,5.64847 c -0.32552,0.60614 -0.62168,0.85302 -1.18998,0.91725 -0.60422,0.0683 -0.91872,-0.18056 -1.04404,-1.30377 l -0.55998,-5.01889 c -1.00814,0.11252 -2.01652,0.22255 -3.02514,0.33007 z m 46.14183,-6.6615 c 1.6095,2.58975 3.23279,5.17372 4.8697,7.75178 -0.0114,0.13338 -0.0227,0.26676 -0.0342,0.40014 -0.0788,0.55316 -0.4016,0.97434 -1.21374,1.12468 -0.17664,0.0327 -0.41893,0.006 -0.58422,5.3e-4 -0.0383,0.78423 -0.0773,1.56851 -0.11686,2.35285 0.40837,0.0324 0.77806,0.036 1.37993,-0.0757 2.19616,-0.40759 2.95317,-1.65099 3.41938,-4.16408 0.44077,-3.03119 0.86823,-6.06177 1.28244,-9.09162 -0.9488,0.18618 -1.89807,0.37028 -2.8478,0.5523 -0.0765,1.16418 -0.15456,2.3285 -0.23414,3.49295 -0.0512,0.87277 -0.0748,1.70176 -0.0924,2.56803 -0.0233,0.004 -0.0466,0.009 -0.0699,0.0132 -0.37517,-0.82822 -0.69966,-1.59028 -1.09517,-2.3431 -0.55867,-1.04369 -1.1156,-2.08804 -1.6708,-3.13306 -0.99693,0.186 -1.99434,0.36969 -2.99221,0.55107 z M 77.997987,410.127 c 0.900207,0.1872 1.058064,0.82968 0.923405,1.48583 -0.857138,-0.17594 -1.713851,-0.35423 -2.570131,-0.53488 0.355392,-0.8252 0.988894,-1.08774 1.646726,-0.95095 z m 138.507653,9.54549 c 0.92033,-0.0535 1.2402,0.52729 1.28045,1.19707 -0.87526,0.0526 -1.75061,0.1033 -2.62603,0.15202 0.12847,-0.89073 0.67306,-1.31 1.34558,-1.34909 z m -124.147194,-6.6417 c 0.904874,0.15969 1.110016,1.05088 0.880928,2.36949 -0.228938,1.31774 -0.724643,2.09155 -1.639483,1.93022 -0.914856,-0.16132 -1.115891,-1.05803 -0.880062,-2.37469 0.235984,-1.31752 0.733731,-2.08471 1.638617,-1.92502 z m 35.160674,4.91562 c 0.91389,0.0952 1.18145,0.96946 1.04613,2.30066 -0.13524,1.33037 -0.57488,2.13699 -1.4983,2.04079 -0.92342,-0.0962 -1.18739,-0.97611 -1.04558,-2.30575 0.1419,-1.33046 0.58386,-2.13086 1.49775,-2.0357 z m 139.28145,-3.16823 c 0.91349,-0.12933 1.38594,0.65721 1.5768,1.9859 0.19076,1.32801 -0.0416,2.21963 -0.96288,2.35009 -0.92126,0.13045 -1.39204,-0.66161 -1.57744,-1.99041 -0.1855,-1.32948 0.05,-2.21626 0.96352,-2.34558 z m 20.00151,-3.15556 c 0.9087,-0.15803 1.40552,0.61297 1.63808,1.93444 0.23244,1.32081 0.0284,2.21896 -0.88782,2.37841 -0.91622,0.15946 -1.41164,-0.617 -1.6389,-1.93884 -0.22738,-1.3225 -0.0201,-2.21598 0.88864,-2.37401 z m 18.89944,-3.57337 c 0.90303,-0.18441 1.42179,0.57114 1.69268,1.88414 0.27077,1.31236 0.0932,2.21537 -0.81707,2.40149 -0.91032,0.18612 -1.4279,-0.57484 -1.69366,-1.88846 -0.26588,-1.31426 -0.085,-2.21275 0.81805,-2.39717 z m -188.06448,8.80636 c 0.8066,0.0999 1.15687,0.744 0.98294,2.1768 -0.20359,1.6772 -0.87218,2.16232 -1.58118,2.07439 -0.38939,-0.0483 -0.76444,-0.20017 -1.07836,-0.55929 l 0.40563,-3.21239 c 0.44389,-0.40522 0.81452,-0.53605 1.27097,-0.47951 z m 159.32769,-3.5645 c 0.80611,-0.1274 1.32229,0.39688 1.55111,1.82655 0.26787,1.67358 -0.24216,2.32635 -0.94917,2.43806 -0.3884,0.0614 -0.79365,0.0193 -1.1957,-0.23977 l -0.50113,-3.20949 c 0.31554,-0.51393 0.63883,-0.74328 1.09489,-0.81535 z"
         style="font-style:normal;font-variant:normal;font-weight:900;font-stretch:normal;font-size:4.19054174px;line-height:1.25;font-family:'Source Sans Pro';-inkscape-font-specification:'Source Sans Pro, Heavy';font-variant-ligatures:normal;font-variant-caps:normal;font-variant-numeric:normal;font-feature-settings:normal;text-align:start;letter-spacing:0px;word-spacing:0px;writing-mode:lr-tb;text-anchor:start;fill:#ffffff;fill-opacity:1;stroke:none;stroke-width:3.23544502;stroke-linecap:round;stroke-linejoin:round;stroke-miterlimit:4;stroke-dasharray:none;stroke-opacity:0.99607843;paint-order:stroke fill markers" />
      <path
         id="path4043"
         transform="matrix(0.26458333,0,0,0.26458333,125.03667,73.498406)"
         d="M 33.433594 7.8417969 C 30.438333 7.8735326 27.373487 8.5624602 24.291016 10.015625 C 7.8511666 17.765849 -9.9989271 39.841754 6.6757812 45.595703 C 11.474106 47.251464 15.790613 48.011702 19.638672 48.191406 C 18.158465 49.710848 15.062499 53.650822 15.507812 59.757812 C 15.829156 64.164966 17.501344 66.078385 20.078125 66.535156 C 19.954377 67.281711 19.785156 68.40369 19.785156 69.431641 C 19.785156 70.843211 20.490234 71.798828 20.490234 71.798828 C 20.490234 71.798828 20.28199 70.263349 20.863281 68.1875 C 21.242074 66.834713 21.224398 66.894641 21.294922 66.644531 C 23.166144 66.671961 25.400201 66.13907 27.880859 65.322266 C 32.858177 63.683392 37.856856 61.421385 40.287109 60.277344 L 40.982422 57.685547 C 34.266014 52.304049 30.044922 50.351562 30.044922 50.351562 C 30.044922 50.351562 31.043519 49.706033 32.6875 49.236328 C 33.714988 48.942744 36.048472 48.489107 39.117188 48.5625 C 40.958416 48.606536 43.064742 48.839648 45.310547 49.412109 C 50.966417 50.853794 59.354367 54.95291 60.544922 55.615234 C 60.611361 55.626006 60.677686 55.637737 60.744141 55.648438 C 60.276652 55.237852 58.52077 53.818081 55.257812 52.123047 C 55.263235 51.939164 55.285011 51.433057 55.390625 50.310547 C 55.958044 50.577096 56.893419 51.068797 58.394531 51.994141 C 60.657907 53.389361 62.92039 55.187905 64.121094 56.162109 C 64.671447 56.240525 65.222182 56.315037 65.773438 56.388672 C 65.804203 53.848904 65.412109 52.285156 65.412109 52.285156 C 65.445848 52.766005 65.394156 53.604184 65.304688 54.560547 C 64.885102 53.821001 64.068901 52.76518 62.421875 51.373047 C 59.544329 48.940819 56.622283 48.288354 55.644531 48.125 C 55.730479 47.471505 55.81722 46.808272 55.945312 46.015625 C 56.609564 41.905453 57.025391 40.910156 57.025391 40.910156 C 57.025391 40.910156 55.281438 43.940258 54.617188 47.59375 C 54.253179 49.595741 54.144531 50.812916 54.115234 51.548828 C 51.761971 50.412158 48.790733 49.225128 45.15625 48.220703 C 46.085083 47.543062 48.204459 45.841865 51.876953 41.990234 C 55.682042 37.999543 59.803243 36.269958 61.660156 35.646484 C 65.9865 46.018928 69.474764 58.955762 70.322266 70.255859 C 70.322266 70.255859 71.260973 55.460006 63.980469 35.849609 C 63.278419 33.958614 62.494949 32.121359 61.638672 30.349609 C 62.390255 30.466676 62.387453 30.461776 63.746094 30.683594 C 66.62307 31.153306 73.844351 30.801101 74.490234 29.685547 C 75.13608 28.569982 76.369065 24.98838 63.041016 17.296875 C 54.017262 12.089329 46.079934 10.140596 41.617188 9.40625 C 38.98061 8.3694151 36.238686 7.8120761 33.433594 7.8417969 z M 35.160156 9.8808594 C 42.150049 10.018355 47.144378 13.831867 52.472656 19.644531 C 55.038915 22.444084 57.7039 26.89963 60.177734 32.261719 C 58.380967 33.164032 52.925057 36.053345 49.302734 39.724609 C 44.957941 44.128141 43.117073 46.017419 40.376953 46.515625 C 38.292527 46.894611 36.152947 45.722455 35.240234 45.134766 C 36.795981 44.339486 38.091709 43.480392 39.085938 42.660156 C 43.783058 38.785044 44.253906 34.910156 44.253906 34.910156 C 44.253906 34.910156 39.55617 44.42194 25.464844 46.300781 C 11.373556 48.179626 4.7977415 43.366037 2.4492188 38.199219 C 0.1006581 33.032408 10.669652 17.295717 24.173828 12.128906 C 28.393883 10.514276 31.982932 9.8183614 35.160156 9.8808594 z M 45.720703 11.458984 C 47.659439 12.099236 50.107288 12.934741 53.529297 14.185547 C 62.042796 17.297376 75.195005 26.632518 73.433594 28.6875 C 71.910696 30.464223 63.385455 29.394488 60.992188 29.058594 C 57.074811 21.424623 51.776905 15.155353 45.720703 11.458984 z M 36.449219 20.226562 C 36.213676 20.231952 35.967807 20.2616 35.710938 20.320312 C 33.655933 20.790025 34.360847 22.756638 35.476562 22.375 C 36.592128 21.993366 38.089201 20.877827 39.351562 21.40625 C 39.197453 21.303499 38.098016 20.188836 36.449219 20.226562 z M 30.304688 20.242188 C 29.91936 20.223838 29.472059 20.46602 29.28125 20.847656 L 29.28125 20.849609 C 29.28125 20.849609 25.934666 26.043966 25.40625 28.421875 C 24.877834 30.79978 26.31677 30.155296 27.109375 28.716797 C 27.259182 28.444928 27.662228 27.742571 27.931641 27.279297 A 1.1997501 0.83238095 58.313185 0 0 28.070312 27.59375 A 1.1997501 0.83238095 58.313185 0 0 29.091797 28.3125 C 28.858755 28.777866 28.655357 29.228617 28.582031 29.558594 C 28.343921 30.630456 28.992331 30.337873 29.349609 29.689453 C 29.706775 29.041041 31.02908 26.898214 31.082031 26.302734 C 31.134945 25.707255 30.500131 25.800458 30.328125 26.144531 C 30.328125 26.144531 30.005893 26.669504 29.701172 27.1875 A 1.1997501 0.83238095 58.313185 0 0 29.542969 26.8125 A 1.1997501 0.83238095 58.313185 0 0 28.605469 26.099609 C 29.707481 24.182979 30.878049 22.067733 30.955078 21.201172 C 31.01385 20.540643 30.690014 20.260536 30.304688 20.242188 z M 37.414062 24.224609 C 36.694819 24.209869 34.931641 25.957031 34.931641 25.957031 C 34.931641 25.957031 36.137055 25.472162 36.445312 26.191406 L 36.443359 26.191406 C 36.443359 26.191406 34.301769 30.830658 32.863281 33.414062 C 31.424793 35.997464 29.458257 38.28603 29.810547 38.814453 C 29.843881 38.864459 29.899324 38.900277 29.941406 38.945312 C 29.925922 39.226554 30.162455 39.522721 30.955078 39.753906 C 33.068741 40.370404 36.591345 38.609277 38.734375 35.791016 C 40.877443 32.972758 38.969417 28.86304 38.5 27.072266 C 38.03028 25.281499 38.133307 24.239289 37.414062 24.224609 z M 49.009766 25.751953 L 48.099609 29.832031 L 49.978516 27.542969 L 52.443359 26.955078 C 52.267233 26.867015 49.009766 25.751953 49.009766 25.751953 z M 36.904297 27.041016 C 37.151097 27.480602 37.342278 27.836897 37.738281 28.648438 L 37.472656 30.330078 L 36.533203 29.773438 L 36.384766 32.091797 L 35.269531 31.740234 L 35.357422 34.236328 L 34.417969 33.941406 L 34.037109 36.173828 L 32.628906 35.9375 L 32.431641 38.980469 C 31.846338 39.144011 31.322515 39.255105 31.042969 39.197266 C 30.840902 39.155464 30.719177 39.06654 30.644531 38.958984 C 30.689143 38.445155 31.046434 37.5267 32.246094 35.791016 C 34.291855 32.831189 36.099702 28.891649 36.904297 27.041016 z M 50.830078 28.216797 L 49.919922 32.296875 L 51.798828 30.007812 L 54.263672 29.419922 C 54.087546 29.331821 50.830078 28.216797 50.830078 28.216797 z M 16.158203 29.597656 C 13.046405 29.715086 14.073813 30.654627 17.126953 31.447266 C 17.545596 31.555952 17.937229 31.683778 18.34375 31.806641 A 1.6150151 0.99813419 81.920728 0 0 18.251953 32.878906 A 1.6150151 0.99813419 81.920728 0 0 19.46875 34.337891 A 1.6150151 0.99813419 81.920728 0 0 20.228516 32.597656 A 1.6150151 0.99813419 81.920728 0 0 20.181641 32.355469 C 21.772976 32.850942 22.844601 33.113507 22.265625 32.179688 C 22.265625 32.179688 19.270039 29.48023 16.158203 29.597656 z M 38.380859 30.035156 C 38.61343 30.59293 38.822516 31.156521 38.96875 31.681641 C 39.614596 34.000838 37.383558 36.672213 36.0625 37.464844 C 35.436746 37.840298 34.467626 38.282097 33.53125 38.630859 L 33.361328 37.023438 L 35.064453 37.113281 L 35.064453 34.880859 C 35.064453 34.880859 36.650735 35.291646 36.474609 34.96875 C 36.298483 34.645827 36.179688 32.767578 36.179688 32.767578 L 37.414062 33.001953 L 37.236328 31.09375 L 38.087891 31.623047 L 38.380859 30.035156 z M 52.560547 30.771484 L 51.650391 34.851562 L 53.529297 32.5625 L 55.996094 31.974609 C 55.819968 31.886509 52.560547 30.771484 52.560547 30.771484 z M 60.660156 33.328125 C 60.848 33.748842 61.037481 34.15711 61.222656 34.587891 C 59.85589 35.204419 55.748327 37.153122 52.748047 39.705078 C 49.387747 42.563254 45.274824 46.886685 43.876953 47.916016 C 43.058021 47.729547 42.264762 47.580805 41.503906 47.482422 C 42.244145 47.240785 42.98303 46.862983 43.697266 46.265625 C 48.264107 42.446068 53.205297 37.298505 57.232422 35.222656 C 59.004715 34.309112 60.005487 33.731582 60.660156 33.328125 z M 33.738281 45.837891 C 34.182816 46.135372 35.225234 46.841067 36.837891 47.365234 C 32.566462 47.730879 29.762529 49.298645 28.492188 50.179688 C 28.296013 49.997376 28.230463 49.945192 27.527344 49.255859 C 27.076887 48.814236 26.299269 48.376579 25.554688 48.001953 C 28.749711 47.617417 31.47606 46.814215 33.738281 45.837891 z M 24.169922 48.128906 C 24.513499 48.252103 24.855366 48.396149 25.160156 48.570312 C 26.343248 49.246386 27.638942 50.319142 27.902344 50.539062 C 27.360946 50.517534 26.7237 50.47219 26.447266 50.333984 C 26.064369 50.142533 23.219385 48.7522 22.148438 48.228516 C 22.840618 48.214123 23.513276 48.180618 24.169922 48.128906 z M 20.830078 48.791016 C 21.164691 48.992683 22.941515 50.065853 24.558594 50.998047 C 26.193168 51.940302 28.972676 51.163377 29.470703 51.023438 C 29.592537 51.057635 29.705161 51.077736 29.832031 51.123047 C 30.571828 51.387259 35.268503 54.683768 40.636719 58.796875 C 39.534482 59.278495 27.318537 64.592302 22.998047 65.265625 C 18.477052 65.970193 16.011388 61.800618 17.126953 57.103516 C 17.915672 53.78261 19.782106 50.48631 20.830078 48.791016 z M 65.650391 58.544922 C 65.251536 58.985228 64.856731 59.427396 64.453125 59.865234 C 63.541525 64.098978 61.984509 68.585291 59.753906 69.550781 C 58.689032 70.011698 57.433618 69.84205 56.03125 69.251953 C 56.237737 69.788454 56.45698 70.323404 56.667969 70.859375 C 59.99295 72.139842 61.976335 70.473374 63.916016 65.570312 C 64.951885 62.951838 65.442399 60.562203 65.650391 58.544922 z M 48.332031 63.865234 L 48.130859 64.783203 C 48.346738 64.962363 48.566321 65.141782 48.779297 65.320312 C 48.978348 65.127034 49.174989 64.932137 49.373047 64.738281 C 49.031864 64.456574 48.680987 64.159587 48.332031 63.865234 z "
         style="opacity:1;vector-effect:none;fill:#ffffff;fill-opacity:1;stroke:none;stroke-width:0.65759432px;stroke-linecap:butt;stroke-linejoin:miter;stroke-miterlimit:4;stroke-dasharray:none;stroke-dashoffset:0;stroke-opacity:1" />
      <path
         id="path3979"
         transform="matrix(0.26458333,0,0,0.26458333,125.03667,73.498406)"
         d="M 85.626953 0.00390625 C 79.530915 0.10175822 73.040593 2.2766066 70.205078 6.9433594 C 67.180587 11.92122 70.834724 19.103449 70.015625 22.001953 C 69.932744 22.295228 69.782949 22.644595 69.603516 23.019531 C 70.085337 23.345621 70.439074 23.591992 70.90625 23.914062 C 71.06198 23.571123 71.217362 23.227719 71.339844 22.884766 C 72.600089 19.356157 70.142409 19.166688 70.646484 11.857422 C 71.150598 4.5481482 75.497983 3.2248274 82.492188 1.2714844 C 89.486427 -0.68185862 93.267578 3.8222656 93.267578 3.8222656 C 93.267578 3.8222656 92.163561 3.5709849 90.777344 3.7285156 C 89.391089 3.8860463 88.289062 4.7363281 88.289062 4.7363281 C 88.289062 4.7363281 84.003823 2.0914531 78.710938 5.7460938 C 73.418012 9.4007265 74.427189 15.071355 75.939453 17.591797 C 77.451718 20.112232 79.030276 23.148449 77.960938 26 C 77.800029 26.429161 77.428416 27.285659 77.056641 28.144531 C 75.2805 27.649845 74.183594 27.3125 74.183594 27.3125 L 74.183594 28.21875 C 74.183594 28.21875 74.976347 28.557657 79.900391 29.916016 C 84.824435 31.274374 98.521037 33.821671 103.16211 33.029297 C 105.49948 32.630231 106.79724 32.246482 107.51562 31.962891 C 107.53794 32.042471 107.56192 32.116673 107.58398 32.197266 C 107.64983 32.436576 107.71044 32.695852 107.77344 32.947266 C 107.05915 33.428004 104.76582 34.374353 97.785156 34.332031 C 88.446435 34.275429 74.013672 29.351562 74.013672 29.351562 L 73.339844 29.673828 C 73.339844 29.673828 74.26055 30.434029 78.142578 31.394531 C 81.377181 32.194846 87.337292 34.094849 93.931641 34.919922 L 86.238281 39.255859 L 71.183594 30.3125 L 69.996094 30.3125 C 69.996094 30.3125 74.184187 33.482721 74.976562 33.878906 C 75.76894 34.275095 86.013672 40.613281 86.013672 40.613281 L 89.912109 38.431641 L 89.964844 38.613281 C 91.020012 42.284393 90.720462 44.931738 89.980469 47.337891 C 89.240135 49.74404 88.025139 51.908514 87.292969 54.484375 L 87.181641 54.869141 L 87.537109 55.060547 C 90.690747 56.806787 94.120037 58.262983 98.328125 56.816406 L 98.609375 56.720703 L 99.355469 52.21875 L 98.720703 52.261719 C 97.621163 52.338821 96.546869 52.512261 95.582031 52.460938 C 94.708507 52.414487 93.961997 52.104568 93.242188 51.494141 C 95.451508 47.551375 95.350368 43.293838 95.228516 39.166016 L 95.212891 38.753906 L 90.683594 38.001953 L 94.615234 35.802734 L 101.63477 40.046875 L 108.33398 35.402344 C 108.39756 35.715177 108.466 36.012501 108.52539 36.337891 C 108.65761 37.062224 108.76807 37.773436 108.85742 38.470703 C 108.87825 38.632848 108.88761 38.788484 108.90625 38.949219 C 108.96487 39.45672 109.02307 39.96152 109.06055 40.455078 C 109.07798 40.682269 109.08251 40.900669 109.0957 41.125 C 109.1217 41.574154 109.14857 42.025057 109.1582 42.462891 C 109.16019 42.548753 109.15682 42.631359 109.1582 42.716797 C 109.20543 45.861089 108.85075 48.720549 108.27734 51.351562 L 108.28516 51.359375 C 107.79257 53.621294 107.13774 55.700771 106.44531 57.662109 C 106.48505 57.659528 106.52471 57.656899 106.56445 57.654297 C 107.15558 57.616445 107.74637 57.582346 108.33789 57.539062 C 108.75545 56.204952 109.14541 54.846172 109.48633 53.474609 C 109.8653 54.223424 110.53129 55.549082 111.36133 57.289062 C 111.92589 57.240489 112.48987 57.202981 113.05469 57.150391 C 113.87037 59.235248 114.71506 61.31331 115.5625 63.390625 C 116.28207 65.142578 117.01077 66.89296 117.74805 68.640625 C 118.41317 68.500624 118.9792 67.340173 119.51367 65.015625 C 120.78579 59.483051 119.8313 50.572196 117.1543 42.804688 C 115.2572 37.300137 111.05207 32.94305 108.74023 30.84375 C 106.56128 23.982402 103.80845 20.812081 103.44727 20.253906 C 102.95744 19.496459 104.56128 17.936394 103.22461 15.664062 C 102.22951 13.972404 101.54792 13.17326 101.18164 12.771484 C 102.65512 13.332883 103.40234 13.748047 103.40234 13.748047 C 103.40234 13.748047 103.13526 10.629512 99.615234 8.8027344 C 99.065254 8.5173015 98.404658 8.3504011 97.689453 8.2597656 C 97.630297 7.8733134 97.385758 6.3873666 96.71875 5.328125 C 95.961295 4.1251316 93.266968 0.2007556 86.839844 0.01171875 C 86.438156 2.2150097e-06 86.033366 -0.0025189466 85.626953 0.00390625 z M 92.017578 4.7285156 C 92.486686 4.7325017 92.992757 4.8509879 93.509766 5.109375 C 93.322399 5.1013726 93.181754 5.0846759 92.953125 5.0820312 C 90.992684 5.0597511 88.965333 6.6640079 88.898438 6.7753906 C 88.941296 7.2684376 89.348297 7.1832832 89.847656 6.9433594 A 2.5401837 2.706565 0 0 0 89.382812 8.5 A 2.5401837 2.706565 0 0 0 89.597656 9.578125 C 88.376815 10.046462 87.402886 10.544377 87.005859 10.941406 C 85.64693 12.300343 87.407149 17.654779 90.431641 19.041016 C 93.456208 20.427263 96.322366 19.355418 97.519531 18.158203 C 98.716772 16.960992 98.181641 15.732422 98.181641 15.732422 C 98.181641 15.732422 96.749201 17.30691 94.921875 16.550781 C 93.315343 15.886015 93.397222 13.382447 93.441406 12.757812 C 95.547184 12.168723 97.570092 11.659393 99.386719 12.166016 C 100.40638 13.179742 102.21165 15.114116 102.4668 16.421875 C 102.82324 18.248645 101.57551 19.986942 101.75391 20.298828 C 101.88386 20.526261 104.33419 22.995506 106.44727 28.662109 L 106.44531 28.662109 C 106.64149 29.188174 106.83502 29.739591 107.02344 30.320312 C 107.02557 30.326906 107.02717 30.333243 107.0293 30.339844 C 107.1144 30.602558 107.19481 30.889761 107.27734 31.166016 C 106.41883 31.590064 104.53944 32.009774 100.55859 32.179688 C 94.116183 32.454668 84.019994 30.025735 78.378906 28.5 C 79.246195 26.408436 79.756145 24.633026 79.386719 22.970703 C 78.49562 18.960719 76.356086 17.267804 75.955078 13.257812 C 75.622555 9.9326556 78.629918 6.8271758 81.394531 5.4804688 C 81.611623 5.5295904 81.842858 5.5868937 82.078125 5.6464844 A 3.8932105 3.5639732 0 0 0 79.859375 8.859375 A 3.8932105 3.5639732 0 0 0 83.753906 12.421875 A 3.8932105 3.5639732 0 0 0 87.646484 8.859375 A 3.8932105 3.5639732 0 0 0 87.125 7.0839844 C 87.297156 7.1264221 87.413496 7.1466466 87.429688 7.1308594 C 87.897515 6.908094 87.117186 6.21875 87.117188 6.21875 C 86.894573 5.9959846 86.560668 5.7055016 84.199219 4.9257812 C 84.024487 4.8680864 83.858747 4.8287456 83.689453 4.7832031 C 86.429987 4.5269349 88.654297 6.4414062 88.654297 6.4414062 C 88.654297 6.4414062 89.011429 5.9959734 89.679688 5.5058594 C 90.097394 5.1995334 90.967135 4.7195899 92.017578 4.7285156 z M 83.017578 5.9023438 C 84.189539 6.2260366 85.346885 6.5709491 86.207031 6.8242188 A 3.3158497 3.0354382 0 0 1 87.068359 8.859375 A 3.3158497 3.0354382 0 0 1 83.753906 11.894531 A 3.3158497 3.0354382 0 0 1 80.4375 8.859375 A 3.3158497 3.0354382 0 0 1 83.017578 5.9023438 z M 91.921875 6.1933594 A 2.1634759 2.3051829 0 0 1 94.082031 8.3847656 C 93.828028 8.4239758 93.576983 8.4764573 93.324219 8.5253906 A 1.4013284 1.4931149 0 0 0 93.324219 8.4980469 A 1.4013284 1.4931149 0 0 0 91.923828 7.0058594 A 1.4013284 1.4931149 0 0 0 90.521484 8.4980469 A 1.4013284 1.4931149 0 0 0 90.679688 9.1816406 C 90.417721 9.2657192 90.19805 9.3585693 89.953125 9.4472656 A 2.1634759 2.3051829 0 0 1 89.759766 8.5 A 2.1634759 2.3051829 0 0 1 91.921875 6.1933594 z M 93.248047 6.1933594 C 93.903261 6.261743 94.557476 6.327552 95.003906 6.3046875 C 95.627293 7.0347258 95.907122 7.7477254 96.03125 8.1894531 C 95.515024 8.2058523 94.988144 8.2451062 94.455078 8.3164062 A 2.5401837 2.706565 0 0 0 93.248047 6.1933594 z M 83.753906 7.0839844 A 1.9381636 1.7742589 0 0 0 81.816406 8.859375 A 1.9381636 1.7742589 0 0 0 83.753906 10.632812 A 1.9381636 1.7742589 0 0 0 85.691406 8.859375 A 1.9381636 1.7742589 0 0 0 83.753906 7.0839844 z M 83.107422 7.4296875 A 0.66833225 0.61181338 0 0 1 83.775391 8.0429688 A 0.66833225 0.61181338 0 0 1 83.107422 8.6542969 A 0.66833225 0.61181338 0 0 1 82.439453 8.0429688 A 0.66833225 0.61181338 0 0 1 83.107422 7.4296875 z M 91.480469 7.4511719 A 0.48336163 0.48336163 0 0 1 91.964844 7.9335938 A 0.48336163 0.48336163 0 0 1 91.480469 8.4179688 A 0.48336163 0.48336163 0 0 1 90.996094 7.9335938 A 0.48336163 0.48336163 0 0 1 91.480469 7.4511719 z M 96.472656 8.9824219 C 97.348407 8.9819291 98.156811 9.0610319 98.810547 9.2421875 C 101.42553 9.9668174 102.5332 12.833984 102.5332 12.833984 C 102.5332 12.833984 99.168564 10.495174 95.916016 11.453125 C 92.663468 12.411065 90.258686 12.96887 89.412109 12.746094 C 88.565571 12.523328 88.208984 12.345703 88.208984 12.345703 C 88.208984 12.345703 88.169745 12.813759 88.544922 13.169922 C 88.955868 14.409299 90.140624 17.324715 92.416016 17.859375 C 94.80008 18.419569 96.970811 17.326022 97.683594 16.914062 C 97.30527 17.54728 96.666677 18.269207 95.628906 18.630859 C 93.549524 19.355486 91.21913 19.765104 88.761719 16.457031 C 86.30427 13.148951 87.312794 11.573139 89.203125 10.501953 C 90.620873 9.6985637 93.845404 8.9839003 96.472656 8.9824219 z M 89.390625 13.810547 C 89.390625 13.810547 89.73925 13.746876 91.0625 14.376953 C 92.385713 15.007065 93.644531 17.576172 93.644531 17.576172 C 93.644531 17.576172 93.739837 17.702149 92.101562 17.339844 C 90.46329 16.977538 89.390625 13.810547 89.390625 13.810547 z M 64.925781 30.027344 C 64.492033 30.594422 64.449699 30.642318 64.132812 31.048828 C 63.379645 31.531765 62.620838 32.024176 61.882812 32.484375 L 62.40625 34.039062 C 63.125168 33.582757 63.431838 33.405575 64.048828 33.019531 L 66.640625 38.814453 C 66.097883 39.725895 65.551237 40.718315 65.035156 41.837891 L 65.353516 42.779297 C 65.353516 42.779297 65.636449 43.908965 65.691406 44.121094 C 67.890192 38.93955 70.133694 33.846174 70.708984 33.40625 C 70.708984 33.40625 69.858434 34.228107 68.699219 35.746094 L 66.400391 31.560547 C 67.020176 31.179978 67.958254 30.5863 68.466797 30.277344 C 67.583658 30.247428 66.685433 30.179192 65.808594 30.103516 C 65.514974 30.07786 65.211619 30.05527 64.925781 30.027344 z M 65.734375 31.972656 L 68.007812 36.685547 C 67.734125 37.073383 67.452311 37.502973 67.164062 37.955078 L 64.888672 32.498047 C 65.182035 32.315796 65.463884 32.139561 65.734375 31.972656 z M 109.17773 32.318359 C 109.96229 32.994791 111.62449 35.286242 113.34375 38.367188 C 113.19145 38.585203 113.01469 38.816591 112.7832 39.056641 C 112.31679 39.540333 111.48581 39.997262 110.79883 40.341797 C 110.7734 40.108817 110.75356 39.872737 110.7207 39.644531 C 110.57254 38.615372 110.40057 37.650111 110.21875 36.712891 C 110.16952 36.459587 110.11777 36.21537 110.06641 35.96875 C 109.9122 35.226525 109.74897 34.513612 109.57812 33.830078 C 109.53768 33.668699 109.50025 33.499935 109.45898 33.341797 C 109.3674 32.989615 109.27285 32.654718 109.17773 32.318359 z M 107.96289 33.693359 C 108.00737 33.877387 108.05281 34.052468 108.0957 34.242188 C 108.10962 34.303508 108.12099 34.371869 108.13477 34.433594 C 106.39672 35.636961 101.62768 38.862313 101.06836 38.349609 C 100.51201 37.839623 97.1419 35.91294 95.736328 35.113281 C 96.468765 35.179912 97.200754 35.248413 97.941406 35.28125 C 104.11955 35.555156 106.95118 34.31123 107.96289 33.693359 z M 90.939453 39.070312 L 94.208984 39.601562 C 94.334843 43.776085 94.481263 47.832881 92.216797 51.488281 L 92.001953 51.826172 L 92.291016 52.115234 C 93.265642 53.073673 94.413681 53.405396 95.53125 53.464844 C 96.428888 53.512579 97.3004 53.385808 98.152344 53.302734 L 97.722656 55.878906 C 94.168502 56.989142 91.300552 55.910984 88.421875 54.351562 C 89.126568 52.085159 90.203806 50.025562 90.939453 47.634766 C 91.657715 45.300378 91.754811 42.480232 90.939453 39.070312 z M 113.81445 39.259766 C 114.05112 39.701888 114.28587 40.13694 114.51953 40.603516 C 114.3894 40.738407 114.23074 40.892748 114.0293 41.066406 C 113.38367 41.622999 111.74387 42.258797 110.9375 42.560547 C 110.93719 42.540085 110.93591 42.520436 110.93555 42.5 C 110.92929 42.156615 110.91407 41.818159 110.89453 41.482422 C 110.8885 41.377959 110.88823 41.269685 110.88086 41.166016 L 111.08594 41.066406 C 111.82731 40.706313 113.08972 39.792924 113.81445 39.259766 z M 115.14648 41.929688 C 116.21978 44.223072 117.20351 46.699193 117.8457 49.169922 C 119.83559 56.826107 118.73914 63.445167 118.06445 65.861328 C 117.38981 68.277493 116.86732 66.725167 114.99219 61.035156 C 113.48409 56.458917 110.93483 52.714383 109.95898 51.373047 C 109.99039 51.224511 110.02259 51.076188 110.05273 50.927734 C 110.11669 50.612031 110.17255 50.299333 110.23047 49.984375 C 110.34128 49.383824 110.44032 48.786564 110.52734 48.191406 C 110.63446 47.454826 110.73271 46.722293 110.79883 46 C 110.80373 45.946952 110.80588 45.894749 110.81055 45.841797 C 110.85068 45.381896 110.88065 44.926274 110.90234 44.474609 C 110.90674 44.384655 110.91238 44.294665 110.91602 44.205078 C 112.05203 43.740061 114.72838 42.175687 115.14648 41.929688 z "
         style="opacity:1;vector-effect:none;fill:#ffffff;fill-opacity:1;fill-rule:nonzero;stroke:none;stroke-width:0.65759432px;stroke-linecap:butt;stroke-linejoin:miter;stroke-miterlimit:4;stroke-dasharray:none;stroke-dashoffset:0;stroke-opacity:1;paint-order:stroke fill markers;font-variant-east_asian:normal" />
      <path
         id="path4117"
         transform="matrix(0.26458333,0,0,0.26458333,125.03667,73.498406)"
         d="M 42.617188 50.166016 A 1.6078466 1.6078466 0 0 0 41.525391 50.550781 A 1.6078466 1.6078466 0 0 0 41.015625 51.361328 L 41.007812 51.361328 L 32.296875 83.894531 A 1.6078466 1.6078466 0 0 0 33.441406 85.865234 C 36.614395 86.711849 39.800063 87.482529 43 88.183594 A 1.6078466 1.6078466 0 0 0 44.912109 86.957031 L 46.603516 79.265625 C 47.308662 78.647839 47.999211 78.023037 48.693359 77.398438 C 50.14209 81.421377 51.644043 85.43653 53.328125 89.429688 A 1.6078466 1.6078466 0 0 0 54.546875 90.396484 C 58.072418 90.975708 61.604084 91.469446 65.146484 91.880859 A 1.6078466 1.6078466 0 0 0 66.771484 89.5625 C 63.370099 82.780293 60.380028 75.922124 57.712891 69.027344 C 61.508254 65.335017 65.160881 61.561454 68.59375 57.673828 A 1.6078466 1.6078466 0 0 0 67.589844 55.015625 C 64.623444 54.645042 61.669568 54.205779 58.732422 53.695312 A 1.6078466 1.6078466 0 0 0 57.263672 54.203125 C 55.140711 56.561569 52.839316 58.820986 50.582031 61.105469 L 52.125 54.070312 A 1.6078466 1.6078466 0 0 0 50.900391 52.158203 C 48.280498 51.583008 45.675154 50.947136 43.089844 50.253906 A 1.6078466 1.6078466 0 0 0 43.03125 50.240234 C 43.012352 50.235699 42.996279 50.229145 42.978516 50.224609 A 1.6078466 1.6078466 0 0 0 42.617188 50.166016 z M 139.51953 51.40625 C 138.45873 51.400959 137.41964 51.492196 136.41992 51.671875 C 128.90029 53.023351 123.81625 59.107941 124.73438 65.734375 C 125.49979 71.258162 129.73322 74.401218 134.10156 75.353516 C 135.59909 75.706259 137.10265 76.047037 138.61133 76.378906 A 1.6078466 1.6078466 0 0 0 138.64258 76.386719 C 140.21036 76.704237 141.42454 76.918847 142.05273 77.146484 C 142.68097 77.374125 142.53547 77.26312 142.57617 77.478516 C 142.63702 77.799964 142.65854 77.714332 142.45898 77.900391 C 142.25905 78.086457 141.60913 78.445751 140.39844 78.660156 C 138.40247 79.013618 135.3404 78.319805 132.88477 76.939453 A 1.6078466 1.6078466 0 0 0 130.73633 77.494141 C 129.33152 79.745371 127.88478 81.986261 126.40625 84.216797 C 122.16344 75.074318 118.19027 65.858753 114.55469 56.566406 A 1.6078466 1.6078466 0 0 0 112.90039 55.554688 L 112.9082 55.546875 C 109.54805 55.859744 106.18606 56.106414 102.83789 56.271484 A 1.6078466 1.6078466 0 0 0 101.35547 57.511719 C 99.295587 66.336307 96.951376 75.135359 94.298828 83.894531 C 94.200946 84.217271 94.092941 84.538627 93.994141 84.861328 L 93.994141 84.359375 A 1.6078466 1.6078466 0 0 0 92.384766 82.75 C 88.478246 82.753632 84.574816 82.615789 80.669922 82.417969 L 82.087891 57.894531 A 1.6078466 1.6078466 0 0 0 80.574219 56.197266 C 77.836405 56.039622 75.111859 55.825762 72.388672 55.554688 A 1.6078466 1.6078466 0 0 0 72.380859 55.554688 A 1.6078466 1.6078466 0 0 0 72.21875 55.546875 A 1.6078466 1.6078466 0 0 0 70.625 56.994141 A 1.6078466 1.6078466 0 0 0 70.617188 57.068359 L 67.273438 90.507812 A 1.6078466 1.6078466 0 0 0 68.705078 92.265625 C 76.58974 93.056899 84.504844 93.441826 92.400391 93.431641 A 1.6078466 1.6078466 0 0 0 92.955078 93.328125 A 1.6078466 1.6078466 0 0 0 93.507812 93.423828 C 94.334433 93.419671 95.155738 93.408138 95.980469 93.394531 C 98.470799 93.351898 100.95828 93.278721 103.4375 93.166016 A 1.6078466 1.6078466 0 0 0 104.94336 91.880859 C 105.35136 89.871829 105.73844 87.859679 106.12305 85.849609 C 108.59376 85.709011 111.05963 85.534356 113.51953 85.326172 C 114.18133 87.261664 114.84559 89.198006 115.52734 91.128906 A 1.6078466 1.6078466 0 0 0 117.19727 92.191406 C 120.57299 91.869995 123.93215 91.488376 127.2793 91.054688 A 1.6078466 1.6078466 0 0 0 128.52734 88.773438 C 128.24868 88.187675 127.98338 87.598136 127.70703 87.011719 C 132.18898 89.584057 137.51324 90.220532 142.07422 89.416016 C 151.57331 87.740347 156.17357 80.713653 154.78516 74.267578 C 153.68509 69.160397 149.93601 66.223933 145.09375 65.335938 C 143.65383 65.075415 142.21746 64.809809 140.78906 64.53125 C 139.16296 64.217814 137.89066 63.976994 137.20898 63.726562 C 136.86807 63.601348 136.693 63.481481 136.64844 63.439453 C 136.60384 63.397387 136.63426 63.462169 136.61914 63.378906 C 136.57227 63.101602 136.56184 63.169241 136.75195 62.996094 C 136.94206 62.822954 137.48541 62.545242 138.3457 62.390625 C 140.40211 62.021063 141.99283 62.363202 144.37695 63.431641 A 1.6078466 1.6078466 0 0 0 146.4668 62.685547 C 147.54691 60.558542 148.59979 58.434196 149.63281 56.300781 A 1.6078466 1.6078466 0 0 0 149.07227 54.255859 C 146.0909 52.300876 142.70314 51.423394 139.51953 51.40625 z M 42.564453 51.775391 C 45.210274 52.486709 47.875179 53.137849 50.556641 53.726562 L 47.871094 65.970703 C 47.937991 65.985481 48.005368 65.998176 48.072266 66.013672 C 51.696455 62.527916 55.157794 58.946663 58.458984 55.279297 C 61.421794 55.794223 64.401195 56.237608 67.392578 56.611328 C 63.738644 60.749314 59.878566 64.783599 55.810547 68.697266 C 58.580071 75.950217 61.761978 83.156964 65.335938 90.283203 C 61.818369 89.874674 58.308852 89.383664 54.808594 88.808594 C 52.826383 84.1086 51.005661 79.384542 49.353516 74.646484 C 47.972174 75.91709 46.568669 77.175098 45.142578 78.417969 L 43.34375 86.613281 C 40.166981 85.917293 37.002769 85.148873 33.853516 84.308594 L 42.564453 51.775391 z M 139.50977 53.015625 C 142.40424 53.031212 145.49205 53.830073 148.1875 55.597656 C 147.15867 57.722397 146.10848 59.843427 145.0332 61.960938 C 142.50149 60.826463 140.46373 60.372427 138.05859 60.804688 C 135.96254 61.1814 134.7869 62.162631 135.03711 63.646484 C 135.30364 65.227419 137.2674 65.487693 140.48242 66.107422 C 141.91879 66.387534 143.36037 66.658227 144.80664 66.919922 C 149.24373 67.733616 152.23052 70.042748 153.21289 74.603516 C 154.4039 80.133082 150.66367 86.269853 141.79688 87.833984 C 137.32883 88.622107 131.9614 87.88334 127.72266 85.142578 C 129.21856 82.886548 130.67509 80.620292 132.0957 78.34375 C 134.82086 79.8756 138.12013 80.695125 140.67773 80.242188 C 143.44087 79.752845 144.43247 78.653491 144.1543 77.181641 C 143.85519 75.598623 142.02875 75.42832 138.95898 74.806641 C 137.448 74.474258 135.9427 74.132607 134.44336 73.779297 C 130.53669 72.927645 126.99459 70.351652 126.32422 65.513672 C 125.53434 59.812924 129.86132 54.485158 136.70117 53.255859 C 137.60119 53.094096 138.54497 53.010712 139.50977 53.015625 z M 113.05469 57.150391 C 117.3093 68.024979 122.00134 78.797681 127.07422 89.460938 C 123.74434 89.892388 120.40175 90.270247 117.04492 90.589844 C 116.22733 88.274199 115.42321 85.956518 114.63477 83.634766 C 111.35886 83.926749 108.0745 84.160856 104.78125 84.332031 C 104.32567 86.741378 103.85408 89.149433 103.36523 91.556641 C 100.90136 91.668628 98.430404 91.746695 95.955078 91.789062 C 95.13579 91.802669 94.317751 91.812249 93.498047 91.816406 C 94.30422 89.333593 95.082703 86.847632 95.837891 84.357422 C 98.500832 75.563897 100.8544 66.73216 102.92188 57.875 C 106.29419 57.708739 109.67212 57.465339 113.05469 57.150391 z M 72.220703 57.152344 C 74.968081 57.425921 77.724558 57.641738 80.486328 57.800781 L 78.972656 83.978516 C 83.442099 84.237047 87.917037 84.363532 92.388672 84.359375 L 92.396484 91.820312 C 84.554267 91.83043 76.698697 91.451761 68.869141 90.666016 L 72.220703 57.152344 z M 108.35742 64.1875 C 108.29052 64.191657 108.2251 64.198968 108.1582 64.203125 C 107.69056 67.709892 107.15347 71.698302 106.50195 75.001953 C 106.3575 75.789096 106.2087 76.576361 106.06055 77.363281 C 108.17224 77.239827 110.28362 77.08913 112.39062 76.914062 C 112.13314 76.155811 111.87508 75.397612 111.62109 74.638672 C 110.52643 71.505735 109.39759 67.488229 108.35742 64.1875 z M 108.75977 70.873047 C 109.21172 72.344413 109.63864 73.837112 110.0957 75.146484 C 110.0974 75.151776 110.09974 75.154865 110.10352 75.160156 C 110.10423 75.162212 110.1028 75.165701 110.10352 75.167969 C 110.13753 75.26601 110.16634 75.366841 110.19922 75.464844 C 109.47359 75.519458 108.74749 75.562875 108.02148 75.611328 C 108.04038 75.512569 108.06194 75.415203 108.08008 75.316406 L 108.08008 75.292969 C 108.35031 73.921057 108.52793 72.375885 108.75977 70.873047 z "
         style="color:#000000;font-style:normal;font-variant:normal;font-weight:900;font-stretch:normal;font-size:23.35468483px;line-height:1.25;font-family:'Source Sans Pro';-inkscape-font-specification:'Source Sans Pro, Heavy';font-variant-ligatures:normal;font-variant-position:normal;font-variant-caps:normal;font-variant-numeric:normal;font-variant-alternates:normal;font-feature-settings:normal;text-indent:0;text-align:start;text-decoration:none;text-decoration-line:none;text-decoration-style:solid;text-decoration-color:#000000;letter-spacing:0px;word-spacing:0px;text-transform:none;writing-mode:lr-tb;direction:ltr;text-orientation:mixed;dominant-baseline:auto;baseline-shift:baseline;text-anchor:start;white-space:normal;shape-padding:0;clip-rule:nonzero;display:inline;overflow:visible;visibility:visible;opacity:1;isolation:auto;mix-blend-mode:normal;color-interpolation:sRGB;color-interpolation-filters:linearRGB;solid-color:#000000;solid-opacity:1;vector-effect:none;fill:#ffffff;fill-opacity:1;fill-rule:nonzero;stroke:none;stroke-width:3.21537161;stroke-linecap:round;stroke-linejoin:round;stroke-miterlimit:4;stroke-dasharray:none;stroke-dashoffset:0;stroke-opacity:1;paint-order:stroke fill markers;color-rendering:auto;image-rendering:auto;shape-rendering:auto;text-rendering:auto;enable-background:accumulate" />
    </g>
  </g>
</svg>
