<?xml version="1.0" encoding="UTF-8" standalone="no"?>
<!-- Created with Inkscape (http://www.inkscape.org/) -->

<svg
   xmlns:dc="http://purl.org/dc/elements/1.1/"
   xmlns:cc="http://creativecommons.org/ns#"
   xmlns:rdf="http://www.w3.org/1999/02/22-rdf-syntax-ns#"
   xmlns:svg="http://www.w3.org/2000/svg"
   xmlns="http://www.w3.org/2000/svg"
   xmlns:sodipodi="http://sodipodi.sourceforge.net/DTD/sodipodi-0.dtd"
   xmlns:inkscape="http://www.inkscape.org/namespaces/inkscape"
   width="40.423134mm"
   height="28.4135mm"
   viewBox="0 0 40.423135 28.4135"
   version="1.1"
   id="svg8"
   inkscape:version="0.92.4 5da689c313, 2019-01-14"
   sodipodi:docname="model-2-monochrome.svg"
   inkscape:export-filename="./logo-putih.png"
   inkscape:export-xdpi="1885.0592"
   inkscape:export-ydpi="1885.0592">
  <defs
     id="defs2">
    <inkscape:path-effect
       effect="bend_path"
       id="path-effect2749"
       is_visible="true"
       bendpath="m 63.599609,408.875 c 82.096221,19.66337 164.664451,17.37694 246.875001,0"
       prop_scale="1"
       scale_y_rel="false"
       vertical="false"
       bendpath-nodetypes="cc" />
    <inkscape:path-effect
       effect="bend_path"
       id="path-effect1322"
       is_visible="true"
       bendpath="m 31.355469,355.97559 c 66.115094,17.68008 130.255421,13.63778 193.523441,0"
       prop_scale="1"
       scale_y_rel="false"
       vertical="false"
       bendpath-nodetypes="cc" />
    <clipPath
       clipPathUnits="userSpaceOnUse"
       id="clipPath2047">
      <path
         style="fill:none;stroke:#000000;stroke-width:0.26458332px;stroke-linecap:butt;stroke-linejoin:miter;stroke-opacity:1"
         d="m -184.41597,160.42527 c 0,0 22.71791,-8.55263 39.82316,-5.87993 17.10525,2.67269 31.80507,4.81085 33.67596,5.34539 1.87088,0.53454 10.958047,-0.80181 11.759859,-7.21628 0.801804,-6.41447 1.870882,-27.79603 -4.810849,-36.88319 -6.68174,-9.08717 -32.87416,-31.270535 -32.87416,-31.270535 0,0 -11.22532,-3.741772 -16.57071,-1.603618 -5.34539,2.138156 -24.85606,5.612659 -26.19241,15.234364 -1.33635,9.621699 -0.53454,12.561669 -4.54358,24.321529 -4.00904,11.75985 -10.42351,23.25244 -9.08717,26.45968 1.33635,3.20724 2.6727,9.6217 4.81086,11.75986 2.13815,2.13816 4.00904,-0.26727 4.00904,-0.26727 z"
         id="path2049"
         inkscape:connector-curvature="0" />
    </clipPath>
  </defs>
  <sodipodi:namedview
     id="base"
     pagecolor="#ffffff"
     bordercolor="#666666"
     borderopacity="1.0"
     inkscape:pageopacity="0.0"
     inkscape:pageshadow="2"
     inkscape:zoom="1.7787898"
     inkscape:cx="-32.498379"
     inkscape:cy="-16.704545"
     inkscape:document-units="mm"
     inkscape:current-layer="layer1"
     showgrid="false"
     inkscape:window-width="1346"
     inkscape:window-height="724"
     inkscape:window-x="6"
     inkscape:window-y="30"
     inkscape:window-maximized="1"
     inkscape:snap-global="false"
     inkscape:pagecheckerboard="true" />
  <metadata
     id="metadata5">
    <rdf:RDF>
      <cc:Work
         rdf:about="">
        <dc:format>image/svg+xml</dc:format>
        <dc:type
           rdf:resource="http://purl.org/dc/dcmitype/StillImage" />
        <dc:title />
      </cc:Work>
    </rdf:RDF>
  </metadata>
  <g
     inkscape:label="Layer 1"
     inkscape:groupmode="layer"
     id="layer1"
     transform="translate(-159.09669,-32.031123)">
    <path
       style="display:inline;opacity:1;vector-effect:none;fill:#ffffff;fill-opacity:1;stroke:none;stroke-width:0.98413479;stroke-linecap:round;stroke-linejoin:round;stroke-miterlimit:4;stroke-dasharray:none;stroke-dashoffset:0;stroke-opacity:0.99607843;marker:none;paint-order:stroke fill markers"
       d="m 178.96674,32.031967 c -1.41451,0.02281 -2.92011,0.527375 -3.57804,1.610217 -0.69598,1.145486 0.13083,2.792676 -0.0406,3.476075 -0.39541,-0.312101 -0.91733,-0.666759 -1.62182,-1.073318 -2.09406,-1.208461 -3.93613,-1.660651 -4.97175,-1.831065 -0.61185,-0.240606 -1.24826,-0.369823 -1.89921,-0.362925 -0.69509,0.0074 -1.40619,0.166816 -2.1215,0.504039 -3.81503,1.798512 -7.95741,6.921683 -4.08788,8.256944 1.1135,0.384236 2.11531,0.560437 3.00828,0.602138 -0.34349,0.352602 -1.06212,1.267312 -0.95878,2.684498 0.0745,1.022724 0.46279,1.466524 1.06075,1.572522 -0.0287,0.173246 -0.0681,0.433664 -0.0681,0.672212 0,0.327568 0.16382,0.549464 0.16382,0.549464 0,0 -0.0484,-0.35625 0.0865,-0.83797 0.0879,-0.313927 0.0838,-0.300053 0.10003,-0.358093 0.43423,0.0064 0.95289,-0.11732 1.52855,-0.30687 0.91249,-0.300454 1.81519,-0.686227 2.43755,-0.967965 l -1.41305,5.27766 a 0.37311624,0.37311624 0 0 0 0.26579,0.457163 c 0.73633,0.196465 1.47558,0.37566 2.21816,0.538349 a 0.37311624,0.37311624 0 0 0 0.44363,-0.284639 l 0.3924,-1.785156 c 0.16364,-0.143363 0.32411,-0.288054 0.4852,-0.432999 0.33619,0.933563 0.68443,1.86513 1.07524,2.791782 a 0.37311624,0.37311624 0 0 0 0.28319,0.224232 c 0.81814,0.134413 1.63774,0.249091 2.45979,0.344563 a 0.37311624,0.37311624 0 0 0 0.37694,-0.537866 c -0.70383,-1.403405 -1.32827,-2.821425 -1.89486,-4.246388 0.51539,0.004 0.8773,-0.423856 1.23231,-1.321226 0.1347,-0.340508 0.22642,-0.661838 0.29237,-0.963134 0.26048,-0.27871 0.51789,-0.559103 0.76886,-0.842801 0.12304,0.588351 0.22494,1.174402 0.30204,1.75036 l -0.58426,5.842588 a 0.37311624,0.37311624 0 0 0 0.33248,0.407868 c 1.82971,0.183624 3.66628,0.27299 5.49851,0.270625 a 0.37311624,0.37311624 0 0 0 0.12903,-0.02415 0.37311624,0.37311624 0 0 0 0.12807,0.02222 c 0.19183,-9.79e-4 0.38224,-0.0036 0.57362,-0.0068 0.57791,-0.0099 1.15522,-0.02701 1.73055,-0.05316 a 0.37311624,0.37311624 0 0 0 0.3494,-0.298167 c 0.0947,-0.466217 0.18475,-0.933061 0.274,-1.399515 0.57336,-0.03263 1.14568,-0.07347 1.71654,-0.121782 0.15356,0.449149 0.30764,0.898755 0.46586,1.34684 a 0.37311624,0.37311624 0 0 0 0.38756,0.246461 c 0.78336,-0.07459 1.56272,-0.163216 2.33946,-0.263857 a 0.37311624,0.37311624 0 0 0 0.28947,-0.52917 c -0.0646,-0.135932 -0.1258,-0.272752 -0.18992,-0.408835 1.04007,0.596937 2.27557,0.744375 3.334,0.55768 2.20435,-0.388855 3.27151,-2.019344 2.94931,-3.51522 -0.19364,-0.89904 -0.74152,-1.507592 -1.48504,-1.839279 l 0.001,-0.19137 c 0.0687,0.03963 0.15368,0.05074 0.15368,0.05074 0,0 -0.12062,0.150694 0.13193,0.211667 0.25256,0.06097 1.58307,-0.571279 2.09492,-1.113908 0.51183,-0.542637 1.22396,-1.760288 0.72441,-3.21125 -0.38637,-1.122196 -1.43928,-2.153015 -2.20753,-2.709627 1.31038,-0.785599 2.10276,-1.107236 2.27567,-1.173351 0.59967,0.185836 0.98681,-0.07297 0.98681,-0.07297 h 0.16382 l 0.13531,0.08167 c 0.13495,0.08194 1.16576,0.313268 1.3971,-0.534967 0.12661,-0.464188 0.16426,-0.93247 0.0686,-1.338626 0.0189,-0.04187 0.0362,-0.100589 0.0478,-0.184121 0.0482,-0.342185 -0.01,-0.843618 -0.30397,-0.790609 -0.10885,0.01962 -0.20445,0.07538 -0.28174,0.137246 -0.001,-7.41e-4 -0.002,-0.0012 -0.003,-0.002 -0.32291,-0.231335 -0.84337,-0.301459 -1.40241,-0.284638 -0.55905,0.01683 -1.15679,0.11996 -1.63389,0.235831 -0.42822,0.103994 -0.67641,0.165099 -1.17722,0.287538 0.0269,-0.100025 0.0292,-0.278905 -0.20297,-0.488091 -0.26602,-0.239686 -0.71299,-0.06945 -0.90611,0.02175 0.003,-0.176213 -0.0146,-0.362262 -0.0657,-0.553328 -0.17707,-0.661711 -0.84092,-1.492148 -1.5817,-1.442043 -0.14246,-0.06834 -0.70721,-0.325915 -1.5039,-0.53545 -0.18459,-0.216774 -0.75528,-0.850113 -1.30487,-1.034643 -0.12379,-0.04158 -0.22878,-0.05607 -0.31702,-0.05026 l -5.3e-4,4.95e-4 c -0.38244,0.02518 -0.45043,0.427125 -0.37211,0.622918 0.0645,0.161258 0.0773,0.192194 0.10002,0.248395 -0.0527,0.004 -0.10542,0.0058 -0.15753,0.01208 -1.07464,0.128954 -1.6084,0.906833 -1.86249,1.621814 -0.15605,0.08806 -1.48045,0.853627 -1.6218,1.650325 -0.13888,0.78283 1.18269,0.295528 1.38549,0.216982 -0.28314,0.478437 -0.37911,1.014779 -0.17541,1.577837 -0.16382,0.12022 -0.77044,0.582482 -0.6611,0.784327 0.0868,0.16014 0.66412,0.122972 1.01919,0.08554 0.0216,0.05504 0.15077,0.384407 0.20104,0.450396 0.029,0.03799 0.0673,0.08933 0.101,0.131929 -0.0847,0.0032 -0.18115,0.01005 -0.3059,0.02513 -0.23362,0.02825 -0.5947,0.12743 -1.00276,0.283189 -0.40347,-0.553121 -0.83832,-0.992444 -1.13759,-1.264204 -0.50565,-1.592242 -1.14463,-2.327836 -1.22844,-2.457367 -0.11367,-0.175773 0.25843,-0.537782 -0.0517,-1.065101 -0.23093,-0.392564 -0.38907,-0.578009 -0.47408,-0.671245 0.34194,0.130278 0.51564,0.226649 0.51564,0.226649 0,0 -0.0622,-0.723816 -0.87905,-1.147737 -0.12761,-0.06624 -0.281,-0.105098 -0.44697,-0.126131 -0.0138,-0.08968 -0.0704,-0.434138 -0.2252,-0.679943 -0.17577,-0.279168 -0.8011,-1.189891 -2.29257,-1.233758 -0.0931,-0.0027 -0.18663,-0.0034 -0.28078,-0.002 z m 0.1068,0.180256 c 1.0878,0.01561 1.66676,0.705556 1.66676,0.705556 0,0 -0.25581,-0.0583 -0.5775,-0.02175 -0.32169,0.03655 -0.57749,0.233896 -0.57749,0.233896 0,0 -0.99473,-0.613713 -2.22299,0.234381 -1.22827,0.848092 -0.99366,2.164363 -0.64273,2.749255 0.35094,0.584891 0.71692,1.289182 0.46876,1.950911 -0.0373,0.09959 -0.12346,0.298448 -0.20973,0.497756 -0.33719,-0.09391 -0.47246,-0.135853 -0.5456,-0.158025 -0.0711,-0.252834 -0.28569,-0.594366 -0.79013,-1.040454 0.003,-0.0074 0.007,-0.01485 0.009,-0.02222 0.29245,-0.818848 -0.2779,-0.862665 -0.16092,-2.558851 0.11698,-1.696186 1.12569,-2.003108 2.74877,-2.456399 0.30433,-0.08499 0.58259,-0.117655 0.83362,-0.11405 z m 9.78694,0.72972 c 0.0299,-0.0025 0.0625,-0.0022 0.0967,0.0015 0.22816,0.02306 0.54119,0.175514 0.7882,0.43155 0.18509,0.191878 0.28246,0.2965 0.34601,0.365342 -0.4218,-0.09046 -0.87372,-0.149511 -1.31978,-0.139661 -0.072,-0.137503 -0.18363,-0.392465 -0.10149,-0.553331 0.0325,-0.06371 0.10064,-0.09801 0.19041,-0.10535 z m -8.41014,0.186538 h 5e-4 c 0.10873,9.89e-4 0.22621,0.02856 0.34601,0.08844 -0.0435,-0.002 -0.0765,-0.0061 -0.12951,-0.0068 -0.45494,-0.0051 -0.92538,0.367525 -0.9409,0.393374 0.01,0.114415 0.10447,0.09434 0.22036,0.03866 a 0.58947402,0.6280844 0 0 0 -0.10776,0.361475 0.58947402,0.6280844 0 0 0 0.0498,0.249846 c -0.28331,0.108683 -0.50903,0.2244 -0.60117,0.316535 -0.31536,0.315354 0.0931,1.557698 0.79496,1.879389 0.70188,0.321691 1.3667,0.07341 1.64452,-0.204418 0.27783,-0.277824 0.15368,-0.562995 0.15368,-0.562995 0,0 -0.33225,0.365387 -0.7563,0.189921 -0.37281,-0.154267 -0.35385,-0.735544 -0.3436,-0.880498 0.48867,-0.136704 0.95815,-0.254811 1.37971,-0.137246 0.23663,0.235245 0.65552,0.684302 0.71473,0.98778 0.0827,0.423921 -0.20667,0.826967 -0.16527,0.899344 0.0302,0.05278 0.59842,0.625776 1.08878,1.940764 h -5e-4 c 0.0455,0.122076 0.0906,0.250395 0.13435,0.385157 5e-4,0.0015 9.7e-4,0.0027 0.002,0.0044 0.0197,0.06096 0.0384,0.127745 0.0575,0.191854 -0.19923,0.0984 -0.63569,0.195913 -1.55948,0.235346 -1.49504,0.06381 -3.83763,-0.499857 -5.14669,-0.853917 0.20126,-0.485367 0.31962,-0.897292 0.23389,-1.28305 -0.20678,-0.930555 -0.70335,-1.323842 -0.7964,-2.254399 -0.0772,-0.771634 0.62072,-1.491969 1.26226,-1.804485 0.0503,0.01141 0.10392,0.02483 0.15851,0.03866 a 0.90345691,0.82705424 0 0 0 -0.51467,0.745184 0.90345691,0.82705424 0 0 0 0.9037,0.826856 0.90345691,0.82705424 0 0 0 0.9032,-0.826856 0.90345691,0.82705424 0 0 0 -0.12081,-0.411735 c 0.0399,0.0098 0.0668,0.0143 0.0706,0.01064 0.10856,-0.05169 -0.0725,-0.211668 -0.0725,-0.211668 -0.0516,-0.05169 -0.12904,-0.119161 -0.67705,-0.300103 -0.0405,-0.01338 -0.0791,-0.02229 -0.11839,-0.03286 0.63596,-0.05947 1.15208,0.384672 1.15208,0.384672 0,0 0.0827,-0.103247 0.23776,-0.216982 0.0969,-0.07103 0.29868,-0.182169 0.54222,-0.180254 z m -2.08864,0.272072 c 0.27197,0.07511 0.54074,0.155311 0.74035,0.214085 a 0.76947477,0.70440262 0 0 1 0.20007,0.472142 0.76947477,0.70440262 0 0 1 -0.76934,0.704591 0.76947477,0.70440262 0 0 1 -0.76983,-0.704591 0.76947477,0.70440262 0 0 1 0.59875,-0.686227 z m 2.06641,0.06766 a 0.50205537,0.53493985 0 0 1 0.50163,0.508385 c -0.0589,0.0091 -0.11726,0.0215 -0.17591,0.03286 a 0.32519173,0.34649167 0 0 0 0,-0.0063 0.32519173,0.34649167 0 0 0 -0.32523,-0.346496 0.32519173,0.34649167 0 0 0 -0.32523,0.346496 0.32519173,0.34649167 0 0 0 0.0367,0.15851 c -0.0608,0.01952 -0.11182,0.04127 -0.16866,0.06186 a 0.50205537,0.53493985 0 0 1 -0.0449,-0.219884 0.50205537,0.53493985 0 0 1 0.50162,-0.53545 z m 0.30784,0 c 0.15205,0.01586 0.3038,0.03141 0.40738,0.0261 0.14467,0.169414 0.20993,0.334842 0.23874,0.437349 -0.1198,0.0037 -0.24213,0.01294 -0.36583,0.02948 a 0.58947402,0.6280844 0 0 0 -0.28029,-0.492924 z m -2.20317,0.206835 a 0.44976949,0.41173384 0 0 0 -0.44943,0.411735 0.44976949,0.41173384 0 0 0 0.44943,0.411735 0.44976949,0.41173384 0 0 0 0.44943,-0.411735 0.44976949,0.41173384 0 0 0 -0.44943,-0.411735 z m -0.14981,0.08022 a 0.15509292,0.14197717 0 0 1 0.15464,0.142078 0.15509292,0.14197717 0 0 1 -0.15464,0.142078 0.15509292,0.14197717 0 0 1 -0.15513,-0.142078 0.15509292,0.14197717 0 0 1 0.15513,-0.142078 z m 1.94269,0.0048 a 0.11216871,0.11216871 0 0 1 0.1126,0.112115 0.11216871,0.11216871 0 0 1 -0.1126,0.112117 0.11216871,0.11216871 0 0 1 -0.11211,-0.112117 0.11216871,0.11216871 0 0 1 0.11211,-0.112115 z m 8.61938,0.08699 c 0.58075,-0.0049 1.14204,0.125399 1.53724,0.21215 0.59054,0.129627 0.99223,0.296272 1.1579,0.372592 -0.61136,0.242741 -0.89742,0.995994 -0.89742,0.995994 0,0 -0.46296,-0.597254 -1.17624,-0.93462 -0.71329,-0.337368 -1.35892,0.202117 -1.17576,1.137105 0.06,0.306675 0.13317,0.514359 0.20489,0.663998 -0.2287,-0.09875 -1.18824,-0.454152 -1.90306,0.296721 -0.0388,0.04078 -0.075,0.08268 -0.11116,0.124679 -0.0362,-0.373518 -0.0782,-1.514916 0.7104,-2.271313 0.47232,-0.453036 1.07247,-0.592486 1.65321,-0.597306 z m -7.46052,0.268209 c 0.20323,-1.14e-4 0.3905,0.01838 0.54221,0.06041 0.60684,0.168157 0.86407,0.83362 0.86407,0.83362 0,0 -0.78101,-0.542701 -1.5358,-0.320399 -0.75478,0.222296 -1.31275,0.3518 -1.50921,0.300103 -0.19644,-0.0517 -0.27933,-0.09327 -0.27933,-0.09327 0,0 -0.009,0.10872 0.0783,0.191371 0.0954,0.28761 0.37035,0.964225 0.89838,1.088297 0.55324,0.129999 1.05675,-0.1238 1.22216,-0.219399 -0.0878,0.146945 -0.23616,0.314281 -0.47698,0.398203 -0.48254,0.168157 -1.02303,0.263632 -1.5933,-0.504035 -0.57027,-0.767673 -0.33622,-1.13354 0.10245,-1.382119 0.32901,-0.186434 1.07738,-0.352436 1.68706,-0.352778 z m -14.22857,0.208768 c 1.62208,0.03191 2.78133,0.916627 4.01781,2.265513 0.59552,0.649662 1.21398,1.683735 1.78805,2.928059 -0.41696,0.209391 -1.68298,0.880042 -2.52357,1.731996 -1.00825,1.021883 -1.43586,1.460291 -2.07173,1.575904 -0.48371,0.08795 -0.97991,-0.18402 -1.19171,-0.3204 0.36103,-0.184551 0.66185,-0.38425 0.89258,-0.574594 1.09,-0.899258 1.19896,-1.798201 1.19896,-1.798201 0,0 -1.08992,2.207417 -4.35995,2.64342 -3.27002,0.436003 -4.79597,-0.681348 -5.34097,-1.880357 -0.545,-1.199009 1.90758,-4.850896 5.04135,-6.049905 0.9793,-0.374691 1.81188,-0.53594 2.54918,-0.521435 z m 24.71187,0.185571 h 0.001 c 0.21865,0.0091 0.4865,0.153012 0.83652,0.532549 0.80004,0.867517 0.52529,1.961466 0.34215,2.110871 -0.18315,0.149412 -0.7998,0.183153 -0.79979,0.183153 0,0 0.65461,0.263378 0.89789,0.06814 0.36087,-0.107669 3.13228,-0.924075 4.43389,-0.949602 0.5154,-0.01009 0.87803,0.07659 1.13276,0.235349 -0.0617,0.06764 -0.10294,0.125646 -0.10294,0.125646 l 0.16819,0.08215 c 0,0 0.024,-0.154386 0.15898,-0.236314 0.13493,-0.08193 0.31332,-0.06273 0.35181,0.149328 0.0386,0.212058 -0.0667,0.564091 -0.0623,0.612288 0.006,0.04634 -0.004,0.08704 -0.005,0.09037 -7.9e-4,8.6e-5 -0.002,5.03e-4 -0.003,5.03e-4 -2.4e-4,1.6e-5 -7.9e-4,0 -0.001,0 0.0266,0.161028 0.036,0.33573 0.0319,0.521918 -0.0204,0.947404 -0.35432,1.02877 -0.73601,1.171901 -0.38168,0.143133 -0.64128,-0.170105 -0.64128,-0.170105 h -0.36776 c 0,0 -0.12949,0.156755 -0.52482,0.197653 -0.39531,0.04089 -0.72906,-0.402136 -1.66965,-0.524821 -0.94059,-0.122684 -2.42175,-0.246408 -4.07967,-0.227132 -1.38412,0.01608 -2.451,-0.675626 -2.78163,-0.914804 0.2566,0.03675 0.34746,-0.02513 0.34746,-0.02513 -0.0529,-0.01927 -0.28919,-0.284269 -0.72295,-0.327646 -0.43377,-0.04338 -0.5543,0.226713 -0.5543,0.25081 0,0.02266 0.23286,-0.05904 0.62534,0.03528 0.0677,0.09605 0.17835,0.222308 0.36872,0.361476 -0.0229,0.04162 -0.0529,0.104265 -0.101,0.227132 -0.12268,0.313527 0.3201,0.633677 0.55865,0.55188 0.18058,-0.06192 0.38014,-0.226078 0.48761,-0.318949 0.0351,0.0116 0.0676,0.02351 0.10438,0.03479 0.41372,0.126836 0.77975,0.194482 1.14097,0.234864 -0.06,0.358289 0.12394,0.504113 0.37356,0.45813 0.18871,-0.03476 0.36773,-0.27668 0.45233,-0.406904 0.54539,0.01267 1.13563,0.0022 1.91805,0.04156 0.6504,0.0327 1.1481,0.08439 1.55223,0.150292 -0.0468,0.125667 -0.0981,0.341925 0.0957,0.389506 0.20496,0.05034 0.42277,-0.153848 0.52047,-0.260958 0.25498,0.06524 0.46814,0.139527 0.67414,0.216501 -0.10379,0.03416 -0.29817,0.106226 -0.7012,0.272557 -0.8588,0.354425 -1.59476,1.199165 -4.67552,2.548701 -2.77243,1.214468 -3.31071,-1.140363 -3.39151,-1.627614 0.81917,0.558688 1.4145,0.634034 1.4145,0.634034 0,0 -1.60012,-0.819144 -2.33269,-1.898718 -0.73257,-1.079575 -0.27943,-2.390821 0.75195,-2.622158 0.72662,-0.162981 1.09195,-0.07262 1.24729,-0.0048 0.10105,0.138835 0.17881,0.158993 0.17881,0.158993 0,0 -0.67441,-1.86035 0.29913,-1.966378 0.97355,-0.10603 1.6281,1.179151 1.6281,1.179151 0,0 0.15702,-0.538869 0.49099,-0.927373 0.18786,-0.218534 0.38722,-0.429666 0.66834,-0.418017 z m -22.26078,0.180739 c 0.4499,0.148575 1.01763,0.342321 1.81173,0.632584 1.97564,0.722129 5.02773,2.888527 4.61898,3.365408 -0.35341,0.412306 -2.3316,0.163963 -2.88698,0.08602 -0.90906,-1.771535 -2.13834,-3.226234 -3.54373,-4.08401 z m 10.13392,0.545596 c 0,0 0.081,-0.01477 0.38805,0.131446 0.30707,0.146225 0.59876,0.742284 0.59876,0.742284 0,0 0.0225,0.02947 -0.35761,-0.05461 -0.38018,-0.08408 -0.6292,-0.819123 -0.6292,-0.819123 z m 13.08952,0.329581 c -0.13581,-0.01103 -0.38701,0.08819 -0.64757,0.295756 -0.52108,0.415125 -0.592,0.76838 -0.592,0.76838 0.0338,0.05909 0.21612,0.0071 0.44026,-0.112117 a 0.33784178,0.17223306 80.57588 0 0 0.004,0.02318 0.33784178,0.17223306 80.57588 0 0 0.12178,0.264343 c -0.19233,0.16714 -0.23873,0.328131 -0.23873,0.328131 -0.0397,0.09716 0.14154,0.03957 0.46393,-0.243078 0.28146,-0.246748 0.21611,-0.345019 -0.002,-0.236796 a 0.33784178,0.17223306 80.57588 0 0 -0.006,-0.168657 0.33784178,0.17223306 80.57588 0 0 -0.0459,-0.15271 c 0.16226,-0.114495 0.32458,-0.250165 0.45475,-0.400138 0.20314,-0.23406 0.18315,-0.355267 0.0474,-0.36631 z m -6.50658,0.02803 c -0.0681,0.272723 -0.0984,0.516009 -0.10584,0.68236 -0.007,0.183804 -0.0113,0.335592 -0.0121,0.46876 -0.16037,0.109554 -0.76956,0.505552 -1.03079,0.357128 -0.2999,-0.170397 0.24523,-0.776632 0.67462,-1.165137 0.23167,-0.209601 0.38111,-0.300494 0.47408,-0.343111 z m 3.38859,0.02222 c -0.14724,0.0126 -0.16798,0.145303 0.0532,0.400138 0.14201,0.163603 0.31835,0.311458 0.49535,0.436381 a 0.18796171,0.36869415 9.4241187 0 0 -0.0498,0.166241 0.18796171,0.36869415 9.4241187 0 0 -0.006,0.184606 c -0.238,-0.118216 -0.30956,-0.01079 -0.003,0.258541 0.35182,0.308451 0.54982,0.370856 0.50645,0.264826 0,0 -0.05,-0.175659 -0.25999,-0.358094 a 0.18796171,0.36869415 9.4241187 0 0 0.13241,-0.288023 0.18796171,0.36869415 9.4241187 0 0 0.003,-0.02561 c 0.2446,0.130103 0.44399,0.187232 0.48084,0.122747 0,0 -0.0769,-0.385901 -0.64563,-0.838935 -0.28383,-0.226109 -0.55813,-0.334411 -0.70652,-0.322817 h -5.3e-4 z m 4.3097,0.779495 c 0.0421,0.002 0.083,0.0085 0.12227,0.02175 0.23424,0.07893 0.2512,0.334266 0.24501,0.458613 -0.42362,0.103623 -0.98353,0.240253 -1.06607,0.260475 0.073,-0.156134 0.13331,-0.354725 0.15899,-0.579909 0.12055,-0.06699 0.33841,-0.17006 0.5398,-0.160925 z m -6.07842,0.164792 c -0.59761,-0.02892 -0.58329,0.578459 -0.58329,0.578459 0,0 0.39532,-0.414426 0.75679,-0.337316 0.36145,0.07711 0.67461,0.361963 0.67461,0.361963 0,0 -0.25048,-0.57419 -0.84811,-0.603106 z m -20.48868,0.164789 c -0.0546,0.0012 -0.11146,0.0081 -0.17107,0.02175 -0.47689,0.109002 -0.31349,0.565056 -0.0546,0.476492 0.25888,-0.08856 0.6064,-0.34734 0.89934,-0.224714 -0.0358,-0.02385 -0.29105,-0.282279 -0.67366,-0.273525 z m 31.60603,0.0015 c -0.0185,-0.0036 -0.0409,0.0042 -0.0662,0.02706 -0.1012,0.09157 -0.0145,0.515635 -0.0145,0.515635 0,0 0.0726,-0.202339 0.12081,-0.327649 0.0361,-0.09398 0.0153,-0.204432 -0.0401,-0.215049 z m -33.03164,0.002 c -0.0894,-0.0043 -0.19348,0.05206 -0.23776,0.140629 v 5.02e-4 c 0,0 -0.77625,1.205309 -0.89887,1.757125 -0.12262,0.551817 0.21089,0.402444 0.39483,0.06862 0.0347,-0.06309 0.12836,-0.226424 0.19088,-0.333931 a 0.27841355,0.193162 58.313185 0 0 0.0324,0.07297 0.27841355,0.193162 58.313185 0 0 0.2368,0.166725 c -0.0542,0.107992 -0.10091,0.212897 -0.11792,0.289471 -0.0553,0.248736 0.0949,0.180921 0.17784,0.03045 0.0829,-0.150471 0.38979,-0.648074 0.40207,-0.78626 0.0122,-0.138186 -0.13502,-0.116571 -0.17494,-0.03673 0,0 -0.0748,0.121905 -0.14546,0.242113 a 0.27841355,0.193162 58.313185 0 0 -0.0367,-0.08699 0.27841355,0.193162 58.313185 0 0 -0.21747,-0.165275 c 0.25574,-0.444771 0.52724,-0.935528 0.54511,-1.136622 0.0136,-0.153282 -0.0613,-0.218524 -0.15077,-0.222782 z m 31.06527,0.137247 c -0.45108,0.0051 -0.37744,0.423817 -0.37744,0.423817 0,0 0.12977,-0.313546 0.62052,-0.194271 0.49072,0.11928 0.85862,0.487797 0.87566,0.593441 0,0 0.17716,-0.467161 -0.71572,-0.750017 -0.16741,-0.05303 -0.29895,-0.07418 -0.40302,-0.07297 z m 0.274,0.542216 c -0.12173,-0.0037 -0.0968,0.141467 0.0643,0.216015 0.18403,0.0852 0.33392,0.129514 0.33392,0.129514 -0.0204,-0.03409 -0.14939,-0.276 -0.33683,-0.333932 -0.0234,-0.0073 -0.0439,-0.01106 -0.0614,-0.0116 z m -29.68943,0.244528 c -0.16691,-0.0035 -0.57604,0.402071 -0.57604,0.402071 0,0 0.27931,-0.1123 0.35084,0.05461 0,0 -0.49739,1.076436 -0.8312,1.675939 -0.33382,0.599504 -0.79021,1.130462 -0.70846,1.253088 0.007,0.0116 0.0207,0.01999 0.0304,0.03045 -0.004,0.06526 0.0514,0.134338 0.23534,0.187985 0.4905,0.143066 1.30814,-0.265633 1.80546,-0.919638 0.49732,-0.654006 0.0542,-1.607834 -0.0546,-2.023402 -0.109,-0.415565 -0.0849,-0.657689 -0.25178,-0.661096 z m 21.00238,0.319432 c 0.15091,0.09304 0.33178,0.185992 0.56107,0.274492 -0.0877,0.122438 -0.28649,0.343552 -0.52385,0.232447 -0.24389,-0.114231 -0.11378,-0.383624 -0.0372,-0.506939 z m -18.3116,0.03528 -0.21118,0.946702 0.4359,-0.5311 0.57217,-0.136278 c -0.0409,-0.02044 -0.79689,-0.279324 -0.79689,-0.279324 z m -2.80918,0.299138 c 0.0572,0.102009 0.10142,0.184749 0.19331,0.373074 l -0.0614,0.389989 -0.21795,-0.129029 -0.0348,0.537864 -0.25855,-0.08167 0.0203,0.579424 -0.21795,-0.06862 -0.0884,0.518052 -0.32669,-0.05461 -0.0459,0.706038 c -0.13583,0.03795 -0.25747,0.06368 -0.32233,0.05026 -0.0469,-0.0097 -0.075,-0.03013 -0.0923,-0.05509 0.0104,-0.119238 0.0932,-0.332254 0.37163,-0.735035 0.47474,-0.686855 0.89432,-1.601193 1.08104,-2.030649 z m 3.23155,0.273039 -0.21119,0.946702 0.4359,-0.531099 0.57218,-0.136765 c -0.0409,-0.02044 -0.79689,-0.278838 -0.79689,-0.278838 z m 20.0842,0.03335 c 0.15937,0.01383 0.31918,0.02341 0.48277,0.02899 -0.0782,0.117302 -0.23353,0.320664 -0.37066,0.30107 -0.14663,-0.02096 -0.12848,-0.232006 -0.11211,-0.330064 z m -14.51224,0.01789 c 0.13595,0.04577 0.40301,0.13034 1.17432,0.343114 1.14267,0.31522 4.32098,0.906348 5.39799,0.72247 0.5424,-0.09261 0.84331,-0.181617 1.01001,-0.247428 0.006,0.01848 0.0107,0.03542 0.0159,0.05412 0.0153,0.05554 0.0294,0.115631 0.044,0.173975 -0.16576,0.111557 -0.69778,0.331187 -2.3177,0.321367 -2.04359,-0.01237 -5.04305,-0.998976 -5.3893,-1.114877 0.0313,-0.06088 0.0618,-0.140942 0.0648,-0.252745 z m 9.71349,0.213117 c 0.0758,0.166586 0.18038,0.335498 0.31266,0.505488 -0.14393,0.04277 -0.44133,0.126471 -0.61083,0.08409 -0.16564,-0.04141 0.14903,-0.421501 0.29817,-0.589574 z m 9.02484,0.01257 h 5.2e-4 c 0.12948,0.02286 0.25021,0.04679 0.36197,0.07249 -0.0808,0.09421 -0.25035,0.2744 -0.34021,0.234863 -0.0849,-0.03734 -0.0502,-0.207948 -0.0222,-0.307352 z m -32.35605,0.04347 c -0.72213,0.02725 -0.48379,0.245193 0.22471,0.429134 0.0971,0.02522 0.18789,0.05462 0.28222,0.08312 a 0.37477978,0.23162663 81.920728 0 0 -0.0213,0.248878 0.37477978,0.23162663 81.920728 0 0 0.28222,0.338763 0.37477978,0.23162663 81.920728 0 0 0.17639,-0.404005 0.37477978,0.23162663 81.920728 0 0 -0.0106,-0.05606 c 0.36929,0.114979 0.61761,0.175624 0.48326,-0.04108 0,0 -0.69478,-0.626008 -1.41691,-0.598758 z m 5.15684,0.101485 c 0.054,0.129437 0.10235,0.259915 0.13628,0.381774 0.14988,0.53819 -0.36758,1.158069 -0.67414,1.342007 -0.14521,0.08713 -0.37035,0.189691 -0.58764,0.270625 l -0.0396,-0.373077 0.3953,0.02125 v -0.518035 c 0,0 0.36804,0.09523 0.32717,0.02029 -0.0409,-0.07493 -0.0681,-0.510803 -0.0681,-0.510803 l 0.28657,0.05412 -0.0416,-0.442664 0.19765,0.122747 z m 8.26903,9.79e-4 c 0.15004,0.07243 0.4256,0.1828 0.9583,0.3146 0.75062,0.185722 2.1333,0.626206 3.66358,0.817673 l -1.78516,1.006627 -3.38135,-2.008903 c 0.2323,-0.03194 0.42741,-0.0754 0.54463,-0.129997 z m -2.872,0.072 c 0.17441,0.02717 0.17376,0.02585 0.48905,0.07732 0.0409,0.0067 0.0957,0.01022 0.14353,0.01546 -0.0145,0.01846 -0.0321,0.04199 -0.0536,0.06959 -0.13122,0.08414 -0.26182,0.167323 -0.39192,0.249845 -0.0615,-0.138146 -0.12179,-0.277253 -0.18702,-0.41222 z m 2.06641,0.08602 c 0.18805,0.14171 0.86788,0.652616 1.02885,0.733102 0.18389,0.09193 2.56127,1.562372 2.56127,1.562372 l 0.90466,-0.50597 0.0121,0.04204 c 0.24487,0.851917 0.17548,1.466481 0.004,2.024852 -0.1718,0.558369 -0.45349,1.060304 -0.6234,1.658058 l -0.0261,0.0894 0.0826,0.04446 c 0.73183,0.405232 1.52723,0.743078 2.50376,0.407388 l 0.0657,-0.02224 0.17301,-1.044802 -0.14739,0.01014 c -0.25517,0.01789 -0.50437,0.0583 -0.72827,0.04639 -0.20272,-0.01079 -0.37614,-0.08306 -0.54318,-0.224714 0.51269,-0.914957 0.48929,-1.902987 0.46102,-2.860887 l -0.004,-0.0952 -1.05109,-0.174939 0.91239,-0.510321 1.62906,0.98488 1.55464,-1.077665 c 0.0148,0.0726 0.0306,0.141474 0.0445,0.216984 0.0307,0.168088 0.0561,0.333531 0.0768,0.495339 0.005,0.03763 0.008,0.07337 0.0116,0.110665 0.0136,0.117773 0.0271,0.234861 0.0358,0.349395 0.005,0.05272 0.005,0.103552 0.007,0.15561 0.007,0.104229 0.0122,0.209132 0.0145,0.310735 5.1e-4,0.01992 -2.3e-4,0.03912 0,0.05896 0.0109,0.729662 -0.0714,1.393034 -0.20442,2.003588 l 0.002,0.002 c -0.0834,0.382945 -0.18931,0.737378 -0.30155,1.081048 -0.3208,0.02195 -0.64125,0.0427 -0.96121,0.05848 a 0.37311624,0.37311624 0 0 0 -0.34407,0.288021 c -0.47802,2.047831 -1.02222,4.089746 -1.63777,6.122394 -0.0227,0.0749 -0.0476,0.149346 -0.0706,0.224232 V 51.60744 a 0.37311624,0.37311624 0 0 0 -0.37356,-0.37356 c -0.90655,7.41e-4 -1.81216,-0.03093 -2.71833,-0.07684 l 0.32862,-5.690844 a 0.37311624,0.37311624 0 0 0 -0.35085,-0.393856 c -0.63533,-0.03659 -1.26774,-0.08642 -1.89968,-0.149328 a 0.37311624,0.37311624 0 0 0 -0.002,0 0.37311624,0.37311624 0 0 0 -0.0377,-0.002 0.37311624,0.37311624 0 0 0 -0.36969,0.335864 0.37311624,0.37311624 0 0 0 -0.002,0.01739 l -0.12468,1.247288 c -0.0971,-1.127913 -0.33283,-2.714494 -0.8824,-4.569195 0.46308,-1.08298 0.9069,-2.075963 1.02837,-2.16886 0,0 -0.19733,0.190435 -0.46634,0.542699 l -0.53319,-0.971359 c 0.0768,-0.04718 0.1636,-0.101199 0.25613,-0.158993 0.23699,-0.0027 0.47713,-0.01438 0.70507,-0.03576 z m -4.17293,0.0116 -0.21119,0.947186 0.4359,-0.531584 0.57266,-0.136278 c -0.0409,-0.02044 -0.79737,-0.279324 -0.79737,-0.279324 z m 3.05709,0.278841 0.52771,1.093612 c -0.0635,0.09 -0.12883,0.189872 -0.19572,0.294786 l -0.5282,-1.266619 c 0.0681,-0.04229 0.13344,-0.08305 0.19621,-0.121779 z m 10.08172,0.08119 c 0.18229,0.15758 0.56796,0.688669 0.96652,1.402898 -0.0353,0.05059 -0.0763,0.104253 -0.13,0.159959 -0.10823,0.112246 -0.30113,0.218217 -0.46054,0.298171 -0.007,-0.05406 -0.0108,-0.108935 -0.0184,-0.161892 -0.0344,-0.238828 -0.0742,-0.462938 -0.11647,-0.680427 -0.0114,-0.05878 -0.0233,-0.115294 -0.0353,-0.172525 -0.0358,-0.172239 -0.0735,-0.337684 -0.11308,-0.496306 -0.009,-0.03745 -0.018,-0.07639 -0.0275,-0.113082 -0.0212,-0.08141 -0.0432,-0.159039 -0.0652,-0.236796 z m 2.22008,0.01111 c 0.0556,0.06114 0.11285,0.121789 0.1764,0.183156 0.19751,0.190789 0.38867,0.351274 0.57218,0.490024 -0.0226,0.04096 -0.42092,0.764201 -0.9037,1.635343 l -0.48616,-0.639349 -0.004,0.118882 c -0.12407,-0.245073 -0.26032,-0.47909 -0.40739,-0.694927 0.92845,-0.332681 1.55144,-0.383795 1.57929,-0.405452 0,0 0.007,-0.06143 -0.18026,-0.08215 -0.0973,-0.127943 -0.34658,-0.503484 -0.40884,-0.597791 0.0347,-0.0042 0.0385,-0.0046 0.0623,-0.0077 z m -12.69276,0.150777 0.60117,1.344906 c -0.0792,0.133039 -0.15788,0.277109 -0.23583,0.427684 -0.11606,-0.364385 -0.23967,-0.734394 -0.38129,-1.115841 -0.0651,-0.175447 -0.13578,-0.347253 -0.20683,-0.518538 0.068,-0.04185 0.1391,-0.08585 0.22278,-0.138211 z m -0.78675,0.07152 c 0.0436,0.09763 0.088,0.192403 0.13097,0.292371 -0.31718,0.14307 -1.27061,0.595158 -1.96686,1.187365 -0.77979,0.663266 -1.73428,1.666621 -2.05868,1.905486 -0.19003,-0.04327 -0.37387,-0.07768 -0.55043,-0.100518 0.17177,-0.05607 0.34313,-0.1436 0.50887,-0.282221 1.05978,-0.886367 2.20616,-2.080999 3.14069,-2.562719 0.41128,-0.211997 0.64353,-0.346137 0.79544,-0.439764 z m 10.97721,0.08457 c 0.0104,0.04271 0.021,0.08356 0.0309,0.127579 0.004,0.01423 0.006,0.03013 0.009,0.04446 -0.40334,0.279252 -1.5099,1.027502 -1.6397,0.908524 -0.12911,-0.118345 -0.91145,-0.565413 -1.23762,-0.750981 0.16996,0.01546 0.3399,0.03152 0.51177,0.03914 1.43309,0.06354 2.09041,-0.225279 2.32544,-0.368725 z m -10.74476,0.453789 c 0.57154,1.370264 1.0747,2.933651 1.44301,4.509762 a 0.37311624,0.37311624 0 0 0 -0.0672,-0.01546 c -0.14417,-0.01801 -0.28765,-0.03954 -0.43155,-0.05896 -0.0221,-0.36146 -0.0739,-0.574592 -0.0739,-0.574592 0.007,0.111582 -0.004,0.306269 -0.0246,0.528199 -0.0974,-0.171616 -0.2871,-0.41681 -0.66932,-0.739867 -0.66776,-0.56442 -1.34562,-0.715492 -1.57252,-0.753398 0.0199,-0.151651 0.0399,-0.305599 0.0696,-0.489542 0.15414,-0.953803 0.25081,-1.184947 0.25081,-1.184947 0,0 -0.4045,0.70343 -0.55864,1.551257 -0.0845,0.464581 -0.10967,0.746931 -0.11647,0.917706 -0.54609,-0.263772 -1.23604,-0.539158 -2.07946,-0.772244 0.21555,-0.157253 0.70772,-0.552102 1.55996,-1.445909 0.88301,-0.926079 1.83943,-1.32732 2.27035,-1.472004 z m 20.8202,0.280774 c 0.17037,0.120384 0.35108,0.254495 0.5456,0.416567 0.22816,0.190114 0.44553,0.404241 0.64612,0.632585 -0.10039,0.09339 -0.26145,0.239456 -0.52675,0.47166 -0.50473,0.441775 -1.24875,0.571212 -1.24875,0.571212 l -0.002,0.0087 c -0.13667,-0.480337 -0.28512,-1.03997 -0.28512,-1.03997 -0.31723,0.323972 0.0854,1.379792 0.16721,2.088639 0.0273,0.236173 0.0194,0.516162 0.002,0.788677 -0.65022,-0.382207 -1.37026,-0.558205 -2.05095,-0.562028 h -5.3e-4 -5.3e-4 c -0.17396,-7.4e-4 -0.3443,0.01344 -0.51177,0.03431 -0.0353,-0.194711 -0.13298,-0.35953 -0.27594,-0.486641 -0.23076,-0.205116 -0.56258,-0.325007 -0.93849,-0.402554 l -1.32074,-0.272074 -0.77418,3.754914 0.11115,0.02417 0.27014,0.05509 c -0.0205,0.20209 -0.0193,0.408898 0.01,0.618088 0.17762,1.281848 1.15998,2.01118 2.17369,2.23217 0.34751,0.08185 0.69616,0.160749 1.04625,0.237761 a 0.37311624,0.37311624 0 0 0 0.008,0.002 c 0.36381,0.07368 0.64532,0.123563 0.7911,0.176389 0.14579,0.05283 0.11233,0.02685 0.12178,0.07684 0.0141,0.0746 0.0188,0.05492 -0.0276,0.0981 -0.0464,0.04318 -0.197,0.126634 -0.47794,0.176389 -0.46319,0.08202 -1.17374,-0.07933 -1.74359,-0.399655 a 0.37311624,0.37311624 0 0 0 -0.49873,0.129031 c -0.32599,0.52242 -0.66159,1.04234 -1.00469,1.559957 -0.60951,-1.313385 -1.19158,-2.634196 -1.74939,-3.960784 0.0511,-0.12981 0.10081,-0.286435 0.14884,-0.495338 0.26855,-1.167932 0.10567,-2.982582 -0.3929,-4.658123 l 1.01534,-1.764857 c 0.12393,0.345711 0.44984,1.080154 1.13565,1.634861 0.92696,0.749741 2.93059,0.01314 4.94808,-1.309147 0.24187,-0.158522 0.47095,-0.302832 0.68961,-0.436864 z m -14.02559,0.51322 0.75823,0.123714 c 0.0292,0.968738 0.0634,1.910165 -0.46199,2.758435 l -0.0498,0.07829 0.0672,0.06717 c 0.22617,0.222416 0.49261,0.299356 0.75195,0.313153 0.20831,0.01108 0.41024,-0.01841 0.60794,-0.03769 l -0.0996,0.597789 c -0.82478,0.257642 -1.4902,0.0072 -2.15823,-0.35471 0.16353,-0.525941 0.41354,-1.0037 0.58426,-1.558508 0.16668,-0.541716 0.18921,-1.196334 0,-1.987639 z m 5.30762,0.04398 h 5e-4 c 0.0549,0.102598 0.1096,0.20391 0.16382,0.312185 -0.0302,0.0313 -0.0673,0.06699 -0.11405,0.107282 -0.14982,0.129162 -0.53004,0.276474 -0.71715,0.346496 -9e-5,-0.0048 -5e-4,-0.0093 -5e-4,-0.01401 -0.002,-0.07968 -0.006,-0.157918 -0.01,-0.235828 -0.002,-0.02425 -0.002,-0.04939 -0.004,-0.07346 l 0.0478,-0.02318 c 0.17205,-0.08357 0.46489,-0.295743 0.63307,-0.419467 z m 0.30976,0.62002 c 0.24908,0.5322 0.47728,1.106448 0.6263,1.679804 0.44104,1.696891 0.22932,3.164204 0.073,3.781977 -0.28569,-0.68684 -0.56638,-1.37498 -0.83652,-2.065445 a 0.37311624,0.37311624 0 0 0 -0.38419,-0.234864 l 0.002,-0.0015 c -0.0246,0.0022 -0.0493,0.004 -0.0739,0.0063 -0.2468,-0.453763 -0.48471,-0.802515 -0.61035,-0.975215 0.007,-0.03447 0.0147,-0.06896 0.0217,-0.103417 0.0149,-0.07326 0.0276,-0.145827 0.0411,-0.218918 0.0257,-0.139363 0.049,-0.277969 0.0691,-0.416085 0.0248,-0.17093 0.0475,-0.34077 0.0628,-0.508385 9.7e-4,-0.01232 0.002,-0.02445 0.003,-0.03673 0.009,-0.106726 0.0162,-0.212204 0.0213,-0.317017 9.8e-4,-0.02088 0.002,-0.04204 0.003,-0.06283 0.26351,-0.107866 0.88407,-0.470395 0.9815,-0.527717 z m 9.72557,0.02706 c 0.0706,0.08585 0.13961,0.171829 0.20491,0.260475 -0.12491,0.09342 -1.14726,0.849864 -1.59862,0.870831 -0.16416,0.0077 -0.27788,0.0085 -0.37163,0.0077 0.14651,-0.04962 0.37132,-0.139765 0.67657,-0.3146 0.47055,-0.269501 0.95828,-0.70617 1.08877,-0.824438 z m 0.32426,0.430582 c 0.35751,0.522227 0.61589,1.072294 0.70267,1.559957 0.16102,0.904367 -0.25476,1.866761 -0.78386,2.410974 -0.52908,0.544208 -1.79417,1.123858 -1.77741,1.061234 0.0168,-0.06261 0.21698,-0.301553 0.21698,-0.301553 0,0 -0.5085,0.249583 -0.55334,0.156092 -0.0447,-0.09349 0.37211,-0.534966 0.37211,-0.534966 0,0 -0.34934,0.158631 -0.49485,0.15416 -0.14551,-0.0045 -0.12784,-0.135279 0.0145,-0.296721 0.14235,-0.161439 0.62485,-0.530617 0.62485,-0.530617 0,0 -0.52879,0.07433 -0.80414,0.0749 0.0561,-0.112664 0.11215,-0.225533 0.16769,-0.338281 0.0647,-0.03799 0.13633,-0.07652 0.21505,-0.114532 0.32773,-0.158263 0.79109,-0.0048 0.79109,-0.0048 0,0 -0.0407,-0.124788 -0.0884,-0.475042 -0.0479,-0.350254 0.17033,-0.765877 0.28368,-1.266619 0.1133,-0.500742 0.0628,-0.818156 0.0628,-0.818156 0,0 -0.15209,0.24032 -0.30204,0.63645 -0.13991,-0.0434 -0.48071,-0.1489 -0.74856,-0.231479 -0.003,-0.04594 -0.004,-0.09684 -0.008,-0.138213 0.23552,-0.05373 0.59632,-0.149118 0.99117,-0.317018 0.58694,-0.249575 1.0355,-0.616204 1.11825,-0.685741 z m -28.94134,0.448946 c 0.10316,0.06903 0.34485,0.233075 0.71909,0.354713 -0.99123,0.08484 -1.6421,0.448426 -1.9369,0.652881 -0.0455,-0.04231 -0.0605,-0.0546 -0.22375,-0.214567 -0.10453,-0.102483 -0.28486,-0.203985 -0.45764,-0.290921 0.74143,-0.08923 1.37423,-0.275541 1.8992,-0.502106 z m 21.67604,0.432517 1.09796,0.227614 c 0.35567,0.07336 0.65359,0.1885 0.8346,0.349395 0.1096,0.09743 0.18097,0.207721 0.20683,0.347463 -0.20353,0.03727 -0.39899,0.08998 -0.58571,0.155608 -0.01,-0.100226 -0.0458,-0.192257 -0.11454,-0.261442 -0.10555,-0.105746 -0.25859,-0.161333 -0.45571,-0.202001 l -0.49001,-0.101485 -0.20877,1.017741 0.1097,0.02417 0.19474,0.04011 c -0.12755,0.09667 -0.24787,0.199385 -0.35711,0.310735 l -0.0242,-0.0048 -0.008,0.04059 c -0.37801,0.397428 -0.63814,0.876781 -0.73795,1.397097 l -0.14496,-0.02996 z m -23.89661,0.09907 c 0.0798,0.0286 0.15882,0.06204 0.22955,0.10245 0.27455,0.156892 0.57533,0.406126 0.63645,0.457163 -0.12565,-0.0049 -0.27365,-0.01576 -0.3378,-0.04784 -0.0888,-0.04442 -0.74892,-0.367048 -0.99744,-0.488574 0.16062,-0.0034 0.31685,-0.01118 0.46924,-0.02318 z m 3.46883,0.101 c 0.42727,0.01022 0.91605,0.06432 1.4372,0.197171 0.89332,0.227705 2.04821,0.729821 2.80242,1.08298 a 0.37311624,0.37311624 0 0 0 -0.029,0.02851 c -0.49265,0.547298 -1.02646,1.071863 -1.55029,1.602 l 0.3581,-1.632929 a 0.37311624,0.37311624 0 0 0 -0.28416,-0.443631 c -0.60797,-0.13348 -1.21276,-0.280828 -1.8127,-0.441699 a 0.37311624,0.37311624 0 0 0 -0.0135,-0.0034 c -0.005,-9.79e-4 -0.007,-0.0025 -0.0121,-0.0034 a 0.37311624,0.37311624 0 0 0 -0.0841,-0.01353 0.37311624,0.37311624 0 0 0 -0.25322,0.08892 0.37311624,0.37311624 0 0 0 -0.1184,0.188471 h -0.002 l -0.3262,1.218776 c -1.36706,-1.054212 -2.21767,-1.453155 -2.21767,-1.453155 0,0 0.23175,-0.150028 0.61326,-0.259027 0.23843,-0.06813 0.78017,-0.173123 1.4923,-0.156093 z m -4.24397,0.05268 c 0.0776,0.04681 0.49025,0.295929 0.86551,0.512256 0.37932,0.218659 1.02396,0.03827 1.13952,0.0058 0.0282,0.0079 0.0546,0.01269 0.0841,0.02318 0.15666,0.05595 1.08799,0.708382 2.19447,1.545461 l -0.11211,0.41705 c -0.84445,0.36053 -2.84135,1.190401 -3.66841,1.319296 -1.04914,0.163501 -1.62119,-0.803881 -1.36231,-1.893889 0.18303,-0.770649 0.61605,-1.535758 0.85924,-1.929166 z m 29.84939,0.350363 c 0.1719,0.04227 0.44042,0.107968 0.64466,0.152226 -0.0373,0.12024 -0.073,0.246997 -0.10293,0.385641 -0.1677,0.776956 0.0198,1.101344 0.0198,1.101344 0,0 -0.11617,-0.190024 -0.46586,-0.05074 -0.0417,0.01663 -0.0948,0.0429 -0.14306,0.06427 10e-4,-0.01413 0.004,-0.0737 0.005,-0.09375 0.0271,-0.05565 0.0557,-0.111026 0.0826,-0.166724 a 0.37311624,0.37311624 0 0 0 -0.0546,-0.407871 c 0.0113,-0.300018 0.0197,-0.654115 0.0145,-0.984395 z m -21.82925,0.0025 c 0.13167,0.06185 0.34851,0.17622 0.69686,0.390953 0.25246,0.155628 0.50372,0.332452 0.72875,0.499689 -0.21687,-0.03426 -0.43386,-0.06779 -0.64998,-0.10535 a 0.37311624,0.37311624 0 0 0 -0.15947,0.0077 c -0.18022,-0.113634 -0.38545,-0.236195 -0.64709,-0.372107 9.7e-4,-0.04267 0.007,-0.160428 0.0309,-0.420918 z m 17.32142,0.177354 0.26917,0.05461 c 0.17678,0.03647 0.28873,0.09001 0.34118,0.14256 0.0476,0.04764 0.0631,0.09611 0.0483,0.189436 -0.16807,0.07176 -0.32743,0.154442 -0.47747,0.247428 -0.0127,-0.0022 -0.0234,-0.0026 -0.0367,-0.0053 l -0.26385,-0.05509 z m -20.2978,0.162374 c 0.61399,0.165067 1.23248,0.316196 1.85474,0.452813 l -0.51612,2.353467 c 0,0 -5.1e-4,-5.03e-4 -5.1e-4,-5.03e-4 l -0.0464,0.213115 -0.0604,0.275459 c 0.0155,0.0035 0.0313,0.0065 0.0469,0.01014 0.84102,-0.808905 1.64393,-1.640147 2.41,-2.491195 0.16095,0.02797 0.32287,0.05165 0.48423,0.0778 0.0154,0.0025 0.031,0.0052 0.0464,0.0077 0.26068,0.04197 0.52172,0.08209 0.78336,0.119368 0.12772,0.01819 0.25578,0.03559 0.38371,0.05268 0.12526,0.01673 0.25004,0.03604 0.37549,0.05171 -0.14456,0.163709 -0.29242,0.325316 -0.43977,0.487608 -0.0805,0.08916 -0.16046,0.178662 -0.24211,0.267241 -0.64267,0.697174 -1.31074,1.381084 -2.00552,2.049499 0.0264,0.06907 0.0555,0.137798 0.0821,0.206832 0.0387,0.09839 0.0777,0.196401 0.11647,0.294789 0.59587,1.51368 1.26495,3.018634 2.0118,4.50783 -0.81628,-0.0948 -1.63108,-0.208696 -2.44335,-0.342147 -0.45999,-1.09068 -0.88225,-2.187125 -1.26565,-3.286638 -0.32056,0.294858 -0.6462,0.58676 -0.97715,0.87518 l -0.41753,1.902103 c -0.7372,-0.16151 -1.4714,-0.339971 -2.20221,-0.534966 z m 22.4971,0.288021 c 0.67169,0.0036 1.38823,0.189055 2.01374,0.599242 -0.13922,0.287486 -0.28397,0.574253 -0.42672,0.861165 -0.10208,0.205165 -0.20138,0.41079 -0.30542,0.615671 -0.58751,-0.263266 -1.0603,-0.369002 -1.61843,-0.268692 -0.16766,0.03013 -0.30784,0.07813 -0.41996,0.140628 -7.9e-4,5.03e-4 -0.001,9.79e-4 -0.002,0.0015 -0.0391,0.02192 -0.0743,0.04533 -0.10583,0.07104 -0.002,0.0017 -0.004,0.0032 -0.006,0.0048 -0.0311,0.02603 -0.0577,0.05433 -0.0807,0.08409 -10e-4,0.002 -0.003,0.0038 -0.005,0.0058 -0.0222,0.0296 -0.0398,0.06109 -0.0536,0.09423 -0.001,0.0025 -0.003,0.0047 -0.004,0.0073 -0.0141,0.03565 -0.0234,0.07301 -0.0276,0.112599 -0.005,0.04374 -0.005,0.08931 0.003,0.137729 0.0618,0.366871 0.51765,0.427397 1.26372,0.57121 0.33333,0.065 0.66763,0.127742 1.00325,0.188471 0.16541,0.03033 0.31883,0.07329 0.46634,0.122264 0.0632,0.02098 0.12513,0.04324 0.18557,0.06717 0.0604,0.02393 0.11915,0.04948 0.17542,0.07781 0.57376,0.288716 0.96359,0.772715 1.12358,1.515497 0.27639,1.283189 -0.59158,2.707649 -2.64922,3.070619 -1.03685,0.182891 -2.28222,0.01116 -3.26586,-0.624853 0.34714,-0.523533 0.68518,-1.04906 1.01484,-1.577353 0.63242,0.355482 1.398,0.545356 1.99151,0.440248 0.64122,-0.113557 0.87111,-0.368831 0.80656,-0.710388 -0.0694,-0.367356 -0.49336,-0.406648 -1.20573,-0.550916 -0.35064,-0.07713 -0.69976,-0.156256 -1.0477,-0.238246 -0.90658,-0.197633 -1.72867,-0.79535 -1.88423,-1.91805 -0.023,-0.165856 -0.0272,-0.330524 -0.014,-0.491956 0.0225,-0.276006 0.0988,-0.542001 0.21746,-0.791577 0.0427,-0.08972 0.0915,-0.176792 0.14498,-0.261925 0.004,-0.0065 0.008,-0.01331 0.0121,-0.01982 0.0554,-0.08645 0.11638,-0.1707 0.18364,-0.25081 1.4e-4,-1.76e-4 2.4e-4,-2.47e-4 5.3e-4,-5.03e-4 0.0373,-0.04435 0.0778,-0.08673 0.1184,-0.129029 7.9e-4,-7.41e-4 0.001,-0.0012 0.002,-0.002 0.0627,-0.06527 0.12882,-0.128029 0.1991,-0.187989 0.17399,-0.148424 0.37119,-0.278735 0.58764,-0.389021 0.008,-0.0041 0.0165,-0.0079 0.0247,-0.01207 0.0102,-0.0051 0.0201,-0.01047 0.0304,-0.01546 2.5e-4,-1.85e-4 7.9e-4,-2.47e-4 0.001,-5.02e-4 0.24164,-0.117205 0.50676,-0.208008 0.79205,-0.268207 0.0363,-0.0077 0.0713,-0.01752 0.10826,-0.02417 0.0441,-0.0079 0.0904,-0.0116 0.13531,-0.01789 0.16795,-0.02348 0.34,-0.03859 0.51661,-0.0377 z m -6.88304,0.280305 c 0.042,0.08361 0.10447,0.212456 0.16189,0.329099 l -0.014,0.02464 c -0.0369,0.0031 -0.0738,0.0062 -0.11067,0.0092 -0.15149,-0.04828 -0.23754,0.01376 -0.24598,0.02029 -7.4e-4,5.2e-5 -0.001,5.03e-4 -0.002,5.03e-4 0.005,-0.0043 0.11045,-0.11657 0.2107,-0.383706 z m -8.73199,0.67946 c 0.63756,0.06348 1.27717,0.113869 1.91805,0.150777 l -0.35132,6.074552 c 1.03717,0.05999 2.07545,0.0894 3.11314,0.08844 l 0.002,1.731514 c -1.81986,0.0022 -3.64292,-0.08538 -5.45985,-0.267727 z m 9.47524,0 c 0.18929,0.483811 0.38519,0.965781 0.58184,1.44784 0.008,0.0195 0.0162,0.03898 0.0242,0.05847 0.14613,0.357601 0.29549,0.714278 0.44557,1.070901 0.0125,0.02963 0.0247,0.05929 0.0372,0.08892 0,0 5.3e-4,0 5.3e-4,0 0.68363,1.620493 1.40346,3.231876 2.16451,4.831612 -0.77273,0.100125 -1.5484,0.187764 -2.32737,0.261928 -0.18973,-0.537367 -0.37616,-1.075295 -0.55913,-1.614082 -0.76021,0.06775 -1.52254,0.12217 -2.28677,0.161892 -0.10572,0.55911 -0.21518,1.117806 -0.32862,1.676421 -0.57177,0.02599 -1.14501,0.0443 -1.71943,0.05412 -0.19013,0.0032 -0.38002,0.0052 -0.57025,0.0063 0.18708,-0.576161 0.36794,-1.153153 0.54319,-1.731029 0.61796,-2.040623 1.16378,-4.089721 1.64356,-6.145109 0.28134,-0.01388 0.56306,-0.03279 0.84473,-0.05122 0.0139,-9.79e-4 0.0277,-0.002 0.0416,-0.0029 0.32724,-0.02168 0.65481,-0.04677 0.98247,-0.07442 0.0735,-0.0062 0.14689,-0.01138 0.22036,-0.01789 0.0873,-0.0077 0.17456,-0.01361 0.26193,-0.02175 z m 7.95346,0.880012 c 0.008,5.03e-4 0.0159,0.0026 0.0242,0.0029 l -0.0174,0.185089 c -0.10883,0.15513 -0.1536,0.392883 -0.10584,0.499206 0.0106,0.02346 0.0306,0.03789 0.0536,0.04881 l -0.0372,0.391921 c -0.14017,-0.04455 -0.28486,-0.08121 -0.43493,-0.108732 -0.33415,-0.06046 -0.66791,-0.121895 -0.99938,-0.186536 -0.37736,-0.07274 -0.67252,-0.128908 -0.83072,-0.187021 -0.0791,-0.02905 -0.11966,-0.05694 -0.12999,-0.06669 -0.0104,-0.0098 -0.004,0.0053 -0.007,-0.01401 -0.0108,-0.06435 -0.0137,-0.04873 0.0305,-0.08892 0.0441,-0.04018 0.17053,-0.104264 0.37016,-0.140146 0.47721,-0.08576 0.84627,-0.0063 1.39951,0.241631 a 0.37311624,0.37311624 0 0 0 0.48472,-0.173491 c 0.0683,-0.134539 0.13265,-0.269499 0.20007,-0.404003 z m -19.4202,0.489057 c -0.21502,0.715495 -0.51453,1.340642 -0.90176,1.508249 -0.12356,0.05348 -0.25815,0.07061 -0.40256,0.05703 -0.0232,-0.0595 -0.048,-0.118803 -0.071,-0.178324 0.46908,-0.456344 0.92777,-0.91876 1.37536,-1.38695 z m 19.71402,0.226166 c 0,0 -0.0258,0.0447 -0.0449,0.07732 l 5.2e-4,-0.06476 c 0.0239,-0.0065 0.0445,-0.01257 0.0445,-0.01257 z m -9.33654,0.03769 c -0.0155,9.79e-4 -0.0309,0.0025 -0.0464,0.0034 -0.0112,0.08435 -0.025,0.176931 -0.0367,0.263375 -0.008,0.0598 -0.0169,0.121636 -0.0251,0.182189 -1.8e-4,0.0012 -2.5e-4,0.0026 -5e-4,0.0039 -0.0115,0.0849 -0.024,0.169694 -0.0358,0.255643 -0.0854,0.617719 -0.17685,1.247198 -0.28609,1.801103 -0.0335,0.182664 -0.0681,0.365402 -0.10245,0.548014 0.49004,-0.02865 0.97968,-0.06376 1.46862,-0.104383 -0.0598,-0.175961 -0.11938,-0.352082 -0.17832,-0.528202 -0.15962,-0.456841 -0.32058,-0.986335 -0.47939,-1.513079 -0.0218,-0.07217 -0.0434,-0.141329 -0.0648,-0.211185 -0.011,-0.03578 -0.0218,-0.07189 -0.0329,-0.10825 -0.0326,-0.107671 -0.0655,-0.216168 -0.0976,-0.320399 -0.0273,-0.08858 -0.0558,-0.187083 -0.0826,-0.272075 z m 0.0933,1.551258 c 0.10488,0.341443 0.2037,0.687793 0.30977,0.991645 5e-4,0.0012 9.7e-4,0.0022 0.002,0.0034 1.5e-4,5.03e-4 -1.7e-4,0.0015 0,0.002 0.007,0.02274 0.0146,0.04588 0.0222,0.06862 -0.16838,0.01267 -0.337,0.02306 -0.50548,0.03431 0.005,-0.02291 0.009,-0.0457 0.0135,-0.06862 v -0.0053 c 0.0627,-0.318366 0.10423,-0.677208 0.15803,-1.025958 z m -21.57119,3.433547 -0.40448,1.619882 c 0.14555,0.03628 0.2916,0.07195 0.43735,0.107282 l 0.0981,-0.404003 c 0.07,-0.06056 0.13954,-0.121435 0.20925,-0.182189 0.0709,0.237081 0.14318,0.473996 0.2165,0.710873 0.15951,0.03738 0.31919,0.07441 0.4789,0.110665 -0.12398,-0.366755 -0.24488,-0.734 -0.36292,-1.101344 0.21422,-0.181412 0.42664,-0.363811 0.6379,-0.547046 -0.15586,-0.03572 -0.31169,-0.0719 -0.46731,-0.108735 -0.18341,0.169404 -0.3676,0.338407 -0.55333,0.506455 -0.004,-7.41e-4 -0.007,-0.0015 -0.0102,-0.0025 l 0.14643,-0.604071 c -0.14223,-0.03461 -0.28422,-0.06981 -0.42623,-0.105352 z m 2.81208,0.519987 -0.26869,1.306245 c -0.0579,0.281051 -5.1e-4,0.493391 0.2972,0.552848 0.0974,0.01945 0.17223,0.01831 0.2223,0.0072 0.004,-0.109094 0.007,-0.218091 0.0111,-0.327167 -0.0213,7.41e-4 -0.0316,-9.79e-4 -0.0469,-0.0039 -0.0307,-0.0061 -0.0663,-0.03964 -0.0493,-0.125161 l 0.26386,-1.322679 c -0.1432,-0.02858 -0.28659,-0.05797 -0.42961,-0.08747 z m 32.2821,0.273524 c -0.0407,2.43e-4 -0.0815,0.0043 -0.12177,0.01207 -0.32247,0.06267 -0.58172,0.362319 -0.50307,0.781431 0.0786,0.419326 0.43132,0.603867 0.76017,0.539799 0.32885,-0.06407 0.58629,-0.367315 0.5021,-0.785295 -0.0736,-0.365551 -0.35279,-0.549719 -0.63743,-0.548013 z m -33.27423,0.01015 c -0.27281,-0.0039 -0.55348,0.180355 -0.63403,0.534967 -0.0944,0.415387 0.13557,0.72057 0.50983,0.801726 0.14325,0.03106 0.33779,0.02064 0.49583,-0.04591 -0.0297,-0.09538 -0.059,-0.191166 -0.0884,-0.286574 -0.10215,0.03076 -0.18901,0.03849 -0.27546,0.01982 -0.14248,-0.03078 -0.24345,-0.105535 -0.25081,-0.264825 0.2407,0.0531 0.48179,0.105058 0.72296,0.15561 0.0139,-0.02857 0.0399,-0.101997 0.0556,-0.177356 0.0705,-0.336809 -0.0496,-0.643264 -0.41947,-0.72392 -0.038,-0.0083 -0.077,-0.01297 -0.11598,-0.01353 z m 32.44206,0.168657 c -0.13843,0.02582 -0.27702,0.05114 -0.41559,0.07636 -0.0127,0.169444 -0.0255,0.338907 -0.0387,0.508386 -0.008,0.127039 -0.0132,0.247905 -0.0169,0.374042 -0.004,5.03e-4 -0.007,0.0012 -0.0102,0.002 -0.0535,-0.121133 -0.1,-0.232931 -0.15657,-0.343111 -0.08,-0.152764 -0.15977,-0.30566 -0.23922,-0.458613 -0.14543,0.02573 -0.2908,0.0513 -0.43638,0.07635 0.23086,0.379367 0.46394,0.757959 0.6988,1.135658 -0.002,0.01942 -0.004,0.03858 -0.006,0.05799 -0.0122,0.08045 -0.0599,0.141591 -0.17832,0.162375 -0.0258,0.0045 -0.0609,5.7e-5 -0.085,-9.79e-4 -0.007,0.114161 -0.0135,0.228456 -0.0203,0.342629 0.0594,0.0052 0.11371,0.0063 0.20152,-0.0092 0.32039,-0.05636 0.43223,-0.23629 0.50355,-0.601655 0.0684,-0.440853 0.13465,-0.881499 0.19911,-1.322193 z m -3.70899,0.1068 c -0.14541,0.02128 -0.29088,0.04222 -0.43638,0.06282 l 0.25081,1.772107 c 0.11557,-0.01638 0.23147,-0.03296 0.34698,-0.04978 0.006,-0.04751 0.0106,-0.09506 0.0159,-0.142563 0.004,-5.03e-4 0.006,-9.79e-4 0.0102,-0.0015 0.11444,0.09765 0.23662,0.136385 0.35036,0.119367 0.27481,-0.04112 0.4989,-0.330702 0.43058,-0.770313 -0.0604,-0.388811 -0.2969,-0.611798 -0.59682,-0.566862 -0.11206,0.01677 -0.2174,0.07899 -0.29479,0.173489 -0.006,-0.06156 -0.0109,-0.123046 -0.0164,-0.184604 z m -28.74853,0.06137 c 0.023,-0.0025 0.0466,-7.41e-4 0.0705,0.0044 0.13085,0.02849 0.15292,0.122573 0.13242,0.217949 -0.12459,-0.02679 -0.2491,-0.05419 -0.37356,-0.08167 0.0397,-0.08977 0.10173,-0.133292 0.17059,-0.140628 z m 33.28246,0.0097 c 0.10304,0.0067 0.16421,0.112649 0.19716,0.280289 0.0377,0.191499 0.0106,0.322567 -0.12226,0.34843 -0.13283,0.02587 -0.20714,-0.08572 -0.24405,-0.277391 -0.0369,-0.191769 -0.01,-0.32232 0.12227,-0.347946 0.0165,-0.0032 0.0322,-0.0043 0.0469,-0.0034 z m -31.18077,0.07829 c -0.28343,5.03e-4 -0.56068,0.185948 -0.6321,0.551396 -0.0817,0.417951 0.17743,0.719101 0.50742,0.780463 0.32997,0.06136 0.68022,-0.126406 0.75436,-0.545599 0.0741,-0.418911 -0.18708,-0.715302 -0.50839,-0.775145 -0.0402,-0.0075 -0.0808,-0.01118 -0.12129,-0.01111 z m 28.44117,0.06089 c -0.0407,-9.79e-4 -0.0817,0.002 -0.12226,0.0087 -0.32435,0.05325 -0.5921,0.345413 -0.52578,0.766931 0.0664,0.421739 0.41329,0.616451 0.7442,0.562028 0.33094,-0.05443 0.59735,-0.350143 0.52532,-0.770796 -0.063,-0.367884 -0.33673,-0.560249 -0.62148,-0.566863 z m -27.47127,0.134346 -0.2194,1.262754 c 0.14747,0.02558 0.29506,0.05072 0.44266,0.07539 l 0.1387,-0.82927 c 0.0772,-0.05467 0.14293,-0.07507 0.19378,-0.06669 0.0864,0.01423 0.12059,0.06135 0.0942,0.223264 l -0.11792,0.723438 c 0.14771,0.02402 0.29579,0.04791 0.44363,0.07104 l 0.13,-0.83072 c 0.0766,-0.05546 0.14237,-0.07647 0.1933,-0.06862 0.0865,0.01334 0.12084,0.06012 0.0962,0.222297 l -0.11018,0.724888 c 0.14793,0.02249 0.29606,0.04411 0.44411,0.06572 l 0.11405,-0.780945 c 0.0459,-0.314733 -0.0469,-0.534803 -0.32523,-0.577012 -0.17229,-0.02613 -0.301,0.05205 -0.42189,0.142078 -0.0479,-0.142508 -0.1455,-0.23014 -0.3175,-0.25806 -0.17203,-0.02792 -0.2918,0.04014 -0.4098,0.121782 -0.004,-5.03e-4 -0.007,-9.79e-4 -0.0101,-0.0015 -0.002,-0.05312 -0.003,-0.106347 -0.005,-0.159475 -0.118,-0.01987 -0.23583,-0.03994 -0.35374,-0.06041 z m -0.96024,0.160925 c 0.0147,-9.79e-4 0.0304,-1.61e-4 0.0469,0.0029 0.13157,0.0245 0.15984,0.154768 0.12468,0.346495 -0.0352,0.191601 -0.10813,0.303587 -0.24115,0.278839 -0.13301,-0.02474 -0.16131,-0.156028 -0.12516,-0.34746 0.0317,-0.167613 0.092,-0.273307 0.19475,-0.280774 z m 6.11128,0.03914 -0.18074,1.775007 c 0.14537,0.01482 0.29092,0.02901 0.43639,0.04301 l 0.029,-0.305903 c 0.0496,-0.04506 0.099,-0.09016 0.14836,-0.135311 0.0718,0.159572 0.14414,0.319039 0.21698,0.478425 0.16107,0.01467 0.32258,0.02886 0.48375,0.04253 -0.14184,-0.262469 -0.28233,-0.525498 -0.42092,-0.788677 0.16878,-0.163144 0.3368,-0.326724 0.50355,-0.490991 -0.1585,-0.01346 -0.31713,-0.0276 -0.47552,-0.04204 -0.13108,0.137372 -0.26292,0.274573 -0.39531,0.411252 -0.004,-2.47e-4 -0.006,-7.41e-4 -0.0101,-9.79e-4 l 0.0908,-0.944284 c -0.14209,-0.01366 -0.28424,-0.02759 -0.42623,-0.04204 z m 22.30235,0.02271 c 0.10288,0.0097 0.16089,0.116924 0.18896,0.285606 0.0321,0.192677 0.001,0.323559 -0.13241,0.345528 -0.13366,0.02197 -0.20454,-0.09182 -0.23584,-0.284638 -0.0313,-0.192915 -1.4e-4,-0.32279 0.13242,-0.344564 0.0166,-0.0027 0.0322,-0.0033 0.0469,-0.002 z m -2.88794,0.07732 c -0.0406,-0.0022 -0.082,-5.02e-4 -0.12275,0.0048 -0.32592,0.04302 -0.60286,0.326506 -0.54995,0.750016 0.0529,0.423741 0.39363,0.629645 0.72633,0.585709 0.33271,-0.04393 0.60878,-0.331444 0.54995,-0.754366 -0.0515,-0.36986 -0.31914,-0.570611 -0.60358,-0.586191 z m -22.36905,0.04591 -0.24356,1.715565 c 0.14903,0.02116 0.29836,0.04209 0.4475,0.06234 l 0.0478,-0.350846 c 0.004,-0.06504 0.006,-0.129711 0.0102,-0.194753 0.0715,0.09252 0.16433,0.151402 0.27303,0.165757 0.27535,0.03637 0.56931,-0.180011 0.62389,-0.617605 0.0489,-0.391829 -0.11366,-0.670085 -0.4127,-0.709421 -0.127,-0.0167 -0.25991,0.02752 -0.36583,0.101001 -0.004,-5.03e-4 -0.007,-9.79e-4 -0.0101,-0.0015 -0.005,-0.0403 -0.01,-0.08052 -0.0145,-0.120814 -0.11857,-0.01623 -0.23719,-0.03295 -0.35568,-0.04977 z m 18.28841,0.0063 c -0.36187,0.03178 -0.59946,0.285183 -0.57653,0.56976 0.0195,0.241027 0.18885,0.379352 0.37599,0.435899 0.0722,0.02316 0.14467,0.04613 0.21697,0.06911 0.14711,0.04402 0.23453,0.06168 0.24164,0.14111 0.007,0.07423 -0.0463,0.123066 -0.18123,0.134829 -0.12459,0.01086 -0.28083,-0.04307 -0.40787,-0.128064 -0.0762,0.107864 -0.15267,0.215641 -0.22954,0.323302 0.19497,0.147046 0.44639,0.20321 0.66013,0.184603 0.42276,-0.0368 0.63744,-0.310675 0.61083,-0.591991 -0.0218,-0.230432 -0.15381,-0.362794 -0.3697,-0.425749 -0.0703,-0.02031 -0.1405,-0.04042 -0.21069,-0.06089 -0.15702,-0.04547 -0.25464,-0.0656 -0.26144,-0.144976 -0.007,-0.07432 0.0571,-0.11861 0.16478,-0.128064 0.12318,-0.01081 0.22428,0.02133 0.34457,0.09037 0.0652,-0.09893 0.13,-0.197643 0.19476,-0.29672 -0.16769,-0.136536 -0.38379,-0.189107 -0.57267,-0.172522 z m -11.81372,0.02513 c -0.14232,-0.0078 -0.24399,0.07367 -0.25177,0.206835 -0.007,0.133126 0.0842,0.225973 0.22761,0.233896 0.14341,0.0079 0.24529,-0.07413 0.25226,-0.207317 0.007,-0.133236 -0.0857,-0.225563 -0.2281,-0.233414 z m 15.01918,0.03045 c -0.0258,-0.0012 -0.0565,-3e-5 -0.0962,0.0048 -0.12523,0.01534 -0.25912,0.108952 -0.33345,0.29382 -0.004,5.02e-4 -0.008,9.79e-4 -0.0106,0.0015 -0.0189,-0.07197 -0.0377,-0.144043 -0.0565,-0.216018 -0.11944,0.0141 -0.23909,0.02794 -0.35858,0.04156 l 0.14546,1.277733 c 0.14889,-0.01697 0.29821,-0.0345 0.44702,-0.05219 l -0.0846,-0.709908 c 0.0429,-0.165649 0.14921,-0.235196 0.24163,-0.246461 0.0565,-0.0069 0.0984,-0.0015 0.14594,0.0029 0.008,-0.128868 0.0169,-0.257743 0.0251,-0.386606 -0.0189,-0.0054 -0.0395,-0.0098 -0.0652,-0.01111 z m -5.35644,0.01885 c -0.14309,0.0091 -0.2865,0.01779 -0.42961,0.0261 l 0.10341,1.786121 c 0.14612,-0.0084 0.29224,-0.01742 0.43832,-0.02658 l -0.0193,-0.307836 c 0.0419,-0.05246 0.0834,-0.105015 0.12516,-0.157542 0.0963,0.146646 0.19325,0.293423 0.29044,0.439764 0.16163,-0.01086 0.32313,-0.02205 0.48471,-0.03383 -0.18152,-0.237672 -0.36149,-0.476005 -0.54029,-0.714738 0.14141,-0.188192 0.28192,-0.377007 0.42141,-0.565896 -0.15924,0.01158 -0.31867,0.02311 -0.47795,0.03383 -0.10821,0.156731 -0.21722,0.312937 -0.32668,0.469242 -0.004,2.47e-4 -0.006,7.41e-4 -0.0101,9.79e-4 z m 7.63789,0.02755 c 0.11758,-0.01744 0.1919,0.0592 0.22327,0.267725 0.0368,0.244102 -0.0385,0.338924 -0.14159,0.354227 -0.0567,0.0084 -0.1153,0.0015 -0.17349,-0.03673 l -0.0686,-0.468277 c 0.0467,-0.07442 0.0939,-0.107075 0.16044,-0.116947 z m -18.84512,0.03866 -0.12516,1.661924 c 0.36254,0.02737 0.72537,0.05254 1.08829,0.0749 l 0.0222,-0.368724 c -0.21259,-0.01309 -0.42496,-0.02723 -0.63741,-0.04205 l 0.0904,-1.294165 c -0.14609,-0.01014 -0.29229,-0.02091 -0.43831,-0.03189 z m 15.4111,0.07394 c -0.14685,0.01626 -0.29381,0.03232 -0.44073,0.04784 l 0.087,0.823471 c -0.0482,0.08783 -0.0916,0.12335 -0.17447,0.131928 -0.0881,0.0092 -0.13358,-0.02761 -0.15028,-0.191368 l -0.0749,-0.731655 c -0.14698,0.01502 -0.29371,0.0297 -0.44075,0.04398 l 0.0764,0.788677 c 0.0308,0.317176 0.17015,0.510427 0.45667,0.481324 0.17688,-0.01796 0.28817,-0.106946 0.37887,-0.240661 0.004,-5.03e-4 0.008,-0.0012 0.0111,-0.0015 0.0163,0.05517 0.0324,0.110585 0.0488,0.165757 0.12128,-0.01292 0.24266,-0.02623 0.36389,-0.03963 z m -18.4189,0.0068 c -0.28273,0.02061 -0.54632,0.225469 -0.5915,0.594892 -0.0517,0.422476 0.22837,0.7044 0.56154,0.742284 0.33315,0.03788 0.66882,-0.174442 0.71329,-0.597791 0.0444,-0.42308 -0.23668,-0.700066 -0.56155,-0.736967 -0.0406,-0.0046 -0.0814,-0.0054 -0.12178,-0.0025 z m 20.41764,0.08264 c 0.10257,0.01292 0.15704,0.122341 0.17978,0.291889 0.026,0.193669 -0.009,0.322955 -0.14352,0.340698 -0.13437,0.01774 -0.20147,-0.09811 -0.22665,-0.291888 -0.0252,-0.193877 0.0103,-0.322629 0.14352,-0.340214 0.0167,-0.0022 0.0322,-0.0022 0.0469,-5.02e-4 z m -9.64485,0.03625 c -0.17751,0.0039 -0.35505,0.0073 -0.53255,0.01015 -0.16019,0.559118 -0.32351,1.117919 -0.49051,1.675939 0.15321,-0.0015 0.30637,-0.0036 0.45958,-0.0058 0.0261,-0.118563 0.052,-0.237086 0.0778,-0.355678 0.15777,-0.0025 0.31536,-0.0052 0.47311,-0.0087 0.0302,0.117556 0.0609,0.234765 0.0913,0.352296 0.15851,-0.0036 0.31703,-0.0072 0.47553,-0.0116 -0.18806,-0.551583 -0.37301,-1.103942 -0.5543,-1.656607 z m -12.12881,0.06282 c 0.11734,0.01566 0.16743,0.110036 0.14015,0.318467 -0.032,0.243987 -0.12979,0.31388 -0.23293,0.300103 -0.0567,-0.0076 -0.11135,-0.03038 -0.15658,-0.08312 l 0.0638,-0.467308 c 0.0652,-0.05841 0.11918,-0.077 0.18557,-0.06814 z m 1.43769,0.172524 c 0.13296,0.01512 0.17086,0.14266 0.14933,0.336349 -0.0215,0.193565 -0.0869,0.310542 -0.22133,0.295268 -0.13436,-0.01527 -0.17132,-0.143862 -0.14885,-0.337313 0.0225,-0.193571 0.0879,-0.309412 0.22085,-0.294304 z m 4.21691,0.03673 -0.0744,1.280151 c 0.14938,0.0087 0.29854,0.01725 0.44798,0.02513 l 0.0677,-1.281118 c -0.14704,-0.0078 -0.29426,-0.01561 -0.44122,-0.02415 z m 8.71362,0.0034 c -0.3123,0.01544 -0.60624,0.284666 -0.58908,0.700241 0.0176,0.426148 0.31947,0.660948 0.70168,0.642249 0.14635,-0.0072 0.33182,-0.06821 0.46731,-0.173489 -0.0534,-0.08462 -0.10681,-0.168993 -0.15995,-0.25371 -0.0908,0.05626 -0.17304,0.08597 -0.26145,0.09037 -0.14568,0.0072 -0.26257,-0.03876 -0.31121,-0.190886 0.24648,-0.01141 0.49297,-0.0237 0.73938,-0.03721 0.007,-0.03126 0.0124,-0.109027 0.008,-0.186056 -0.019,-0.344099 -0.21463,-0.609708 -0.59392,-0.591507 z m -7.97762,0.03576 -0.0623,1.281118 c 0.14947,0.0073 0.29895,0.0143 0.44847,0.02078 l 0.0362,-0.840384 c 0.0698,-0.05865 0.11756,-0.09276 0.20007,-0.0894 0.0876,0.0036 0.12723,0.04614 0.12081,0.210218 l -0.0285,0.733102 c 0.14955,0.0059 0.29888,0.01138 0.44847,0.01643 l 0.0266,-0.790127 c 0.0107,-0.318242 -0.10095,-0.526064 -0.38273,-0.536899 v -5.03e-4 c -0.1744,-0.0067 -0.30607,0.07523 -0.41319,0.168176 -0.004,-1.51e-4 -0.006,-5.03e-4 -0.0102,-5.03e-4 -0.008,-0.05174 -0.0161,-0.103378 -0.0242,-0.155125 -0.11974,-0.0052 -0.23983,-0.01108 -0.35954,-0.01692 z m 7.14449,5.03e-4 c -0.1259,0.0049 -0.26679,0.08697 -0.35616,0.264827 -0.004,1.14e-4 -0.007,2.47e-4 -0.0106,5.03e-4 -0.0128,-0.07322 -0.0255,-0.146657 -0.0382,-0.219882 -0.12003,0.0041 -0.24,0.0081 -0.36003,0.0116 l 0.0382,1.284018 c 0.14972,-0.0044 0.29925,-0.0093 0.44895,-0.0145 l -0.0247,-0.71377 c 0.0566,-0.161341 0.16804,-0.222144 0.26096,-0.225682 0.0569,-0.0022 0.0985,0.0066 0.14547,0.01497 0.0191,-0.127618 0.0376,-0.255105 0.0565,-0.382739 -0.0366,-0.01391 -0.0807,-0.02242 -0.16043,-0.01932 z m -1.67159,0.02224 c 0.0442,0.166153 0.0897,0.368363 0.13435,0.526749 0.0103,0.03831 0.0205,0.07672 0.0309,0.115017 -0.10367,0.0022 -0.20757,0.004 -0.31122,0.0058 0.009,-0.03866 0.0177,-0.07731 0.0266,-0.115982 0.0387,-0.160415 0.0763,-0.360453 0.10921,-0.531102 0.004,-6.4e-5 0.007,-2.47e-4 0.0101,-5.02e-4 z m -3.98881,0.03576 -0.0241,0.790128 c -0.01,0.317827 0.10382,0.527227 0.39144,0.534484 0.17753,0.0045 0.29979,-0.07035 0.40642,-0.19137 0.004,6.9e-5 0.007,5.02e-4 0.0106,5.02e-4 0.009,0.05668 0.0182,0.113428 0.0275,0.170106 0.12182,0.0025 0.24351,0.0044 0.36535,0.0063 l 0.0198,-1.283051 c -0.14736,-0.0022 -0.29487,-0.0052 -0.44218,-0.0082 l -0.0169,0.826371 c -0.0587,0.08092 -0.1063,0.110648 -0.18944,0.108734 -0.0884,-0.002 -0.12919,-0.04407 -0.12516,-0.208285 l 0.0184,-0.733585 c -0.14729,-0.0036 -0.29446,-0.0077 -0.4417,-0.01207 z m 1.4029,0.02948 c 0.11906,0.206899 0.23862,0.413613 0.35954,0.62002 -0.13129,0.221414 -0.26337,0.44278 -0.39676,0.663513 0.15491,0.002 0.30998,0.0032 0.4649,0.0044 0.0248,-0.05973 0.0492,-0.119055 0.0739,-0.178807 0.0291,-0.07426 0.0609,-0.148632 0.0899,-0.220364 0.004,2e-5 0.007,-1.7e-5 0.0106,0 0.0386,0.07209 0.0743,0.149288 0.11309,0.221332 0.0345,0.06005 0.0693,0.120245 0.1039,0.180254 0.16013,5.02e-4 0.3202,-5e-6 0.48036,-5.03e-4 -0.13122,-0.205059 -0.2612,-0.410035 -0.39048,-0.61567 0.12302,-0.222322 0.24479,-0.44496 0.36583,-0.667863 -0.15256,5.03e-4 -0.30511,5.03e-4 -0.45765,0 -0.0207,0.05986 -0.0411,0.119926 -0.0618,0.179771 -0.0229,0.07015 -0.0555,0.150221 -0.0783,0.220367 -0.004,-1.5e-5 -0.007,1.5e-5 -0.0106,0 -0.034,-0.07378 -0.0681,-0.147517 -0.10197,-0.221332 -0.0306,-0.06009 -0.0609,-0.120141 -0.0913,-0.180256 -0.15774,-9.79e-4 -0.31539,-0.0029 -0.4731,-0.0048 z m 5.1177,0.20925 c 0.13411,-0.0066 0.17966,0.07831 0.1846,0.175906 -0.12753,0.0065 -0.25517,0.01294 -0.38274,0.01885 0.0199,-0.129548 0.10014,-0.189978 0.19814,-0.194754 z m -0.26386,2.94739 c -0.1907,0 -0.32282,0.120599 -0.32282,0.299621 0,0.182913 0.13212,0.300103 0.32282,0.300103 0.1907,0 0.32282,-0.11719 0.32282,-0.300103 0,-0.179022 -0.13212,-0.299621 -0.32282,-0.299621 z m -12.96774,0.08602 5e-4,2.727996 h 0.55623 v -0.47504 l 0.2455,-0.27595 0.43541,0.75098 h 0.61905 l -0.72778,-1.13661 0.67704,-0.794002 h -0.62243 l -0.61132,0.766922 h -0.0155 v -1.564296 z m 2.1331,0 v 2.128756 c 0,0.38917 0.13222,0.64563 0.5253,0.64563 v 5.2e-4 c 0.12842,0 0.22575,-0.0197 0.28802,-0.0469 l -0.0701,-0.4243 c -0.0311,0.008 -0.0467,0.008 -0.0701,0.008 -0.0467,0 -0.101,-0.0388 -0.101,-0.15948 v -2.151941 z m 12.77637,0 V 58.3272 l 0.0237,0.295764 c -0.13233,-0.124546 -0.26099,-0.202496 -0.47504,-0.202496 -0.40864,0 -0.80173,0.381476 -0.80173,1.011946 0,0.63047 0.31144,1.01195 0.79013,1.01195 0.18681,0 0.37749,-0.10155 0.5137,-0.23777 h 0.0155 l 0.0391,0.19089 h 0.46683 V 57.66948 Z m -10.86171,0.750981 c -0.30356,0 -0.57974,0.10486 -0.82492,0.252755 l 0.20587,0.37742 c 0.18681,-0.10897 0.34638,-0.17494 0.50984,-0.17494 0.21016,0 0.2918,0.10905 0.30348,0.28028 -0.76279,0.0778 -1.08539,0.29985 -1.08539,0.70459 0,0.32691 0.22189,0.58377 0.57604,0.58377 0.21794,0 0.39664,-0.10149 0.5601,-0.24549 h 0.0155 l 0.0391,0.19862 h 0.46683 v -1.10521 c 0,-0.59156 -0.27218,-0.871795 -0.76645,-0.871795 z m 1.9224,0 c -0.44366,0 -0.73938,0.245065 -0.73938,0.603115 0,0.31912 0.2686,0.4788 0.50211,0.56831 0.19847,0.0778 0.39288,0.1359 0.39288,0.26434 0,0.10119 -0.0738,0.16382 -0.24501,0.16382 -0.16346,0 -0.32311,-0.0702 -0.49824,-0.20248 l -0.25661,0.3581 c 0.19459,0.15956 0.48643,0.26868 0.73939,0.26868 0.51761,0 0.79399,-0.27265 0.79399,-0.62291 0,-0.35416 -0.27626,-0.4904 -0.52143,-0.57991 -0.19849,-0.0739 -0.37018,-0.12048 -0.37018,-0.24501 0,-0.0973 0.074,-0.15175 0.22182,-0.15175 0.13232,0 0.26876,0.0622 0.40497,0.16334 l 0.25709,-0.34263 c -0.16346,-0.12453 -0.38562,-0.245015 -0.6814,-0.245015 z m 3.00829,0 c -0.49037,0 -0.94139,0.369805 -0.94139,1.011945 0,0.64215 0.45102,1.01193 0.94139,1.01193 0.48647,0 0.938,-0.36978 0.938,-1.01193 0,-0.64214 -0.45153,-1.011945 -0.938,-1.011945 z m 2.4013,0 c -0.19848,0 -0.40839,0.124415 -0.54849,0.385165 h -0.0155 l -0.0391,-0.338772 h -0.46683 v 1.930602 h 0.57169 v -1.12067 c 0.10119,-0.26075 0.28031,-0.35423 0.42431,-0.35423 0.0817,0 0.14017,0.0115 0.21021,0.0309 l 0.0933,-0.494368 c -0.0545,-0.02336 -0.12058,-0.03866 -0.22955,-0.03866 z m 1.30383,0.04639 v 1.930625 h 0.57218 v -1.930632 z m -3.70513,0.416565 c 0.2335,0 0.35422,0.21429 0.35422,0.54898 0,0.3347 -0.12072,0.5485 -0.35422,0.5485 -0.2374,0 -0.35375,-0.2138 -0.35375,-0.5485 0,-0.33469 0.11635,-0.54898 0.35375,-0.54898 z m 5.61207,0.004 c 0.10508,0 0.21825,0.0313 0.31943,0.12468 v 0.79013 c -0.0934,0.12843 -0.19103,0.17494 -0.31557,0.17494 -0.22184,0 -0.35036,-0.17097 -0.35036,-0.55236 0,-0.36583 0.16358,-0.53739 0.3465,-0.53739 z m -10.348,0.61132 v 0.33828 c -0.10119,0.10119 -0.18714,0.16335 -0.31557,0.16335 -0.13622,0 -0.22181,-0.0581 -0.22181,-0.18268 0,-0.14788 0.13263,-0.26446 0.53738,-0.31895 z m 3.10928,0.22569 c -0.19848,0 -0.3465,0.15569 -0.3465,0.36196 0,0.20237 0.14802,0.35809 0.3465,0.35809 0.19848,0 0.3465,-0.15572 0.3465,-0.35809 0,-0.20627 -0.14802,-0.36196 -0.3465,-0.36196 z m 4.49527,0 c -0.19848,0 -0.3465,0.15569 -0.3465,0.36196 0,0.20237 0.14802,0.35809 0.3465,0.35809 0.19847,0 0.34601,-0.15572 0.34601,-0.35809 0,-0.20627 -0.14754,-0.36196 -0.34601,-0.36196 z"
       id="path3885-3"
       inkscape:connector-curvature="0" />
  </g>
</svg>
